<svg width="64" height="64" viewBox="0 0 64 64" fill="none" xmlns="http://www.w3.org/2000/svg">
<g clip-path="url(#clip0_418_7036)">
<path d="M13.3332 24H7.22656C8.09323 26.36 9.5199 28.1467 10.1732 30.6667C10.8266 33.1867 10.6266 37.6533 11.3732 41.04C11.4122 41.1219 11.4736 41.191 11.5503 41.2394C11.627 41.2879 11.7159 41.3135 11.8066 41.3135C11.8973 41.3135 11.9861 41.2879 12.0628 41.2394C12.1395 41.191 12.2009 41.1219 12.2399 41.04C16.0399 29.1467 21.2932 29.1467 25.0932 41.04C25.1322 41.1219 25.1936 41.191 25.2703 41.2394C25.347 41.2879 25.4359 41.3135 25.5266 41.3135C25.6173 41.3135 25.7061 41.2879 25.7828 41.2394C25.8595 41.191 25.9209 41.1219 25.9599 41.04C26.7066 37.6533 26.5199 33.04 27.1599 30.6667C27.7999 28.2933 29.2799 26.2667 30.1066 24H23.9999C23.9999 24.7072 23.7189 25.3855 23.2188 25.8856C22.7188 26.3857 22.0405 26.6667 21.3332 26.6667H15.9999C15.2927 26.6667 14.6144 26.3857 14.1143 25.8856C13.6142 25.3855 13.3332 24.7072 13.3332 24Z" fill="#3B89E4"/>
<path d="M16 21.3333H21.3333V24H16V21.3333Z" fill="#ABCDEB"/>
<path d="M13.3332 21.3333C13.3332 20.6261 13.6142 19.9478 14.1143 19.4477C14.6144 18.9476 15.2927 18.6667 15.9999 18.6667H21.3332C22.0405 18.6667 22.7188 18.9476 23.2189 19.4477C23.719 19.9478 23.9999 20.6261 23.9999 21.3333C31.4932 21.3333 30.6666 21.5067 30.6666 20.9067C30.6666 16.5867 29.1599 14.6667 25.7732 14.6667C24.3403 14.6221 22.9105 14.8251 21.5466 15.2667C19.6868 15.9467 17.6464 15.9467 15.7866 15.2667C14.4227 14.8251 12.9928 14.6221 11.5599 14.6667C8.17324 14.6667 6.66658 16.5867 6.66658 20.9067C6.66658 21.5067 5.85324 21.3333 13.3332 21.3333Z" fill="#3B89E4"/>
<path d="M42.6667 21.3333H48.0001V24H42.6667V21.3333Z" fill="#ABCDEB"/>
<path d="M40 21.3333C40 20.6261 40.2809 19.9478 40.781 19.4477C41.2811 18.9476 41.9594 18.6667 42.6667 18.6667H48C48.7072 18.6667 49.3855 18.9476 49.8856 19.4477C50.3857 19.9478 50.6667 20.6261 50.6667 21.3333C58.16 21.3333 57.3333 21.5067 57.3333 20.9067C57.3333 16.5867 55.8267 14.6667 52.44 14.6667C51.0071 14.6221 49.5772 14.8251 48.2133 15.2667C46.3535 15.9467 44.3131 15.9467 42.4533 15.2667C41.0894 14.8251 39.6596 14.6221 38.2267 14.6667C34.84 14.6667 33.3333 16.5867 33.3333 20.9067C33.3333 21.5067 32.52 21.3333 40 21.3333Z" fill="#3B89E4"/>
<path d="M40 24H33.8933C34.76 26.36 36.1866 28.1467 36.84 30.6667C37.4933 33.1867 37.2933 37.6533 38.04 41.04C38.0746 41.1266 38.1344 41.2009 38.2116 41.2532C38.2889 41.3055 38.38 41.3335 38.4733 41.3335C38.5666 41.3335 38.6577 41.3055 38.735 41.2532C38.8122 41.2009 38.872 41.1266 38.9066 41.04C42.7066 29.1467 47.96 29.1467 51.76 41.04C51.799 41.1219 51.8604 41.191 51.9371 41.2394C52.0138 41.2879 52.1026 41.3135 52.1933 41.3135C52.284 41.3135 52.3728 41.2879 52.4495 41.2394C52.5262 41.191 52.5876 41.1219 52.6266 41.04C53.3733 37.6533 53.1866 33.04 53.8266 30.6667C54.4666 28.2933 55.9466 26.2667 56.7733 24H50.6666C50.6666 24.7072 50.3857 25.3855 49.8856 25.8856C49.3855 26.3857 48.7072 26.6667 48 26.6667H42.6666C41.9594 26.6667 41.2811 26.3857 40.781 25.8856C40.2809 25.3855 40 24.7072 40 24Z" fill="#3B89E4"/>
<path d="M62.6667 21.3333H60C59.9848 22.2369 59.8458 23.1342 59.5867 24H62.6667C63.0203 24 63.3594 23.8595 63.6095 23.6095C63.8595 23.3594 64 23.0203 64 22.6666C64 22.313 63.8595 21.9739 63.6095 21.7238C63.3594 21.4738 63.0203 21.3333 62.6667 21.3333Z" fill="#ABCDEB"/>
<path d="M4.44 24C4.17187 23.1354 4.02382 22.2382 4 21.3333H1.33333C0.979711 21.3333 0.640573 21.4738 0.390524 21.7238C0.140476 21.9739 0 22.313 0 22.6666C0 23.0203 0.140476 23.3594 0.390524 23.6095C0.640573 23.8595 0.979711 24 1.33333 24H4.44Z" fill="#ABCDEB"/>
<path d="M58.0666 27.56C55.0133 32.64 56.5866 35.56 55.2266 41.6267C55.0569 42.279 54.6824 42.8596 54.158 43.283C53.6335 43.7064 52.9871 43.9502 52.3137 43.9786C51.6403 44.0069 50.9756 43.8183 50.4174 43.4406C49.8593 43.0628 49.4372 42.5157 49.2133 41.88C47.3733 36.1334 45.7866 34.8667 45.3333 34.8667C44.8799 34.8667 43.2933 36.2 41.4533 41.88C41.2294 42.5157 40.8073 43.0628 40.2491 43.4406C39.6909 43.8183 39.0262 44.0069 38.3528 43.9786C37.6794 43.9502 37.033 43.7064 36.5086 43.283C35.9842 42.8596 35.6096 42.279 35.4399 41.6267C35.0288 39.5865 34.7703 37.5186 34.6666 35.44C34.3333 30.3734 34.1866 31 32.3066 27.08H31.5866C30.8233 28.4416 30.1851 29.8697 29.6799 31.3467C29.1733 33.2667 29.2933 38.1734 28.5066 41.6267C28.3369 42.279 27.9624 42.8596 27.438 43.283C26.9135 43.7064 26.2671 43.9502 25.5937 43.9786C24.9203 44.0069 24.2556 43.8183 23.6974 43.4406C23.1393 43.0628 22.7172 42.5157 22.4933 41.88C20.6533 36.1334 19.0666 34.8667 18.6133 34.8667C18.1599 34.8667 16.5733 36.2 14.7333 41.88C14.5094 42.5157 14.0873 43.0628 13.5291 43.4406C12.9709 43.8183 12.3062 44.0069 11.6328 43.9786C10.9594 43.9502 10.313 43.7064 9.78855 43.283C9.26415 42.8596 8.88956 42.279 8.71992 41.6267C7.38659 35.5867 8.97325 32.7067 5.87992 27.56C3.90363 28.48 2.29991 30.0461 1.33325 32V50.6667H62.6666V32C61.6865 30.0373 60.0628 28.4701 58.0666 27.56Z" fill="#ABCDEB"/>
</g>
<defs>
<clipPath id="clip0_418_7036">
<rect width="64" height="64" fill="white"/>
</clipPath>
</defs>
</svg>
