<svg width="64" height="64" viewBox="0 0 64 64" fill="none" xmlns="http://www.w3.org/2000/svg">
<path d="M18.0002 21.26C18.2422 21.7235 18.6059 22.1124 19.0522 22.3848C19.4985 22.6573 20.0106 22.8031 20.5335 22.8067H43.2668C43.7862 22.7949 44.2933 22.6463 44.7369 22.3759C45.1805 22.1056 45.545 21.7229 45.7935 21.2667C46.2778 20.3947 46.8283 19.5611 47.4402 18.7733C48.4698 17.539 49.1984 16.0822 49.5687 14.518C49.9389 12.9538 49.9405 11.325 49.5735 9.76001C48.7135 5.86668 45.4402 3.16668 41.6468 2.00001C39.7022 1.43408 37.6186 1.59035 35.7802 2.44001C34.6209 2.95317 33.3705 3.22877 32.103 3.25052C30.8354 3.27228 29.5763 3.03975 28.4002 2.56668C26.3393 1.71221 24.0578 1.54536 21.8946 2.09093C19.7313 2.63649 17.8018 3.86536 16.3927 5.59497C14.9835 7.32457 14.17 9.46262 14.0728 11.6915C13.9757 13.9203 14.6002 16.121 15.8535 17.9667C16.4135 18.7733 17.2335 20.04 18.0002 21.26ZM26.7735 5.26001C26.8071 5.17892 26.8563 5.10526 26.9184 5.04325C26.9805 4.98123 27.0543 4.93209 27.1354 4.89865C27.2165 4.8652 27.3035 4.8481 27.3912 4.84834C27.479 4.84857 27.5659 4.86613 27.6468 4.90001C29.0704 5.4758 30.5949 5.76064 32.1303 5.73774C33.6657 5.71484 35.181 5.38466 36.5868 4.76668C36.6678 4.73341 36.7545 4.71642 36.8421 4.71667C36.9296 4.71693 37.0163 4.73442 37.0971 4.76816C37.1779 4.8019 37.2512 4.85122 37.3129 4.91331C37.3747 4.97539 37.4236 5.04903 37.4568 5.13001C37.4901 5.21099 37.5071 5.29774 37.5068 5.38528C37.5066 5.47283 37.4891 5.55947 37.4553 5.64026C37.4216 5.72105 37.3723 5.7944 37.3102 5.85612C37.2481 5.91785 37.1745 5.96674 37.0935 6.00001C35.5224 6.69662 33.8268 7.06869 32.1085 7.09389C30.3901 7.11909 28.6843 6.79691 27.0935 6.14668C26.935 6.07512 26.8107 5.94444 26.7472 5.78252C26.6836 5.62061 26.6859 5.44028 26.7535 5.28001L26.7735 5.26001Z" fill="#3B89E4"/>
<path d="M29.4668 24.14H21.0134L21.3334 24.9933C21.4553 25.3178 21.6729 25.5974 21.9576 25.7951C22.2422 25.9928 22.5802 26.0991 22.9268 26.1H30.3001C29.9394 25.4851 29.6594 24.8264 29.4668 24.14Z" fill="#3B89E4"/>
<path d="M43.2 24.9934L43.52 24.1334C43.38 24.1334 44.3466 24.1334 30.8933 24.1334L31.2133 24.9867C31.3335 25.3122 31.5508 25.5929 31.8358 25.7908C32.1208 25.9887 32.4597 26.0944 32.8066 26.0934H41.6C41.9466 26.0934 42.2852 25.9883 42.5708 25.7919C42.8565 25.5955 43.0759 25.3171 43.2 24.9934Z" fill="#3B89E4"/>
<path d="M34.5535 38.3L30.4402 38.9C31.0717 39.3473 31.8511 39.5345 32.6169 39.4228C33.3827 39.3111 34.0761 38.9091 34.5535 38.3Z" fill="#ABCDEB"/>
<path d="M63.3334 46.6667V41.7867H52.1601C51.9833 41.7867 51.8137 41.7165 51.6887 41.5914C51.5637 41.4664 51.4934 41.2968 51.4934 41.12C51.4934 40.9432 51.5637 40.7737 51.6887 40.6486C51.8137 40.5236 51.9833 40.4534 52.1601 40.4534H55.0867C54.3272 40.0346 53.6219 39.5241 52.9868 38.9334C51.5801 37.6203 49.8828 36.6585 48.0334 36.1267C47.2967 35.9305 46.5146 35.9976 45.822 36.3165C45.1295 36.6354 44.57 37.186 44.2401 37.8734L43.4134 39.54C43.1599 40.0269 42.7766 40.4341 42.3059 40.7165C41.8353 40.9989 41.2956 41.1455 40.7467 41.14C40.2504 41.1484 39.764 41.2808 39.332 41.5254C38.9 41.7699 38.536 42.1188 38.2734 42.54L35.8001 46.46C35.559 46.8497 35.2277 47.1757 34.8343 47.4106C34.4409 47.6456 33.9968 47.7825 33.5393 47.81C33.0819 47.8374 32.6246 47.7545 32.2059 47.5684C31.7872 47.3822 31.4194 47.0981 31.1334 46.74L29.8667 45.1534C29.5805 44.7836 29.223 44.475 28.8153 44.246C28.4076 44.017 27.9581 43.8721 27.4934 43.82C26.8874 43.7673 26.3043 43.5633 25.7976 43.2267C25.2909 42.8901 24.8769 42.4316 24.5934 41.8934L22.2267 37.42C21.9448 36.8962 21.5278 36.4573 21.0191 36.149C20.5103 35.8407 19.9283 35.6742 19.3334 35.6667C16.1991 35.6614 13.1851 36.8732 10.9267 39.0467C10.3523 39.5932 9.71177 40.0658 9.02008 40.4534H13.0201C13.1969 40.4534 13.3665 40.5236 13.4915 40.6486C13.6165 40.7737 13.6867 40.9432 13.6867 41.12C13.6867 41.2968 13.6165 41.4664 13.4915 41.5914C13.3665 41.7165 13.1969 41.7867 13.0201 41.7867H0.666748V54.7134L1.41341 54C3.25737 52.2023 5.73148 51.1973 8.30675 51.2H13.7067C15.4444 51.2002 17.1511 51.6602 18.6534 52.5334L22.5801 54.8C23.5929 55.3875 24.7425 55.698 25.9134 55.7H31.6534C35.2201 55.7 36.6734 52.4267 41.1068 52.4267H46.0134C47.6796 52.4182 49.3084 52.9208 50.6801 53.8667C53.6401 55.9067 53.0667 55.7 56.4534 55.7C57.3329 55.703 58.1817 55.3773 58.8334 54.7867L63.3334 50.7267V48.56L60.0001 52.04C59.9381 52.105 59.8637 52.1569 59.7812 52.1924C59.6987 52.2279 59.6099 52.2464 59.5201 52.2467C59.3885 52.2475 59.2596 52.2093 59.1496 52.1369C59.0397 52.0645 58.9536 51.9612 58.9023 51.84C58.851 51.7188 58.8367 51.5852 58.8612 51.4558C58.8857 51.3265 58.9479 51.2074 59.0401 51.1134L63.3334 46.6667Z" fill="#ABCDEB"/>
<path d="M56.4534 57.02C54.5267 57.02 53.1867 57.2 51.6934 56.1667C47.6068 53.36 48.2401 53.7467 41.1267 53.7467C39.9172 53.7472 38.7289 54.0644 37.6801 54.6667C33.0134 57.3867 34.2601 57.02 25.9334 57.02C24.5281 57.0197 23.1479 56.6471 21.9334 55.94L18.0001 53.6734C16.6997 52.9192 15.2234 52.5214 13.7201 52.52H8.32008C6.093 52.5208 3.95433 53.3916 2.36008 54.9467L0.666748 56.58V62.3534H63.3334V52.52L59.7267 55.7667C58.8285 56.5754 57.6621 57.022 56.4534 57.02ZM12.5401 57.44H7.37341C7.1966 57.44 7.02703 57.3698 6.90201 57.2448C6.77699 57.1197 6.70675 56.9502 6.70675 56.7734C6.70675 56.5965 6.77699 56.427 6.90201 56.302C7.02703 56.1769 7.1966 56.1067 7.37341 56.1067H12.5401C12.7169 56.1067 12.8865 56.1769 13.0115 56.302C13.1365 56.427 13.2067 56.5965 13.2067 56.7734C13.2067 56.9502 13.1365 57.1197 13.0115 57.2448C12.8865 57.3698 12.7169 57.44 12.5401 57.44Z" fill="#ABCDEB"/>
<path d="M37.0068 35.92C36.9969 35.8316 36.9695 35.746 36.926 35.6683C36.8826 35.5907 36.8241 35.5225 36.7538 35.4678C36.6836 35.4132 36.6032 35.3731 36.5173 35.35C36.4313 35.3269 36.3416 35.3212 36.2535 35.3334L27.9135 36.58C27.7367 36.5933 27.5724 36.6762 27.4567 36.8106C27.3411 36.945 27.2835 37.1199 27.2968 37.2967C27.3101 37.4735 27.393 37.6378 27.5274 37.7534C27.6618 37.8691 27.8367 37.9266 28.0135 37.9134C28.0801 37.9134 27.4868 37.9934 36.4468 36.6867C36.5342 36.6737 36.6181 36.6435 36.6937 36.5978C36.7693 36.5521 36.8351 36.4918 36.8872 36.4205C36.9393 36.3492 36.9767 36.2682 36.9972 36.1823C37.0177 36.0963 37.021 36.0072 37.0068 35.92Z" fill="#ABCDEB"/>
<path d="M37.86 33.2533C37.8502 33.1649 37.8227 33.0793 37.7793 33.0017C37.7358 32.924 37.6773 32.8558 37.6071 32.8011C37.5369 32.7465 37.4564 32.7064 37.3705 32.6833C37.2846 32.6602 37.1949 32.6546 37.1067 32.6667L27.0667 34.16C26.8899 34.1724 26.7252 34.2545 26.609 34.3883C26.4927 34.522 26.4343 34.6965 26.4467 34.8733C26.4591 35.0501 26.5412 35.2148 26.675 35.3311C26.8087 35.4473 26.9832 35.5057 27.16 35.4933C27.2267 35.4933 26.4934 35.5933 37.3 34.0133C37.3868 34.0003 37.4701 33.9703 37.5452 33.925C37.6203 33.8798 37.6857 33.8201 37.7377 33.7495C37.7897 33.6789 37.8273 33.5988 37.8483 33.5136C37.8693 33.4285 37.8733 33.34 37.86 33.2533Z" fill="#ABCDEB"/>
<path d="M38.1733 30.6667C38.1469 30.4929 38.053 30.3365 37.9119 30.2316C37.7708 30.1267 37.594 30.0818 37.42 30.1067L26.7533 31.6667C26.5765 31.6799 26.4122 31.7629 26.2965 31.8973C26.1809 32.0317 26.1234 32.2065 26.1366 32.3833C26.1499 32.5601 26.2329 32.7244 26.3673 32.8401C26.5017 32.9557 26.6765 33.0133 26.8533 33C26.92 33 26.1133 33.1133 37.62 31.4333C37.7068 31.4196 37.79 31.3888 37.8648 31.3427C37.9396 31.2967 38.0046 31.2363 38.0561 31.1651C38.1075 31.0938 38.1443 31.0131 38.1644 30.9276C38.1846 30.842 38.1876 30.7534 38.1733 30.6667Z" fill="#ABCDEB"/>
<path d="M38.9201 28C38.8937 27.8262 38.7997 27.6699 38.6586 27.565C38.5176 27.4601 38.3408 27.4152 38.1667 27.44L26.0001 29.22C25.8232 29.2324 25.6586 29.3145 25.5423 29.4483C25.426 29.5821 25.3677 29.7566 25.3801 29.9334C25.3924 30.1102 25.4745 30.2748 25.6083 30.3911C25.7421 30.5074 25.9166 30.5658 26.0934 30.5534C26.1667 30.5534 25.2534 30.6867 38.3467 28.7667C38.4353 28.7553 38.5207 28.7263 38.5978 28.6813C38.6749 28.6363 38.7422 28.5762 38.7957 28.5047C38.8491 28.4332 38.8877 28.3517 38.9091 28.265C38.9304 28.1783 38.9342 28.0882 38.9201 28Z" fill="#ABCDEB"/>
</svg>
