<svg width="64" height="64" viewBox="0 0 64 64" fill="none" xmlns="http://www.w3.org/2000/svg">
<path d="M3.42847 17.1428V51.4285C3.42847 51.7316 3.54887 52.0223 3.7632 52.2367C3.97753 52.451 4.26822 52.5714 4.57132 52.5714H38.1485C37.8497 51.0806 37.208 49.6798 36.2742 48.48C30.857 41.9542 37.2342 32.6057 44.8342 34.5028C46.0342 34.7314 47.4856 35.6457 49.9427 34.8457C50.4342 34.7085 50.2856 36.1714 50.2856 17.1428H3.42847ZM13.7142 45.7142C13.7142 46.0174 13.5938 46.308 13.3794 46.5224C13.1651 46.7367 12.8744 46.8571 12.5713 46.8571H10.2856C9.9825 46.8571 9.69181 46.7367 9.47749 46.5224C9.26316 46.308 9.14275 46.0174 9.14275 45.7142V43.4285C9.14275 43.1254 9.26316 42.8347 9.47749 42.6204C9.69181 42.4061 9.9825 42.2857 10.2856 42.2857H12.5713C12.8744 42.2857 13.1651 42.4061 13.3794 42.6204C13.5938 42.8347 13.7142 43.1254 13.7142 43.4285V45.7142ZM13.7142 35.4285C13.7142 35.7316 13.5938 36.0223 13.3794 36.2367C13.1651 36.451 12.8744 36.5714 12.5713 36.5714H10.2856C9.9825 36.5714 9.69181 36.451 9.47749 36.2367C9.26316 36.0223 9.14275 35.7316 9.14275 35.4285V33.1428C9.14275 32.8397 9.26316 32.549 9.47749 32.3347C9.69181 32.1204 9.9825 32 10.2856 32H12.5713C12.8744 32 13.1651 32.1204 13.3794 32.3347C13.5938 32.549 13.7142 32.8397 13.7142 33.1428V35.4285ZM23.9999 45.7142C23.9999 46.0174 23.8795 46.308 23.6652 46.5224C23.4508 46.7367 23.1601 46.8571 22.857 46.8571H20.5713C20.2682 46.8571 19.9775 46.7367 19.7632 46.5224C19.5489 46.308 19.4285 46.0174 19.4285 45.7142V43.4285C19.4285 43.1254 19.5489 42.8347 19.7632 42.6204C19.9775 42.4061 20.2682 42.2857 20.5713 42.2857H22.857C23.1601 42.2857 23.4508 42.4061 23.6652 42.6204C23.8795 42.8347 23.9999 43.1254 23.9999 43.4285V45.7142ZM23.9999 35.4285C23.9999 35.7316 23.8795 36.0223 23.6652 36.2367C23.4508 36.451 23.1601 36.5714 22.857 36.5714H20.5713C20.2682 36.5714 19.9775 36.451 19.7632 36.2367C19.5489 36.0223 19.4285 35.7316 19.4285 35.4285V33.1428C19.4285 32.8397 19.5489 32.549 19.7632 32.3347C19.9775 32.1204 20.2682 32 20.5713 32H22.857C23.1601 32 23.4508 32.1204 23.6652 32.3347C23.8795 32.549 23.9999 32.8397 23.9999 33.1428V35.4285ZM23.9999 25.1428C23.9999 25.4459 23.8795 25.7366 23.6652 25.9509C23.4508 26.1653 23.1601 26.2857 22.857 26.2857H20.5713C20.2682 26.2857 19.9775 26.1653 19.7632 25.9509C19.5489 25.7366 19.4285 25.4459 19.4285 25.1428V22.8571C19.4285 22.554 19.5489 22.2633 19.7632 22.049C19.9775 21.8347 20.2682 21.7143 20.5713 21.7143H22.857C23.1601 21.7143 23.4508 21.8347 23.6652 22.049C23.8795 22.2633 23.9999 22.554 23.9999 22.8571V25.1428ZM34.2856 35.4285C34.2856 35.7316 34.1652 36.0223 33.9509 36.2367C33.7365 36.451 33.4459 36.5714 33.1427 36.5714H30.857C30.5539 36.5714 30.2632 36.451 30.0489 36.2367C29.8346 36.0223 29.7142 35.7316 29.7142 35.4285V33.1428C29.7142 32.8397 29.8346 32.549 30.0489 32.3347C30.2632 32.1204 30.5539 32 30.857 32H33.1427C33.4459 32 33.7365 32.1204 33.9509 32.3347C34.1652 32.549 34.2856 32.8397 34.2856 33.1428V35.4285ZM34.2856 25.1428C34.2856 25.4459 34.1652 25.7366 33.9509 25.9509C33.7365 26.1653 33.4459 26.2857 33.1427 26.2857H30.857C30.5539 26.2857 30.2632 26.1653 30.0489 25.9509C29.8346 25.7366 29.7142 25.4459 29.7142 25.1428V22.8571C29.7142 22.554 29.8346 22.2633 30.0489 22.049C30.2632 21.8347 30.5539 21.7143 30.857 21.7143H33.1427C33.4459 21.7143 33.7365 21.8347 33.9509 22.049C34.1652 22.2633 34.2856 22.554 34.2856 22.8571V25.1428ZM44.5713 25.1428C44.5713 25.4459 44.4509 25.7366 44.2366 25.9509C44.0223 26.1653 43.7316 26.2857 43.4285 26.2857H41.1427C40.8396 26.2857 40.549 26.1653 40.3346 25.9509C40.1203 25.7366 39.9999 25.4459 39.9999 25.1428V22.8571C39.9999 22.554 40.1203 22.2633 40.3346 22.049C40.549 21.8347 40.8396 21.7143 41.1427 21.7143H43.4285C43.7316 21.7143 44.0223 21.8347 44.2366 22.049C44.4509 22.2633 44.5713 22.554 44.5713 22.8571V25.1428Z" fill="#ABCDEB"/>
<path d="M50.2856 7.99997V14.8571H3.42847V7.99997C3.42847 7.69687 3.54887 7.40618 3.7632 7.19185C3.97753 6.97752 4.26822 6.85712 4.57132 6.85712H6.85704V10.2857C6.85704 10.5888 6.97745 10.8795 7.19177 11.0938C7.4061 11.3081 7.69679 11.4285 7.9999 11.4285C8.303 11.4285 8.59369 11.3081 8.80802 11.0938C9.02234 10.8795 9.14275 10.5888 9.14275 10.2857V6.85712H13.7142V10.2857C13.7142 10.5888 13.8346 10.8795 14.0489 11.0938C14.2632 11.3081 14.5539 11.4285 14.857 11.4285C15.1601 11.4285 15.4508 11.3081 15.6652 11.0938C15.8795 10.8795 15.9999 10.5888 15.9999 10.2857V6.85712H33.1428V10.2857C33.1428 10.5888 33.2632 10.8795 33.4775 11.0938C33.6918 11.3081 33.9825 11.4285 34.2856 11.4285C34.5887 11.4285 34.8794 11.3081 35.0937 11.0938C35.3081 10.8795 35.4285 10.5888 35.4285 10.2857V6.85712H39.9999V10.2857C39.9999 10.5888 40.1203 10.8795 40.3346 11.0938C40.549 11.3081 40.8396 11.4285 41.1428 11.4285C41.4459 11.4285 41.7365 11.3081 41.9509 11.0938C42.1652 10.8795 42.2856 10.5888 42.2856 10.2857V6.85712H49.1428C49.4459 6.85712 49.7365 6.97752 49.9509 7.19185C50.1652 7.40618 50.2856 7.69687 50.2856 7.99997Z" fill="#3B89E4"/>
<path d="M9.14282 10.2857V3.42856C9.14282 3.12546 9.26323 2.83477 9.47756 2.62044C9.69188 2.40611 9.98257 2.28571 10.2857 2.28571C10.5888 2.28571 10.8795 2.40611 11.0938 2.62044C11.3081 2.83477 11.4285 3.12546 11.4285 3.42856V10.2857C11.4285 10.5888 11.3081 10.8795 11.0938 11.0938C10.8795 11.3082 10.5888 11.4286 10.2857 11.4286C9.98257 11.4286 9.69188 11.3082 9.47756 11.0938C9.26323 10.8795 9.14282 10.5888 9.14282 10.2857Z" fill="#3B89E4"/>
<path d="M16 10.2857V3.42856C16 3.12546 16.1204 2.83477 16.3347 2.62044C16.5491 2.40611 16.8398 2.28571 17.1429 2.28571C17.446 2.28571 17.7367 2.40611 17.951 2.62044C18.1653 2.83477 18.2857 3.12546 18.2857 3.42856V10.2857C18.2857 10.5888 18.1653 10.8795 17.951 11.0938C17.7367 11.3082 17.446 11.4286 17.1429 11.4286C16.8398 11.4286 16.5491 11.3082 16.3347 11.0938C16.1204 10.8795 16 10.5888 16 10.2857Z" fill="#3B89E4"/>
<path d="M35.4285 10.2857V3.42856C35.4285 3.12546 35.5489 2.83477 35.7632 2.62044C35.9775 2.40611 36.2682 2.28571 36.5713 2.28571C36.8744 2.28571 37.1651 2.40611 37.3794 2.62044C37.5938 2.83477 37.7142 3.12546 37.7142 3.42856V10.2857C37.7142 10.5888 37.5938 10.8795 37.3794 11.0938C37.1651 11.3082 36.8744 11.4286 36.5713 11.4286C36.2682 11.4286 35.9775 11.3082 35.7632 11.0938C35.5489 10.8795 35.4285 10.5888 35.4285 10.2857Z" fill="#3B89E4"/>
<path d="M42.2856 10.2857V3.42856C42.2856 3.12546 42.4061 2.83477 42.6204 2.62044C42.8347 2.40611 43.1254 2.28571 43.4285 2.28571C43.7316 2.28571 44.0223 2.40611 44.2366 2.62044C44.451 2.83477 44.5714 3.12546 44.5714 3.42856V10.2857C44.5714 10.5888 44.451 10.8795 44.2366 11.0938C44.0223 11.3082 43.7316 11.4286 43.4285 11.4286C43.1254 11.4286 42.8347 11.3082 42.6204 11.0938C42.4061 10.8795 42.2856 10.5888 42.2856 10.2857Z" fill="#3B89E4"/>
<path d="M53.6229 36.5714C52.6907 36.4802 51.7499 36.5973 50.8686 36.9143C46.5029 38.3657 45.3829 36.2629 42.4 36.5714C40.9009 36.7045 39.4961 37.3599 38.4308 38.423C37.3655 39.4862 36.7075 40.8897 36.5714 42.3886C36.1943 46.7086 39.1886 46.6743 40.3657 52.1486C40.4457 52.5943 41.1314 55.8857 41.6343 58.3429C41.7033 58.6459 41.8733 58.9164 42.1162 59.1102C42.3591 59.304 42.6607 59.4096 42.9714 59.4096C43.2822 59.4096 43.5837 59.304 43.8267 59.1102C44.0696 58.9164 44.2395 58.6459 44.3086 58.3429L45.3829 53.9086C45.5272 53.3329 45.8598 52.822 46.3278 52.4569C46.7957 52.0918 47.3722 51.8935 47.9657 51.8935C48.5592 51.8935 49.1357 52.0918 49.6037 52.4569C50.0716 52.822 50.4042 53.3329 50.5486 53.9086L51.6229 58.3314C51.6963 58.629 51.8674 58.8934 52.1087 59.0824C52.3501 59.2714 52.6478 59.3741 52.9543 59.3741C53.2608 59.3741 53.5585 59.2714 53.7998 59.0824C54.0412 58.8934 54.2122 58.629 54.2857 58.3314C55.4286 52.9029 55.6114 49.7829 57.9314 46.9714C58.6584 46.0761 59.1299 45.0009 59.2961 43.8596C59.4623 42.7183 59.317 41.5533 58.8756 40.4878C58.4342 39.4223 57.713 38.4958 56.7884 37.8065C55.8638 37.1171 54.77 36.6904 53.6229 36.5714ZM53.3829 40.7657C51.8104 41.8833 49.9291 42.4838 48 42.4838C46.0709 42.4838 44.1896 41.8833 42.6171 40.7657C42.3853 40.5834 42.2329 40.3184 42.1919 40.0262C42.1509 39.7341 42.2244 39.4374 42.3971 39.1983C42.5699 38.9591 42.8284 38.796 43.1186 38.7431C43.4088 38.6902 43.7083 38.7515 43.9543 38.9143C45.1584 39.7135 46.5564 40.1716 48 40.24C49.4403 40.1819 50.8381 39.7357 52.0457 38.9486C52.2917 38.7858 52.5912 38.7244 52.8814 38.7774C53.1716 38.8303 53.4301 38.9934 53.6029 39.2325C53.7756 39.4717 53.8491 39.7684 53.8081 40.0605C53.7671 40.3527 53.6147 40.6176 53.3829 40.8V40.7657Z" fill="#3B89E4"/>
</svg>
