<svg width="64" height="64" viewBox="0 0 64 64" fill="none" xmlns="http://www.w3.org/2000/svg">
<path d="M8.11992 40.9466L9.73325 41.3333C12.6666 42.3333 15.2533 39.5866 13.7333 38.2266C11.6533 36.2 8.82659 33.3333 5.33325 33.1066C5.39992 36.32 6.99992 38.56 8.11992 40.9466Z" fill="#ABCDEB"/>
<path d="M43.3332 18.04L49.9065 15.64C46.1065 4.27998 46.6665 7.42665 46.6665 1.33331H38.6665C38.6665 7.21331 39.9198 9.15998 43.3332 18.04Z" fill="#ABCDEB"/>
<path d="M41.0934 23.1733L44 31.08C44.1264 31.4277 44.3853 31.7111 44.7201 31.8685C45.0549 32.0259 45.4383 32.0444 45.7867 31.92L55 28.56C55.6917 28.3087 56.327 27.9237 56.8699 27.4269C57.4127 26.9301 57.8523 26.3312 58.1637 25.6645C58.4751 24.9978 58.6521 24.2762 58.6847 23.5411C58.7172 22.806 58.6046 22.0716 58.3534 21.38C57.8459 19.9832 56.8044 18.8452 55.4579 18.2163C54.7911 17.9049 54.0696 17.7279 53.3345 17.6954C52.5993 17.6628 51.865 17.7754 51.1734 18.0267L41.9334 21.3333C41.7489 21.3867 41.578 21.4793 41.4326 21.6048C41.2872 21.7303 41.1706 21.8857 41.0909 22.0604C41.0111 22.2352 40.97 22.4251 40.9705 22.6172C40.9709 22.8092 41.0128 22.999 41.0934 23.1733Z" fill="#ABCDEB"/>
<path d="M36.7865 27.7333C36.7865 27.8666 37.0132 27.7333 34.1199 28.76C34.3645 29.631 34.5209 30.5243 34.5865 31.4266L37.6932 30.2933C37.7486 30.4761 37.8408 30.6457 37.9642 30.7915C38.0876 30.9374 38.2395 31.0564 38.4106 31.1414C38.5817 31.2263 38.7684 31.2753 38.9592 31.2854C39.15 31.2955 39.3408 31.2664 39.5199 31.2L40.9865 30.6666L39.0665 25.3333L37.6265 25.8533C37.4367 25.9055 37.2608 25.9991 37.1115 26.1273C36.9621 26.2556 36.843 26.4153 36.7627 26.595C36.6824 26.7747 36.6429 26.97 36.647 27.1668C36.6511 27.3636 36.6988 27.5571 36.7865 27.7333Z" fill="#ABCDEB"/>
<path d="M9.08002 44C9.44002 46.4 9.40002 50.3333 10.08 53.3333C10.1804 53.7017 10.3952 54.0286 10.6936 54.2668C10.9919 54.505 11.3583 54.6422 11.7398 54.6586C12.1212 54.6749 12.498 54.5695 12.8156 54.3576C13.1332 54.1458 13.3752 53.8384 13.5067 53.48C16.9067 42.8933 20.4267 42.8933 23.8267 53.48C23.9581 53.8384 24.2002 54.1458 24.5178 54.3576C24.8354 54.5695 25.2122 54.6749 25.5936 54.6586C25.9751 54.6422 26.3414 54.505 26.6398 54.2668C26.9381 54.0286 27.153 53.7017 27.2534 53.3333C28.04 49.8666 27.8667 45.2 28.44 43.0133C29.0134 40.8266 30.6667 38.6666 31.48 36.08C30.1627 36.1673 28.845 35.9148 27.6534 35.3466C25.16 34.0133 26.6534 32.5733 23.5067 31.6666C22.4284 31.2641 21.5042 30.5323 20.8652 29.575C20.2262 28.6177 19.9048 27.4835 19.9467 26.3333C16.8 26.9333 16.5334 25.3333 11.56 25.3333C10.0831 25.215 8.6193 25.6855 7.48784 26.6421C6.35638 27.5988 5.64903 28.9639 5.52002 30.44C10.04 30.8266 13.3867 34.16 15.6 36.3866C19.2267 40 14.5067 45.5733 9.08002 44Z" fill="#3B89E4"/>
<path d="M24.2266 29.1066C29.8133 30.6666 26.4666 33.92 32 33.3333C32.02 32.9869 32.02 32.6397 32 32.2933C31.8933 26.96 28.96 24.3866 22.7466 25.6266L22.6533 26.1866C22.5845 26.7759 22.6986 27.3721 22.98 27.8945C23.2614 28.4168 23.6966 28.8399 24.2266 29.1066Z" fill="#ABCDEB"/>
<path d="M33.3333 38.6666C32.4469 40.2838 31.6804 41.9639 31.0399 43.6933C30.5733 45.4 30.7066 50.2133 29.8799 53.92C29.6471 54.8588 29.1167 55.6971 28.368 56.3095C27.6193 56.9219 26.6925 57.2755 25.7262 57.3176C24.7598 57.3596 23.8058 57.0877 23.0068 56.5426C22.2078 55.9975 21.6066 55.2084 21.2933 54.2933C20.7462 52.2287 19.8438 50.275 18.6266 48.52C17.4093 50.275 16.507 52.2287 15.9599 54.2933C15.7293 54.9732 15.339 55.588 14.8219 56.0861C14.3047 56.5842 13.6758 56.9511 12.9876 57.1561C12.2995 57.3611 11.5723 57.3983 10.8669 57.2644C10.1615 57.1305 9.49841 56.8295 8.93325 56.3866C5.83992 53.9866 7.21325 46.44 6.03992 43.1466C5.65337 42.1392 5.20817 41.1553 4.70659 40.2C3.25774 41.1366 2.09152 42.4503 1.33325 44V62.6666H62.6666V38.6666H33.3333Z" fill="#ABCDEB"/>
<path d="M28.1867 22.0133C28.3808 22.2802 28.6671 22.4657 28.9901 22.5338C29.3131 22.6018 29.6498 22.5477 29.9352 22.3818C30.2205 22.2158 30.4342 21.95 30.5348 21.6356C30.6355 21.3213 30.616 20.9807 30.48 20.68L26.48 14.0133C26.2859 13.7463 25.9996 13.5609 25.6766 13.4928C25.3536 13.4248 25.0169 13.4789 24.7315 13.6448C24.4462 13.8107 24.2325 14.0766 24.1319 14.391C24.0312 14.7053 24.0507 15.0458 24.1867 15.3466L28.1867 22.0133Z" fill="#3B89E4"/>
<path d="M36 20.2666L37.3333 13.6C37.404 13.2464 37.3314 12.8791 37.1313 12.5791C36.9313 12.279 36.6203 12.0707 36.2666 12C35.913 11.9293 35.5458 12.0019 35.2457 12.2019C34.9457 12.402 34.7374 12.713 34.6666 13.0666L33.3333 19.7333C33.2626 20.0869 33.3352 20.4542 33.5353 20.7542C33.7353 21.0543 34.0463 21.2626 34.4 21.3333C34.7536 21.404 35.1208 21.3314 35.4209 21.1314C35.7209 20.9313 35.9292 20.6203 36 20.2666Z" fill="#3B89E4"/>
</svg>
