<?xml version="1.0" encoding="utf-8"?><svg viewBox="0 0 48 48" xmlns="http://www.w3.org/2000/svg" xmlns:xlink="http://www.w3.org/1999/xlink"><style>:root>svg{display:none}:root>svg:target{display:block}</style><svg fill="none" viewBox="0 0 24 24" id="arrow" xmlns="http://www.w3.org/2000/svg"><path d="m9 18 6-6-6-6" stroke="currentColor" stroke-width="2" stroke-linecap="round" stroke-linejoin="round"/></svg><svg fill="none" viewBox="0 0 20 20" id="arrow-down" xmlns="http://www.w3.org/2000/svg"><path d="m5 7.5 5 5 5-5" stroke="currentColor" stroke-width="1.607" stroke-linecap="round" stroke-linejoin="round"/></svg><svg fill="none" viewBox="0 0 24 24" id="calendar" xmlns="http://www.w3.org/2000/svg"><path d="M21 11.5V8.8c0-1.68 0-2.52-.327-3.162a3 3 0 0 0-1.311-1.311C18.72 4 17.88 4 16.2 4H7.8c-1.68 0-2.52 0-3.162.327a3 3 0 0 0-1.311 1.311C3 6.28 3 7.12 3 8.8v8.4c0 1.68 0 2.52.327 3.162a3 3 0 0 0 1.311 1.311C5.28 22 6.12 22 7.8 22h4.7M21 10H3m13-8v4M8 2v4m10 15v-6m-3 3h6" stroke="currentColor" stroke-width="2" stroke-linecap="round" stroke-linejoin="round"/></svg><svg fill="none" viewBox="0 0 30 30" id="close" xmlns="http://www.w3.org/2000/svg"><path d="M22.143 22.143 7.857 7.857m14.286 0L7.857 22.143" stroke="#373740" stroke-width="2" stroke-linecap="round" stroke-linejoin="round" opacity=".7"/></svg><svg fill="none" viewBox="0 0 28 28" id="mail" xmlns="http://www.w3.org/2000/svg"><path d="m2.334 8.167 9.526 6.668c.771.54 1.157.81 1.576.914.37.093.758.093 1.129 0 .42-.104.805-.374 1.577-.914l9.525-6.668M7.934 23.333h12.133c1.96 0 2.94 0 3.69-.381a3.499 3.499 0 0 0 1.529-1.53c.381-.748.381-1.729.381-3.689v-7.466c0-1.96 0-2.94-.381-3.69a3.5 3.5 0 0 0-1.53-1.529c-.748-.381-1.729-.381-3.689-.381H7.934c-1.96 0-2.94 0-3.689.381a3.5 3.5 0 0 0-1.53 1.53c-.381.748-.381 1.728-.381 3.689v7.466c0 1.96 0 2.94.381 3.69a3.5 3.5 0 0 0 1.53 1.529c.749.381 1.729.381 3.689.381Z" stroke="currentColor" stroke-width="2.25" stroke-linecap="round" stroke-linejoin="round"/></svg><svg fill="none" viewBox="0 0 20 20" id="pin" xmlns="http://www.w3.org/2000/svg"><path d="M10 10.833a2.5 2.5 0 1 0 0-5 2.5 2.5 0 0 0 0 5Z" stroke="#111827" stroke-width="1.5" stroke-linecap="round" stroke-linejoin="round"/><path d="M10 18.333c3.333-3.333 6.666-6.318 6.666-10a6.667 6.667 0 1 0-13.333 0c0 3.682 3.333 6.667 6.667 10Z" stroke="#111827" stroke-width="1.5" stroke-linecap="round" stroke-linejoin="round"/></svg><svg fill="none" viewBox="0 0 24 24" id="tel" xmlns="http://www.w3.org/2000/svg"><path d="M8.38 8.853a14.605 14.605 0 0 0 2.847 4.01 14.605 14.605 0 0 0 4.01 2.846c.124.06.187.09.265.113.28.082.625.023.862-.147.067-.048.124-.105.239-.22.35-.349.524-.524.7-.638a2 2 0 0 1 2.18 0c.176.114.35.29.7.639l.195.195c.532.531.797.797.942 1.082a2 2 0 0 1 0 1.806c-.145.285-.41.55-.942 1.082l-.157.158c-.53.53-.795.794-1.155.997-.4.224-1.02.385-1.478.384-.413-.001-.695-.081-1.26-.241a19.038 19.038 0 0 1-8.283-4.874A19.038 19.038 0 0 1 3.17 7.761c-.16-.564-.24-.846-.241-1.26a3.377 3.377 0 0 1 .384-1.478c.202-.36.467-.624.997-1.154l.157-.158c.532-.531.798-.797 1.083-.941a2 2 0 0 1 1.805 0c.286.144.551.41 1.083.941l.195.195c.35.35.524.525.638.7a2 2 0 0 1 0 2.18c-.114.177-.289.351-.638.701a2.02 2.02 0 0 0-.22.238c-.17.238-.228.582-.147.862.023.08.053.142.113.266Z" stroke="currentColor" stroke-width="2" stroke-linecap="round" stroke-linejoin="round"/></svg><svg fill="none" viewBox="0 0 48 48" id="vk" xmlns="http://www.w3.org/2000/svg"><rect width="48" height="48" rx="12" fill="#6E93CB"/><g clip-path="url(#ha)"><g clip-path="url(#hb)"><path d="M36.892 30.077c0-.11-.109-.11-.109-.22-.433-.875-1.3-1.86-2.6-3.065-.541-.548-.975-.876-1.083-1.095-.325-.328-.325-.766-.217-1.095.109-.328.542-.876 1.192-1.752.325-.438.65-.876.867-1.204 1.516-2.19 2.275-3.504 2.058-4.051l-.108-.11c-.109-.11-.217-.11-.434-.219-.216-.11-.541-.11-.866 0h-4.55l-.109.11c0 .11-.108.11-.108.219-.433 1.095-.867 2.08-1.408 3.066-.325.547-.65 1.095-.867 1.423-.325.438-.542.766-.65.876-.217.219-.325.328-.542.438-.108.11-.216.219-.325.11-.108 0-.108 0-.216-.11l-.325-.329c-.217.22-.217 0-.325-.219v-5.255c0-.11-.109-.329-.109-.438-.108-.11-.108-.22-.325-.329-.108-.109-.325-.109-.433-.218a7.7 7.7 0 0 0-1.842-.22c-1.625.11-2.708.22-3.141.438-.217.11-.434.22-.542.438-.217.22-.217.329-.108.329.541.11.975.328 1.191.547l.109.22c0 .109.108.328.108.547.108.328.108.657.108.985v1.752c0 .438-.108.876-.108 1.095 0 .219-.108.438-.217.657 0 .219-.108.328-.108.328s0 .11-.108.11c-.109 0-.217.11-.325.11-.109 0-.325-.11-.434-.22-.216-.219-.433-.328-.541-.547-.217-.22-.434-.548-.65-.986-.325-.438-.542-.876-.759-1.423l-.216-.438c-.217-.219-.325-.547-.65-1.095a7.647 7.647 0 0 1-.542-1.423c-.108-.11-.217-.329-.325-.438h-.108s-.109-.11-.217-.11-.217-.11-.325-.11h-3.683c-.325 0-.65.11-.759.22l-.108.11v.218c0 .11 0 .22.108.329.542 1.314 1.084 2.518 1.734 3.723.65 1.204 1.191 2.19 1.625 2.846.433.767.975 1.424 1.408 2.08.433.657.758 1.095.975 1.205.108.219.325.328.325.438l.325.328c.217.22.542.438.975.767.433.328.867.657 1.408.876.542.328 1.084.547 1.734.766.65.219 1.3.219 1.95.219h1.516c.325 0 .542-.11.759-.328v-.11s.108-.11.108-.219v-.328c0-.438 0-.767.108-1.095.109-.329.109-.548.217-.657.108-.11.217-.329.325-.438l.217-.22h.108c.217-.109.433 0 .758.22.325.219.542.438.867.766.217.329.542.657.975 1.095.325.438.65.657.975.876l.217.219c.216.11.433.219.758.328.325.11.542.11.758.11H35.7c.325 0 .65-.11.758-.219.217-.11.325-.219.325-.328v-.438c.109-.329.109-.438.109-.438Z" fill="#fff"/></g></g><defs><clipPath id="ha"><path fill="#fff" transform="translate(11 16.5)" d="M0 0h26v15H0z"/></clipPath><clipPath id="hb"><path fill="#fff" transform="translate(11 16.5)" d="M0 0h26v15H0z"/></clipPath></defs></svg></svg>