<?xml version="1.0" encoding="utf-8"?><svg viewBox="0 0 30 30" xmlns="http://www.w3.org/2000/svg" xmlns:xlink="http://www.w3.org/1999/xlink"><style>:root>svg{display:none}:root>svg:target{display:block}</style><svg fill="none" viewBox="0 0 24 24" id="arrow" xmlns="http://www.w3.org/2000/svg"><path d="m9 18 6-6-6-6" stroke="currentColor" stroke-width="2" stroke-linecap="round" stroke-linejoin="round"/></svg><svg fill="none" viewBox="0 0 24 24" id="calendar" xmlns="http://www.w3.org/2000/svg"><path d="M21 11.5V8.8c0-1.68 0-2.52-.327-3.162a3 3 0 0 0-1.311-1.311C18.72 4 17.88 4 16.2 4H7.8c-1.68 0-2.52 0-3.162.327a3 3 0 0 0-1.311 1.311C3 6.28 3 7.12 3 8.8v8.4c0 1.68 0 2.52.327 3.162a3 3 0 0 0 1.311 1.311C5.28 22 6.12 22 7.8 22h4.7M21 10H3m13-8v4M8 2v4m10 15v-6m-3 3h6" stroke="currentColor" stroke-width="2" stroke-linecap="round" stroke-linejoin="round"/></svg><svg fill="none" viewBox="0 0 30 30" id="close" xmlns="http://www.w3.org/2000/svg"><path d="M22.143 22.143 7.857 7.857m14.286 0L7.857 22.143" stroke="#373740" stroke-width="2" stroke-linecap="round" stroke-linejoin="round" opacity=".7"/></svg><svg fill="none" viewBox="0 0 20 20" id="pin" xmlns="http://www.w3.org/2000/svg"><path d="M10 10.833a2.5 2.5 0 1 0 0-5 2.5 2.5 0 0 0 0 5Z" stroke="#111827" stroke-width="1.5" stroke-linecap="round" stroke-linejoin="round"/><path d="M10 18.333c3.333-3.333 6.666-6.318 6.666-10a6.667 6.667 0 1 0-13.333 0c0 3.682 3.333 6.667 6.667 10Z" stroke="#111827" stroke-width="1.5" stroke-linecap="round" stroke-linejoin="round"/></svg><svg fill="none" viewBox="0 0 24 24" id="tel" xmlns="http://www.w3.org/2000/svg"><path d="M8.38 8.853a14.605 14.605 0 0 0 2.847 4.01 14.605 14.605 0 0 0 4.01 2.846c.124.06.187.09.265.113.28.082.625.023.862-.147.067-.048.124-.105.239-.22.35-.349.524-.524.7-.638a2 2 0 0 1 2.18 0c.176.114.35.29.7.639l.195.195c.532.531.797.797.942 1.082a2 2 0 0 1 0 1.806c-.145.285-.41.55-.942 1.082l-.157.158c-.53.53-.795.794-1.155.997-.4.224-1.02.385-1.478.384-.413-.001-.695-.081-1.26-.241a19.038 19.038 0 0 1-8.283-4.874A19.038 19.038 0 0 1 3.17 7.761c-.16-.564-.24-.846-.241-1.26a3.377 3.377 0 0 1 .384-1.478c.202-.36.467-.624.997-1.154l.157-.158c.532-.531.798-.797 1.083-.941a2 2 0 0 1 1.805 0c.286.144.551.41 1.083.941l.195.195c.35.35.524.525.638.7a2 2 0 0 1 0 2.18c-.114.177-.289.351-.638.701a2.02 2.02 0 0 0-.22.238c-.17.238-.228.582-.147.862.023.08.053.142.113.266Z" stroke="currentColor" stroke-width="2" stroke-linecap="round" stroke-linejoin="round"/></svg></svg>