<svg width="44" height="44" viewBox="0 0 44 44" fill="none" xmlns="http://www.w3.org/2000/svg">
<g clip-path="url(#clip0_403_6890)">
<path d="M32.9962 0.00761219C30.5605 0.00831047 28.1398 0.388643 25.8212 1.13492C24.5904 1.56183 23.3021 1.79977 22 1.84063C20.6979 1.79977 19.4096 1.56183 18.1788 1.13492C15.8602 0.388876 13.4395 0.00854919 11.0038 0.00761219C9.54492 -0.0477041 8.09033 0.198931 6.73119 0.732065C5.37204 1.2652 4.13763 2.07334 3.1053 3.10585C2.07297 4.13836 1.26497 5.37299 0.731936 6.73237C0.198896 8.09176 -0.0476957 9.5466 0.00761085 11.0057C0.00761085 22.8159 6.15632 34.4428 10.5786 41.9563C11.0445 42.7423 11.7555 43.3535 12.6025 43.696C13.4494 44.0385 14.3854 44.0932 15.2665 43.8519C16.1476 43.6105 16.9251 43.0864 17.4794 42.3601C18.0337 41.6338 18.3342 40.7456 18.3346 39.8318V27.6991C18.3148 26.8067 18.6095 25.9357 19.167 25.2387C19.7245 24.5417 20.5094 24.063 21.3842 23.8864C21.9103 23.7967 22.4496 23.823 22.9645 23.9635C23.4794 24.1039 23.9574 24.3552 24.3651 24.6996C24.7728 25.044 25.1004 25.4733 25.325 25.9575C25.5496 26.4417 25.6658 26.9692 25.6654 27.5029V39.8318C25.6658 40.7456 25.9663 41.6338 26.5206 42.3601C27.0749 43.0864 27.8524 43.6105 28.7335 43.8519C29.6146 44.0932 30.5506 44.0385 31.3975 43.696C32.2445 43.3535 32.9555 42.7423 33.4214 41.9563C37.8455 34.4409 43.9924 22.8141 43.9924 11.0057C44.0477 9.5466 43.8011 8.09176 43.2681 6.73237C42.735 5.37299 41.927 4.13836 40.8947 3.10585C39.8624 2.07334 38.628 1.2652 37.2688 0.732065C35.9097 0.198931 34.4551 -0.0477041 32.9962 0.00761219Z" fill="#3B89E4"/>
</g>
<defs>
<clipPath id="clip0_403_6890">
<rect width="44" height="44" fill="white"/>
</clipPath>
</defs>
</svg>
