<svg width="44" height="44" viewBox="0 0 44 44" fill="none" xmlns="http://www.w3.org/2000/svg">
<g clip-path="url(#clip0_403_6898)">
<g clip-path="url(#clip1_403_6898)">
<path d="M25.7748 29.3332H27.5C39.6788 29.3332 44 22.9129 44 17.4165C44 14.2467 41.6845 11.625 38.6595 11.108C39.3983 9.50571 39.9428 7.96571 40.2252 6.58521C40.5552 4.97921 40.1445 3.32555 39.1013 2.04588C38.0398 0.744214 36.4668 -0.00195312 34.7893 -0.00195312H9.20883C7.53133 -0.00195312 5.96017 0.744214 4.89683 2.04588C3.85367 3.32371 3.443 4.97921 3.773 6.58521C4.05717 7.96388 4.598 9.50571 5.33683 11.108C2.31367 11.625 0 14.2467 0 17.4147C0 22.911 4.32117 29.3314 16.5 29.3314H18.2105C18.2637 29.7182 18.3333 30.1014 18.3333 30.4992V36.6647C18.3333 40.0124 15.5173 40.3167 14.6667 40.3314H9.16667V43.998H34.8333V40.3314H29.3333C28.468 40.3167 25.652 40.0124 25.652 36.6647V30.4992C25.652 30.1014 25.7198 29.72 25.7748 29.3332ZM36.7272 14.6665H37.5833C39.0995 14.6665 40.3333 15.9004 40.3333 17.4165C40.3333 21.4059 36.6813 25.6665 27.2195 25.6665C27.5568 25.2192 27.9418 24.8177 28.3745 24.473C31.5242 21.9559 34.5015 18.3295 36.7272 14.6665ZM3.66667 17.4165C3.66667 15.9004 4.9005 14.6665 6.41667 14.6665H7.26733C9.48933 18.3277 12.4612 21.954 15.6108 24.473C16.0417 24.8177 16.4285 25.221 16.7658 25.6665C7.304 25.6665 3.66667 21.4059 3.66667 17.4165ZM22.9607 7.33321L24.156 11.009H28.0225L28.5725 12.692L25.4448 14.9654L26.6402 18.643L25.2083 19.6825L22.0825 17.4165L18.9475 19.6844L17.5157 18.6449L18.711 14.9672L15.5833 12.6939L16.1333 11.0109H19.9962L21.1915 7.34421L22.9607 7.33321Z" fill="#3B89E4"/>
</g>
</g>
<defs>
<clipPath id="clip0_403_6898">
<rect width="44" height="44" fill="white"/>
</clipPath>
<clipPath id="clip1_403_6898">
<rect width="44" height="44" fill="white"/>
</clipPath>
</defs>
</svg>
