<svg width="48" height="48" viewBox="0 0 48 48" fill="none" xmlns="http://www.w3.org/2000/svg">
<path d="M31.05 42.045C31.91 37.94 31.62 39.415 31.865 37.785L25.525 44.13C25.9808 44.5304 26.537 44.7992 27.1339 44.9078C27.7308 45.0164 28.3459 44.9606 28.9136 44.7464C29.4812 44.5322 29.9799 44.1676 30.3562 43.6918C30.7325 43.2159 30.9724 42.6467 31.05 42.045Z" fill="#3B89E4"/>
<path d="M25.38 33.325C25.4355 33.3635 25.4826 33.4128 25.5185 33.47C25.5544 33.5272 25.5784 33.591 25.5889 33.6577C25.5995 33.7244 25.5964 33.7925 25.5799 33.858C25.5635 33.9235 25.5339 33.9849 25.493 34.0387C25.4521 34.0924 25.4007 34.1373 25.342 34.1706C25.2833 34.204 25.2185 34.2251 25.1514 34.2327C25.0843 34.2403 25.0164 34.2342 24.9517 34.2149C24.887 34.1955 24.8269 34.1632 24.775 34.12C24.1548 33.6573 23.4573 33.3086 22.715 33.09C23.3035 33.631 23.6616 34.3774 23.715 35.175L24.005 38.175L33.75 28.45C33.9946 28.2053 34.132 27.8735 34.132 27.5275C34.132 27.1815 33.9946 26.8497 33.75 26.605L29.15 22C28.6859 21.5276 28.4166 20.8977 28.3959 20.2357C28.3752 19.5738 28.6045 18.9283 29.0382 18.4278C29.4719 17.9272 30.0782 17.6084 30.7364 17.5347C31.3946 17.461 32.0564 17.6378 32.59 18.03L37.24 13.38C36.3533 12.0443 35.1767 10.9259 33.7978 10.1079C32.4189 9.28989 30.8733 8.79346 29.276 8.65554C27.6787 8.51763 26.0709 8.74178 24.5722 9.31131C23.0735 9.88084 21.7226 10.7811 20.62 11.945C18.866 13.7763 16.5463 14.9634 14.035 15.315H13.97C13.8374 15.3243 13.7066 15.2805 13.6062 15.1933C13.5059 15.1061 13.4443 14.9826 13.435 14.85C13.4257 14.7174 13.4695 14.5865 13.5567 14.4862C13.6439 14.3859 13.7674 14.3243 13.9 14.315C16.1907 14.003 18.3069 12.9203 19.9 11.245C13.665 5.82501 3.85502 9.24501 2.44502 17.335C1.94006 20.0828 2.53244 22.9191 4.09502 25.235C6.55002 28.84 8.96502 32.835 9.53002 37.17L10.435 42.17C10.5364 42.9614 10.928 43.687 11.5339 44.2061C12.1398 44.7252 12.9168 45.0009 13.7144 44.9797C14.5119 44.9585 15.2732 44.642 15.8507 44.0915C16.4282 43.541 16.7808 42.7957 16.84 42L17.5 35.175C17.5602 34.3864 17.9176 33.6501 18.5 33.115H18.525C17.0895 33.5123 15.8572 34.4375 15.075 35.705C15.0058 35.8138 14.8973 35.8917 14.772 35.9224C14.6468 35.9531 14.5145 35.9342 14.4028 35.8697C14.2912 35.8051 14.2088 35.6999 14.1729 35.5761C14.1369 35.4522 14.1502 35.3193 14.21 35.205C16.315 31.5 21.9 30.68 25.38 33.325ZM26.35 11.41C27.7075 10.9594 29.1675 10.9173 30.5487 11.2888C31.93 11.6604 33.1717 12.4292 34.12 13.5C34.1832 13.5719 34.2244 13.6604 34.2387 13.7549C34.2531 13.8495 34.24 13.9462 34.2011 14.0336C34.1621 14.121 34.0989 14.1954 34.019 14.2479C33.939 14.3004 33.8457 14.3289 33.75 14.33C33.6794 14.3305 33.6095 14.3161 33.5448 14.2877C33.4802 14.2592 33.4223 14.2174 33.375 14.165C32.5541 13.2434 31.4806 12.583 30.2879 12.2656C29.0951 11.9483 27.8354 11.9881 26.665 12.38C26.6026 12.4007 26.5368 12.4089 26.4713 12.4041C26.4057 12.3994 26.3418 12.3817 26.283 12.3523C26.2243 12.3228 26.1719 12.282 26.129 12.2323C26.086 12.1826 26.0532 12.1249 26.0325 12.0625C26.0118 12.0001 26.0036 11.9343 26.0084 11.8687C26.0132 11.8032 26.0308 11.7392 26.0603 11.6805C26.0898 11.6218 26.1305 11.5694 26.1802 11.5264C26.23 11.4835 26.2876 11.4507 26.35 11.43V11.41ZM6.55502 23.91C6.49728 23.9417 6.43384 23.9616 6.36836 23.9687C6.30288 23.9758 6.23665 23.9699 6.17346 23.9513C6.11027 23.9327 6.05138 23.9019 6.00017 23.8604C5.94895 23.819 5.90642 23.7679 5.87502 23.71C5.1754 22.4084 4.7939 20.9596 4.76174 19.4822C4.72959 18.0048 5.04769 16.5408 5.69002 15.21C5.71575 15.1463 5.75435 15.0885 5.8034 15.0403C5.85246 14.9922 5.91093 14.9546 5.97514 14.9301C6.03936 14.9055 6.10795 14.8945 6.17663 14.8976C6.2453 14.9008 6.31259 14.9181 6.37429 14.9484C6.43599 14.9787 6.49076 15.0215 6.5352 15.0739C6.57964 15.1264 6.61278 15.1874 6.63256 15.2533C6.65234 15.3191 6.65832 15.3883 6.65014 15.4566C6.64196 15.5249 6.6198 15.5907 6.58502 15.65C6.00716 16.8382 5.72113 18.1471 5.7507 19.4681C5.78026 20.789 6.12457 22.0839 6.75502 23.245C6.80689 23.3575 6.81515 23.4853 6.7782 23.6035C6.74125 23.7217 6.66172 23.8221 6.55502 23.885V23.91ZM18.46 28.91C20.0319 28.4767 21.6956 28.508 23.25 29C23.375 29.0422 23.4783 29.1321 23.5373 29.2501C23.5963 29.3681 23.6063 29.5047 23.565 29.63C23.5442 29.6925 23.5111 29.7502 23.4679 29.7999C23.4246 29.8496 23.372 29.8902 23.313 29.9195C23.254 29.9487 23.1898 29.9661 23.1241 29.9705C23.0583 29.9748 22.9924 29.9662 22.93 29.945C21.568 29.499 20.1061 29.4556 18.72 29.82C18.6559 29.8397 18.5884 29.8462 18.5217 29.8393C18.4549 29.8323 18.3903 29.812 18.3315 29.7795C18.2728 29.7471 18.2212 29.7031 18.1798 29.6503C18.1385 29.5975 18.1081 29.5368 18.0907 29.472C18.0732 29.4073 18.069 29.3396 18.0782 29.2731C18.0875 29.2067 18.11 29.1428 18.1445 29.0852C18.1789 29.0276 18.2246 28.9775 18.2788 28.938C18.333 28.8985 18.3947 28.8702 18.46 28.855V28.91ZM12.715 26.91C12.26 25.31 11.975 25.025 10.375 24.57C10.1461 24.5026 9.94522 24.3629 9.8023 24.1719C9.65938 23.9808 9.58215 23.7486 9.58215 23.51C9.58215 23.2714 9.65938 23.0392 9.8023 22.8482C9.94522 22.6571 10.1461 22.5174 10.375 22.45C11.975 21.995 12.26 21.71 12.715 20.11C12.7824 19.8811 12.9221 19.6802 13.1132 19.5373C13.3042 19.3944 13.5364 19.3171 13.775 19.3171C14.0136 19.3171 14.2458 19.3944 14.4369 19.5373C14.628 19.6802 14.7676 19.8811 14.835 20.11C15.29 21.71 15.575 21.995 17.175 22.45C17.4039 22.5174 17.6048 22.6571 17.7477 22.8482C17.8907 23.0392 17.9679 23.2714 17.9679 23.51C17.9679 23.7486 17.8907 23.9808 17.7477 24.1719C17.6048 24.3629 17.4039 24.5026 17.175 24.57C15.575 25.025 15.29 25.31 14.835 26.91C14.7609 27.1371 14.6152 27.3341 14.4197 27.4714C14.2242 27.6088 13.9895 27.679 13.7507 27.6717C13.5119 27.6644 13.2819 27.5799 13.0952 27.4308C12.9085 27.2818 12.7751 27.0762 12.715 26.845V26.91Z" fill="#3B89E4"/>
<path d="M37.5 22.88C37.6955 23.0774 37.95 23.2055 38.225 23.245C39.1089 21.0316 39.2355 18.5879 38.585 16.295L34.755 20.135L37.5 22.88Z" fill="#3B89E4"/>
<path d="M16.9 23.545C16.9212 23.5382 16.9397 23.5249 16.9528 23.5069C16.966 23.4889 16.973 23.4673 16.973 23.445C16.973 23.4228 16.966 23.4011 16.9528 23.3831C16.9397 23.3651 16.9212 23.3518 16.9 23.345C14.965 22.795 14.425 22.255 13.9 20.345C13.8933 20.3238 13.8799 20.3053 13.8619 20.2922C13.844 20.2791 13.8223 20.272 13.8 20.272C13.7778 20.272 13.7561 20.2791 13.7381 20.2922C13.7202 20.3053 13.7068 20.3238 13.7 20.345C13.15 22.28 12.61 22.845 10.675 23.345C10.6538 23.3518 10.6354 23.3651 10.6222 23.3831C10.6091 23.4011 10.6021 23.4228 10.6021 23.445C10.6021 23.4673 10.6091 23.4889 10.6222 23.5069C10.6354 23.5249 10.6538 23.5382 10.675 23.545C12.61 24.095 13.15 24.635 13.7 26.545C13.7068 26.5662 13.7202 26.5847 13.7381 26.5978C13.7561 26.6109 13.7778 26.618 13.8 26.618C13.8223 26.618 13.844 26.6109 13.8619 26.5978C13.8799 26.5847 13.8933 26.5662 13.9 26.545C14.425 24.635 14.965 24.095 16.9 23.545Z" fill="#3B89E4"/>
<path d="M46 15.395L40.885 10.265C40.5744 9.98059 40.166 9.82701 39.7449 9.83627C39.3238 9.84554 38.9226 10.0169 38.6248 10.3148C38.3269 10.6126 38.1555 11.0138 38.1463 11.4349C38.137 11.856 38.2906 12.2644 38.575 12.575L43.18 17.175C43.6127 17.6081 43.8557 18.1953 43.8557 18.8075C43.8557 19.4197 43.6127 20.0069 43.18 20.44L40.03 23.585C39.816 23.7991 39.5619 23.9689 39.2822 24.0848C39.0025 24.2006 38.7027 24.2603 38.4 24.2603C38.0973 24.2603 37.7975 24.2006 37.5179 24.0848C37.2382 23.9689 36.9841 23.7991 36.77 23.585L32.165 19C31.937 18.7711 31.6462 18.615 31.3293 18.5518C31.0125 18.4885 30.684 18.5207 30.3856 18.6445C30.0871 18.7683 29.8322 18.978 29.6532 19.2469C29.4741 19.5158 29.3791 19.8319 29.38 20.155C29.3875 20.591 29.5673 21.0062 29.88 21.31L34.485 25.91C34.6991 26.1241 34.8689 26.3782 34.9848 26.6578C35.1006 26.9375 35.1602 27.2373 35.1602 27.54C35.1602 27.8427 35.1006 28.1425 34.9848 28.4222C34.8689 28.7019 34.6991 28.956 34.485 29.17L30.625 33L32.94 35.31L46 22.22C46.4483 21.7719 46.8039 21.2399 47.0465 20.6544C47.2891 20.0689 47.4139 19.4413 47.4139 18.8075C47.4139 18.1737 47.2891 17.5461 47.0465 16.9606C46.8039 16.3751 46.4483 15.8431 46 15.395Z" fill="#ABCDEB"/>
<path d="M22.94 40.675C21.9207 41.697 21.3137 43.0587 21.235 44.5C21.2077 44.7152 21.2512 44.9334 21.3588 45.1217C21.4664 45.31 21.6324 45.4582 21.8316 45.5439C22.0308 45.6297 22.2525 45.6484 22.4632 45.5972C22.674 45.546 22.8623 45.4276 23 45.26L25.605 42.655L24.425 41.5C24.3318 41.4063 24.2796 41.2796 24.2796 41.1475C24.2796 41.0154 24.3318 40.8887 24.425 40.795C24.4714 40.7481 24.5267 40.7109 24.5877 40.6856C24.6486 40.6602 24.7139 40.6471 24.78 40.6471C24.846 40.6471 24.9113 40.6602 24.9722 40.6856C25.0332 40.7109 25.0885 40.7481 25.135 40.795L26.29 41.95L27.5 40.765L26.345 39.61C26.2518 39.5163 26.1996 39.3896 26.1996 39.2575C26.1996 39.1254 26.2518 38.9987 26.345 38.905C26.3914 38.8581 26.4467 38.8209 26.5077 38.7956C26.5686 38.7702 26.6339 38.7571 26.7 38.7571C26.766 38.7571 26.8313 38.7702 26.8922 38.7956C26.9532 38.8209 27.0085 38.8581 27.055 38.905L28.21 40.06L29.395 38.875L28.235 37.72C28.1767 37.6786 28.1279 37.6251 28.0921 37.5633C28.0562 37.5014 28.034 37.4326 28.027 37.3614C28.02 37.2902 28.0283 37.2184 28.0515 37.1507C28.0746 37.083 28.112 37.0211 28.1611 36.9691C28.2102 36.9171 28.2699 36.8763 28.3361 36.8493C28.4023 36.8224 28.4736 36.8099 28.5451 36.8128C28.6165 36.8158 28.6865 36.834 28.7503 36.8663C28.8141 36.8986 28.8703 36.9442 28.915 37L30.07 38.16L32.23 36L29.92 33.685L22.94 40.675Z" fill="#ABCDEB"/>
<path d="M42.105 36.635C41.6267 36.442 41.1932 36.153 40.8311 35.7858C40.469 35.4185 40.1861 34.9809 40 34.5C39.991 34.4833 39.9776 34.4693 39.9613 34.4596C39.9451 34.4498 39.9264 34.4447 39.9075 34.4447C39.8885 34.4447 39.8699 34.4498 39.8536 34.4596C39.8373 34.4693 39.8239 34.4833 39.815 34.5C39.6251 34.9794 39.3391 35.4149 38.9744 35.7795C38.6098 36.1441 38.1744 36.4302 37.695 36.62C37.6782 36.629 37.6643 36.6423 37.6545 36.6586C37.6448 36.6749 37.6396 36.6935 37.6396 36.7125C37.6396 36.7315 37.6448 36.7501 37.6545 36.7664C37.6643 36.7827 37.6782 36.796 37.695 36.805C38.1741 36.994 38.6093 37.2792 38.974 37.643C39.3386 38.0067 39.6248 38.4414 39.815 38.92C39.8225 38.9384 39.8353 38.954 39.8518 38.9651C39.8683 38.9761 39.8876 38.982 39.9075 38.982C39.9273 38.982 39.9467 38.9761 39.9631 38.9651C39.9796 38.954 39.9924 38.9384 40 38.92C40.189 38.4415 40.4743 38.007 40.8381 37.6432C41.2019 37.2794 41.6365 36.9941 42.115 36.805C42.1289 36.7952 42.1402 36.782 42.1476 36.7666C42.1551 36.7513 42.1584 36.7343 42.1574 36.7172C42.1564 36.7002 42.1511 36.6837 42.1419 36.6693C42.1327 36.6549 42.12 36.6431 42.105 36.635Z" fill="#3B89E4"/>
<path d="M19.57 4.80499C20.0495 4.99324 20.4852 5.27816 20.8499 5.64201C21.2146 6.00587 21.5006 6.44088 21.69 6.91999C21.6975 6.93833 21.7103 6.95402 21.7268 6.96506C21.7433 6.9761 21.7626 6.98199 21.7825 6.98199C21.8023 6.98199 21.8217 6.9761 21.8381 6.96506C21.8546 6.95402 21.8674 6.93833 21.875 6.91999C22.0644 6.4401 22.3509 6.00451 22.7166 5.64056C23.0823 5.27661 23.5192 4.99214 24 4.80499C24.0183 4.79746 24.034 4.78464 24.045 4.76817C24.0561 4.7517 24.062 4.73232 24.062 4.71249C24.062 4.69266 24.0561 4.67328 24.045 4.65681C24.034 4.64034 24.0183 4.62753 24 4.61999C23.5195 4.43098 23.0829 4.14528 22.7174 3.7806C22.3518 3.41592 22.0651 2.98005 21.875 2.49999C21.8674 2.48165 21.8546 2.46596 21.8381 2.45492C21.8217 2.44388 21.8023 2.43799 21.7825 2.43799C21.7626 2.43799 21.7433 2.44388 21.7268 2.45492C21.7103 2.46596 21.6975 2.48165 21.69 2.49999C21.5001 2.97942 21.2141 3.41486 20.8495 3.77948C20.4848 4.1441 20.0494 4.43015 19.57 4.61999C19.5532 4.62897 19.5393 4.64232 19.5295 4.6586C19.5198 4.67489 19.5146 4.69351 19.5146 4.71249C19.5146 4.73147 19.5198 4.75009 19.5295 4.76638C19.5393 4.78267 19.5532 4.79601 19.57 4.80499Z" fill="#3B89E4"/>
<path d="M5.05 38.235C4.57134 38.0448 4.13673 37.7586 3.77297 37.394C3.40921 37.0294 3.12402 36.5941 2.935 36.115C2.92746 36.0966 2.91465 36.081 2.89818 36.0699C2.88171 36.0589 2.86232 36.053 2.8425 36.053C2.82267 36.053 2.80329 36.0589 2.78682 36.0699C2.77035 36.081 2.75753 36.0966 2.75 36.115C2.56015 36.5944 2.2741 37.0299 1.90949 37.3945C1.54487 37.7591 1.10942 38.0451 0.629996 38.235C0.611655 38.2425 0.595968 38.2553 0.584928 38.2718C0.573888 38.2883 0.567993 38.3077 0.567993 38.3275C0.567993 38.3473 0.573888 38.3667 0.584928 38.3832C0.595968 38.3996 0.611655 38.4124 0.629996 38.42C1.10955 38.6082 1.54524 38.8931 1.90996 39.257C2.27467 39.6209 2.56062 40.0559 2.75 40.535C2.75753 40.5533 2.77035 40.569 2.78682 40.58C2.80329 40.5911 2.82267 40.597 2.8425 40.597C2.86232 40.597 2.88171 40.5911 2.89818 40.58C2.91465 40.569 2.92746 40.5533 2.935 40.535C3.1233 40.056 3.40829 39.6211 3.77218 39.2572C4.13607 38.8933 4.57106 38.6083 5.05 38.42C5.06834 38.4124 5.08402 38.3996 5.09507 38.3832C5.10611 38.3667 5.112 38.3473 5.112 38.3275C5.112 38.3077 5.10611 38.2883 5.09507 38.2718C5.08402 38.2553 5.06834 38.2425 5.05 38.235Z" fill="#3B89E4"/>
<path d="M33.313 18.722L38.3079 13.7271L39.0149 14.4341L34.02 19.429L33.313 18.722Z" fill="#ABCDEB"/>
</svg>
