<svg width="48" height="48" viewBox="0 0 48 48" fill="none" xmlns="http://www.w3.org/2000/svg">
<path d="M21.91 8.05002C19.8958 8.71099 17.717 8.66868 15.73 7.93002C13.6913 7.24949 11.5483 6.93465 9.4 7.00002C1 7.00002 1 15 1 17.33C1 23.07 4.6 26.52 5.8 31.11C6.58 34.11 6.35 40.45 7.4 45.18C7.53151 45.6825 7.82059 46.1297 8.22484 46.4559C8.62909 46.7821 9.12722 46.9702 9.64618 46.9925C10.1651 47.0149 10.6776 46.8704 11.1084 46.5802C11.5393 46.29 11.8657 45.8694 12.04 45.38C16.62 31 21.37 31 26 45.38C26.1743 45.8694 26.5008 46.29 26.9316 46.5802C27.3624 46.8704 27.8749 47.0149 28.3938 46.9925C28.9128 46.9702 29.4109 46.7821 29.8152 46.4559C30.2194 46.1297 30.5085 45.6825 30.64 45.18C31.64 40.45 31.46 34.09 32.24 31.11C32.6443 29.6859 33.1973 28.3083 33.89 27C31.7206 26.8291 29.6209 26.1549 27.7575 25.0308C25.8942 23.9067 24.3186 22.3637 23.1557 20.5243C21.9929 18.6849 21.2748 16.5998 21.0586 14.4344C20.8423 12.269 21.1339 10.083 21.91 8.05002Z" fill="#3B89E4"/>
<path d="M35 1C32.6266 1 30.3066 1.70379 28.3332 3.02236C26.3598 4.34094 24.8217 6.21509 23.9135 8.4078C23.0052 10.6005 22.7676 13.0133 23.2306 15.3411C23.6936 17.6689 24.8365 19.8071 26.5147 21.4853C28.193 23.1635 30.3312 24.3064 32.6589 24.7694C34.9867 25.2324 37.3995 24.9948 39.5922 24.0866C41.7849 23.1783 43.6591 21.6402 44.9776 19.6668C46.2962 17.6935 47 15.3734 47 13C47 9.8174 45.7357 6.76516 43.4853 4.51472C41.2349 2.26428 38.1826 1 35 1ZM43 15C43 15.2652 42.8946 15.5196 42.7071 15.7071C42.5196 15.8946 42.2652 16 42 16H38V20C38 20.2652 37.8947 20.5196 37.7071 20.7071C37.5196 20.8946 37.2652 21 37 21H33C32.7348 21 32.4804 20.8946 32.2929 20.7071C32.1054 20.5196 32 20.2652 32 20V16H28C27.7348 16 27.4804 15.8946 27.2929 15.7071C27.1054 15.5196 27 15.2652 27 15V11C27 10.7348 27.1054 10.4804 27.2929 10.2929C27.4804 10.1054 27.7348 10 28 10H32V6C32 5.73478 32.1054 5.48043 32.2929 5.29289C32.4804 5.10536 32.7348 5 33 5H37C37.2652 5 37.5196 5.10536 37.7071 5.29289C37.8947 5.48043 38 5.73478 38 6V10H42C42.2652 10 42.5196 10.1054 42.7071 10.2929C42.8946 10.4804 43 10.7348 43 11V15Z" fill="#ABCDEB"/>
<path d="M36 11V7H34V11C34 11.2652 33.8946 11.5196 33.7071 11.7071C33.5196 11.8946 33.2652 12 33 12H29V14H33C33.2652 14 33.5196 14.1054 33.7071 14.2929C33.8946 14.4804 34 14.7348 34 15V19H36V15C36 14.7348 36.1054 14.4804 36.2929 14.2929C36.4804 14.1054 36.7348 14 37 14H41V12H37C36.7348 12 36.4804 11.8946 36.2929 11.7071C36.1054 11.5196 36 11.2652 36 11Z" fill="#3B89E4"/>
</svg>
