<svg width="48" height="48" viewBox="0 0 48 48" fill="none" xmlns="http://www.w3.org/2000/svg">
<g clip-path="url(#clip0_78_122)">
<path d="M7.56 40C7.63526 40.2763 7.79641 40.5215 8.02018 40.7002C8.24394 40.8789 8.51873 40.9818 8.80481 40.994C9.0909 41.0062 9.37346 40.9272 9.61168 40.7683C9.84989 40.6094 10.0314 40.3789 10.13 40.11C12.56 32.5 15.23 31.86 17.87 40.11C17.9686 40.3789 18.1501 40.6094 18.3883 40.7683C18.6265 40.9272 18.9091 41.0062 19.1952 40.994C19.4813 40.9818 19.7561 40.8789 19.9798 40.7002C20.2036 40.5215 20.3647 40.2763 20.44 40C21.03 37.4 20.9 33.9 21.33 32.26C22 29.73 24 27.84 24 24.68C24 23.42 24 19 19.33 19C18.136 18.9658 16.9452 19.1384 15.81 19.51C13.16 20.51 12.31 19 8.67 19C4 19 4 23.42 4 24.68C4 27.84 6 29.73 6.67 32.26C7.1 33.9 7 37.4 7.56 40Z" fill="#3B89E4"/>
<path d="M27.4 33C27.2616 33.2177 27.0445 33.3734 26.794 33.4348C26.5435 33.4962 26.2789 33.4584 26.0556 33.3293C25.8323 33.2002 25.6675 32.9899 25.5957 32.7421C25.5238 32.4944 25.5504 32.2285 25.67 32L27.37 29H25C23.48 32.36 23.23 31.51 23 35.65C22.932 37.2583 22.7448 38.8594 22.44 40.44C22.2654 41.1441 21.8676 41.7728 21.3061 42.2321C20.7446 42.6915 20.0495 42.9567 19.3247 42.9882C18.5999 43.0197 17.8844 42.8158 17.2852 42.407C16.6859 41.9981 16.235 41.4063 16 40.72C15.5897 39.1715 14.9129 37.7063 14 36.39C13.0871 37.7063 12.4103 39.1715 12 40.72C11.765 41.4063 11.3141 41.9981 10.7148 42.407C10.1156 42.8158 9.40006 43.0197 8.6753 42.9882C7.95053 42.9567 7.25543 42.6915 6.69391 42.2321C6.13238 41.7728 5.73459 41.1441 5.56 40.44C5 37.83 5.06 34 4.73 32.77C4.43103 31.862 4.04594 30.9847 3.58 30.15C2.47495 30.8455 1.58241 31.8314 1 33V47H47V29H29.68L27.4 33Z" fill="#ABCDEB"/>
<path d="M30.8 21.05L34.27 23.05C34.7289 23.3148 35.2742 23.3866 35.786 23.2497C36.2978 23.1128 36.7345 22.7785 37 22.32L41 15.39L34.07 11.39L33.57 12.26L35.3 13.26C35.4877 13.3714 35.6338 13.5411 35.7161 13.7432C35.7983 13.9454 35.8122 14.1689 35.7555 14.3797C35.6989 14.5904 35.5748 14.7769 35.4023 14.9106C35.2298 15.0442 35.0182 15.1178 34.8 15.12C34.44 15.12 34.46 15.12 32.57 13.99L31.57 15.72L34.17 17.22C34.3627 17.3292 34.5136 17.4992 34.5992 17.7034C34.6848 17.9076 34.7003 18.1344 34.6431 18.3483C34.5859 18.5623 34.4593 18.7511 34.2832 18.8854C34.1071 19.0196 33.8914 19.0916 33.67 19.09C33.3 19.09 33.4 19.09 30.57 17.46L30.07 18.32C29.8053 18.7789 29.7335 19.3242 29.8703 19.836C30.0072 20.3478 30.3415 20.7845 30.8 21.05Z" fill="#3B89E4"/>
<path d="M35.07 9.66L42 13.66C42.4571 13.8991 42.9889 13.9524 43.4843 13.8086C43.9797 13.6649 44.4004 13.3353 44.6586 12.8887C44.9167 12.4421 44.9923 11.913 44.8696 11.412C44.7469 10.911 44.4353 10.4767 44 10.2L37.07 6.2C36.6129 5.9609 36.0811 5.90764 35.5857 6.05137C35.0903 6.19509 34.6696 6.52468 34.4114 6.97128C34.1533 7.41788 34.0777 7.94696 34.2004 8.44799C34.3231 8.94903 34.6347 9.38326 35.07 9.66Z" fill="#3B89E4"/>
<path d="M47.5 4.13003L40.57 0.130029C40.3392 -0.00257966 40.0653 -0.0380962 39.8083 0.0312923C39.5514 0.100681 39.3326 0.26929 39.2 0.500029C39.0674 0.730767 39.0319 1.00473 39.1012 1.26166C39.1706 1.51858 39.3392 1.73742 39.57 1.87003L41.3 2.87003L39.8 5.47003L43.27 7.47003L44.77 4.88003L46.5 5.88003C46.732 6.01264 47.0073 6.04763 47.2651 5.9773C47.523 5.90698 47.7424 5.73709 47.875 5.50503C48.0076 5.27296 48.0426 4.99773 47.9722 4.73986C47.9019 4.482 47.732 4.26264 47.5 4.13003Z" fill="#3B89E4"/>
<path d="M28.53 27H30.83C31.49 25.87 31.41 26 31.48 25.78C31.8409 25.7904 32.1978 25.7029 32.5129 25.5269C32.8281 25.3508 33.0897 25.0927 33.27 24.78L29.8 22.78C29.6245 23.0841 29.5321 23.429 29.5321 23.78C29.5321 24.1311 29.6245 24.476 29.8 24.78C29.65 25 29.86 24.69 28.53 27Z" fill="#3B89E4"/>
<path d="M21.14 14.51C21.2856 14.7103 21.5003 14.8493 21.7426 14.9004C21.9848 14.9514 22.2374 14.9108 22.4514 14.7864C22.6654 14.662 22.8256 14.4626 22.9011 14.2268C22.9766 13.991 22.962 13.7356 22.86 13.51L19.86 8.51005C19.7144 8.30983 19.4997 8.17075 19.2575 8.1197C19.0152 8.06865 18.7627 8.10927 18.5486 8.2337C18.3346 8.35813 18.1744 8.55752 18.0989 8.79329C18.0234 9.02906 18.0381 9.28445 18.14 9.51005L21.14 14.51Z" fill="#ABCDEB"/>
<path d="M27 13.2L28 8.20003C28.0531 7.93482 27.9986 7.65939 27.8486 7.43435C27.6985 7.2093 27.4653 7.05308 27.2 7.00003C26.9348 6.94699 26.6594 7.00148 26.4343 7.1515C26.2093 7.30153 26.0531 7.53482 26 7.80003L25 12.8C24.947 13.0652 25.0015 13.3407 25.1515 13.5657C25.3015 13.7908 25.5348 13.947 25.8 14C26.0652 14.0531 26.3407 13.9986 26.5657 13.8486C26.7908 13.6985 26.947 13.4652 27 13.2Z" fill="#ABCDEB"/>
</g>
<defs>
<clipPath id="clip0_78_122">
<rect width="48" height="48" fill="white"/>
</clipPath>
</defs>
</svg>
