<svg width="48" height="48" viewBox="0 0 48 48" fill="none" xmlns="http://www.w3.org/2000/svg">
<path d="M28.68 24C28.3906 23.7121 28.0283 23.5083 27.632 23.4106C27.2356 23.3128 26.8201 23.3247 26.43 23.445C18.5625 20.25 18.675 20.385 18.675 20.31C18.675 20.235 18.675 20.3775 6.81002 8.49001C6.66949 8.35032 6.4794 8.27191 6.28127 8.27191C6.08313 8.27191 5.89304 8.35032 5.75252 8.49001L4.68752 9.55501C4.54783 9.69553 4.46942 9.88562 4.46942 10.0838C4.46942 10.2819 4.54783 10.472 4.68752 10.6125C18.1875 24.1125 16.1775 22.2825 17.2425 22.7175C23.4525 25.245 23.9925 25.1775 25.29 26.94C25.485 27.18 28.245 29.94 39.945 41.6325C40.3677 42.0552 40.941 42.2927 41.5388 42.2927C42.1365 42.2927 42.7098 42.0552 43.1325 41.6325C43.5552 41.2098 43.7927 40.6365 43.7927 40.0388C43.7927 39.441 43.5552 38.8677 43.1325 38.445C30.4275 25.755 33.75 29.055 28.68 24Z" fill="#ABCDEB"/>
<path d="M14.25 14.8575L15.3075 15.9225C19.245 11.985 19.245 12.09 19.245 11.67C19.2444 11.5217 19.1998 11.3769 19.1169 11.2539C19.0339 11.1309 18.9164 11.0353 18.7791 10.9791C18.6419 10.9229 18.491 10.9086 18.3457 10.9382C18.2003 10.9677 18.067 11.0397 17.9625 11.145C14.19 14.91 14.31 14.8575 14.25 14.8575Z" fill="#ABCDEB"/>
<path d="M12.6375 5.83499C13.3875 5.14499 12.2775 4.08749 11.5875 4.77749L7.875 8.52749L8.9325 9.58499L12.6375 5.83499Z" fill="#ABCDEB"/>
<path d="M11.055 11.67C15 7.70251 15 7.85251 15 7.42501C15.001 7.2778 14.9585 7.13358 14.8781 7.01032C14.7976 6.88706 14.6826 6.79021 14.5475 6.73184C14.4123 6.67346 14.263 6.65615 14.1181 6.68205C13.9732 6.70796 13.8391 6.77593 13.7325 6.87751L9.98254 10.6275L11.055 11.67Z" fill="#ABCDEB"/>
<path d="M13.1776 13.8C17.1376 9.82498 17.1001 9.98998 17.1001 9.55499C17.104 9.40563 17.0632 9.25852 16.983 9.1325C16.9027 9.00648 16.7867 8.9073 16.6497 8.84767C16.5127 8.78804 16.361 8.77068 16.2141 8.79782C16.0672 8.82496 15.9317 8.89535 15.8251 8.99999L12.0751 12.75L13.1776 13.8Z" fill="#ABCDEB"/>
<path d="M24.1351 27.8925C22.8451 26.3925 23.8876 27.0375 16.8451 24.18L9.06006 31.9575L17.5426 40.44L27.0901 30.8925C24.0751 27.87 24.3676 28.1775 24.1351 27.8925Z" fill="#3B89E4"/>
<path d="M27.105 21.8475C29.0475 21.8475 29.685 22.8825 32.355 25.5975L36.75 21.2025C37.2689 20.684 37.6244 20.0246 37.7724 19.3061C37.9204 18.5876 37.8543 17.8414 37.5825 17.16L36.6225 14.7525L34.7175 12.8475L32.31 11.8875C31.6307 11.6274 30.8904 11.5704 30.1793 11.7235C29.4682 11.8767 28.817 12.2333 28.305 12.75L21.2775 19.785C27.5775 22.2825 26.25 21.8475 27.105 21.8475Z" fill="#3B89E4"/>
<path d="M17.0175 42L7.45503 32.4675C7.31484 32.3301 7.12635 32.2531 6.93003 32.2531C6.73372 32.2531 6.54523 32.3301 6.40503 32.4675L5.34753 33.5475L15.9525 44.1525L17.0175 43.095C17.0925 43.0248 17.1522 42.9401 17.193 42.8459C17.2339 42.7517 17.2549 42.6502 17.2549 42.5475C17.2549 42.4449 17.2339 42.3433 17.193 42.2491C17.1522 42.155 17.0925 42.0702 17.0175 42Z" fill="#3B89E4"/>
<path d="M39.945 11.67C40.0147 11.7403 40.0977 11.7961 40.1891 11.8341C40.2805 11.8722 40.3785 11.8918 40.4775 11.8918C40.5765 11.8918 40.6745 11.8722 40.7659 11.8341C40.8573 11.7961 40.9403 11.7403 41.01 11.67L43.6575 8.99997C43.7972 8.85945 43.8756 8.66936 43.8756 8.47122C43.8756 8.27308 43.7972 8.08299 43.6575 7.94247C41.475 5.75997 41.4075 5.59497 41.01 5.59497C40.6125 5.59497 40.74 5.59497 37.83 8.46747C37.7597 8.53719 37.7039 8.62014 37.6658 8.71154C37.6278 8.80293 37.6082 8.90096 37.6082 8.99997C37.6082 9.09898 37.6278 9.19701 37.6658 9.2884C37.7039 9.3798 37.7597 9.46275 37.83 9.53247L39.945 11.67Z" fill="#3B89E4"/>
<path d="M35.7008 11.675L36.7562 10.6197L38.8775 12.741L37.8221 13.7964L35.7008 11.675Z" fill="#3B89E4"/>
</svg>
