<svg width="48" height="48" viewBox="0 0 48 48" fill="none" xmlns="http://www.w3.org/2000/svg">
<path d="M5.25 14.25V36.75C5.25 36.9489 5.32902 37.1397 5.46967 37.2803C5.61032 37.421 5.80109 37.5 6 37.5H28.035C27.839 36.5217 27.4178 35.6024 26.805 34.815C23.25 30.5325 27.435 24.3975 32.4225 25.6425C33.21 25.7925 34.1625 26.3925 35.775 25.8675C36.0975 25.7775 36 26.7375 36 14.25H5.25ZM12 33C12 33.1989 11.921 33.3897 11.7803 33.5303C11.6397 33.671 11.4489 33.75 11.25 33.75H9.75C9.55109 33.75 9.36032 33.671 9.21967 33.5303C9.07902 33.3897 9 33.1989 9 33V31.5C9 31.3011 9.07902 31.1103 9.21967 30.9697C9.36032 30.829 9.55109 30.75 9.75 30.75H11.25C11.4489 30.75 11.6397 30.829 11.7803 30.9697C11.921 31.1103 12 31.3011 12 31.5V33ZM12 26.25C12 26.4489 11.921 26.6397 11.7803 26.7803C11.6397 26.921 11.4489 27 11.25 27H9.75C9.55109 27 9.36032 26.921 9.21967 26.7803C9.07902 26.6397 9 26.4489 9 26.25V24.75C9 24.5511 9.07902 24.3603 9.21967 24.2197C9.36032 24.079 9.55109 24 9.75 24H11.25C11.4489 24 11.6397 24.079 11.7803 24.2197C11.921 24.3603 12 24.5511 12 24.75V26.25ZM18.75 33C18.75 33.1989 18.671 33.3897 18.5303 33.5303C18.3897 33.671 18.1989 33.75 18 33.75H16.5C16.3011 33.75 16.1103 33.671 15.9697 33.5303C15.829 33.3897 15.75 33.1989 15.75 33V31.5C15.75 31.3011 15.829 31.1103 15.9697 30.9697C16.1103 30.829 16.3011 30.75 16.5 30.75H18C18.1989 30.75 18.3897 30.829 18.5303 30.9697C18.671 31.1103 18.75 31.3011 18.75 31.5V33ZM18.75 26.25C18.75 26.4489 18.671 26.6397 18.5303 26.7803C18.3897 26.921 18.1989 27 18 27H16.5C16.3011 27 16.1103 26.921 15.9697 26.7803C15.829 26.6397 15.75 26.4489 15.75 26.25V24.75C15.75 24.5511 15.829 24.3603 15.9697 24.2197C16.1103 24.079 16.3011 24 16.5 24H18C18.1989 24 18.3897 24.079 18.5303 24.2197C18.671 24.3603 18.75 24.5511 18.75 24.75V26.25ZM18.75 19.5C18.75 19.6989 18.671 19.8897 18.5303 20.0303C18.3897 20.171 18.1989 20.25 18 20.25H16.5C16.3011 20.25 16.1103 20.171 15.9697 20.0303C15.829 19.8897 15.75 19.6989 15.75 19.5V18C15.75 17.8011 15.829 17.6103 15.9697 17.4697C16.1103 17.329 16.3011 17.25 16.5 17.25H18C18.1989 17.25 18.3897 17.329 18.5303 17.4697C18.671 17.6103 18.75 17.8011 18.75 18V19.5ZM25.5 26.25C25.5 26.4489 25.421 26.6397 25.2803 26.7803C25.1397 26.921 24.9489 27 24.75 27H23.25C23.0511 27 22.8603 26.921 22.7197 26.7803C22.579 26.6397 22.5 26.4489 22.5 26.25V24.75C22.5 24.5511 22.579 24.3603 22.7197 24.2197C22.8603 24.079 23.0511 24 23.25 24H24.75C24.9489 24 25.1397 24.079 25.2803 24.2197C25.421 24.3603 25.5 24.5511 25.5 24.75V26.25ZM25.5 19.5C25.5 19.6989 25.421 19.8897 25.2803 20.0303C25.1397 20.171 24.9489 20.25 24.75 20.25H23.25C23.0511 20.25 22.8603 20.171 22.7197 20.0303C22.579 19.8897 22.5 19.6989 22.5 19.5V18C22.5 17.8011 22.579 17.6103 22.7197 17.4697C22.8603 17.329 23.0511 17.25 23.25 17.25H24.75C24.9489 17.25 25.1397 17.329 25.2803 17.4697C25.421 17.6103 25.5 17.8011 25.5 18V19.5ZM32.25 19.5C32.25 19.6989 32.171 19.8897 32.0303 20.0303C31.8897 20.171 31.6989 20.25 31.5 20.25H30C29.8011 20.25 29.6103 20.171 29.4697 20.0303C29.329 19.8897 29.25 19.6989 29.25 19.5V18C29.25 17.8011 29.329 17.6103 29.4697 17.4697C29.6103 17.329 29.8011 17.25 30 17.25H31.5C31.6989 17.25 31.8897 17.329 32.0303 17.4697C32.171 17.6103 32.25 17.8011 32.25 18V19.5Z" fill="#3B89E4"/>
<path d="M36 8.25V12.75H5.25V8.25C5.25 8.05109 5.32902 7.86032 5.46967 7.71967C5.61032 7.57902 5.80109 7.5 6 7.5H7.5V9.75C7.5 9.94891 7.57902 10.1397 7.71967 10.2803C7.86032 10.421 8.05109 10.5 8.25 10.5C8.44891 10.5 8.63968 10.421 8.78033 10.2803C8.92098 10.1397 9 9.94891 9 9.75V7.5H12V9.75C12 9.94891 12.079 10.1397 12.2197 10.2803C12.3603 10.421 12.5511 10.5 12.75 10.5C12.9489 10.5 13.1397 10.421 13.2803 10.2803C13.421 10.1397 13.5 9.94891 13.5 9.75V7.5H24.75V9.75C24.75 9.94891 24.829 10.1397 24.9697 10.2803C25.1103 10.421 25.3011 10.5 25.5 10.5C25.6989 10.5 25.8897 10.421 26.0303 10.2803C26.171 10.1397 26.25 9.94891 26.25 9.75V7.5H29.25V9.75C29.25 9.94891 29.329 10.1397 29.4697 10.2803C29.6103 10.421 29.8011 10.5 30 10.5C30.1989 10.5 30.3897 10.421 30.5303 10.2803C30.671 10.1397 30.75 9.94891 30.75 9.75V7.5H35.25C35.4489 7.5 35.6397 7.57902 35.7803 7.71967C35.921 7.86032 36 8.05109 36 8.25Z" fill="#ABCDEB"/>
<path d="M9 9.75V5.25C9 5.05109 9.07902 4.86032 9.21967 4.71967C9.36032 4.57902 9.55109 4.5 9.75 4.5C9.94891 4.5 10.1397 4.57902 10.2803 4.71967C10.421 4.86032 10.5 5.05109 10.5 5.25V9.75C10.5 9.94891 10.421 10.1397 10.2803 10.2803C10.1397 10.421 9.94891 10.5 9.75 10.5C9.55109 10.5 9.36032 10.421 9.21967 10.2803C9.07902 10.1397 9 9.94891 9 9.75Z" fill="#ABCDEB"/>
<path d="M13.5 9.75V5.25C13.5 5.05109 13.579 4.86032 13.7197 4.71967C13.8603 4.57902 14.0511 4.5 14.25 4.5C14.4489 4.5 14.6397 4.57902 14.7803 4.71967C14.921 4.86032 15 5.05109 15 5.25V9.75C15 9.94891 14.921 10.1397 14.7803 10.2803C14.6397 10.421 14.4489 10.5 14.25 10.5C14.0511 10.5 13.8603 10.421 13.7197 10.2803C13.579 10.1397 13.5 9.94891 13.5 9.75Z" fill="#ABCDEB"/>
<path d="M26.25 9.75V5.25C26.25 5.05109 26.329 4.86032 26.4697 4.71967C26.6103 4.57902 26.8011 4.5 27 4.5C27.1989 4.5 27.3897 4.57902 27.5303 4.71967C27.671 4.86032 27.75 5.05109 27.75 5.25V9.75C27.75 9.94891 27.671 10.1397 27.5303 10.2803C27.3897 10.421 27.1989 10.5 27 10.5C26.8011 10.5 26.6103 10.421 26.4697 10.2803C26.329 10.1397 26.25 9.94891 26.25 9.75Z" fill="#ABCDEB"/>
<path d="M30.75 9.75V5.25C30.75 5.05109 30.829 4.86032 30.9697 4.71967C31.1103 4.57902 31.3011 4.5 31.5 4.5C31.6989 4.5 31.8897 4.57902 32.0303 4.71967C32.171 4.86032 32.25 5.05109 32.25 5.25V9.75C32.25 9.94891 32.171 10.1397 32.0303 10.2803C31.8897 10.421 31.6989 10.5 31.5 10.5C31.3011 10.5 31.1103 10.421 30.9697 10.2803C30.829 10.1397 30.75 9.94891 30.75 9.75Z" fill="#ABCDEB"/>
<path d="M38.19 27.0001C37.5783 26.9402 36.9609 27.0171 36.3825 27.2251C33.5175 28.1776 32.7825 26.7976 30.825 27.0001C29.8412 27.0874 28.9193 27.5175 28.2203 28.2152C27.5212 28.9129 27.0893 29.834 27 30.8176C26.7525 33.6526 28.7175 33.6301 29.49 37.2226C29.5425 37.5151 29.9925 39.6751 30.3225 41.2876C30.3679 41.4864 30.4794 41.664 30.6388 41.7912C30.7982 41.9184 30.9961 41.9876 31.2 41.9876C31.404 41.9876 31.6019 41.9184 31.7613 41.7912C31.9207 41.664 32.0322 41.4864 32.0775 41.2876L32.7825 38.3776C32.8773 37.9998 33.0955 37.6645 33.4026 37.4249C33.7097 37.1853 34.0881 37.0552 34.4775 37.0552C34.867 37.0552 35.2454 37.1853 35.5524 37.4249C35.8595 37.6645 36.0778 37.9998 36.1725 38.3776L36.8775 41.2801C36.9258 41.4754 37.038 41.6489 37.1964 41.7729C37.3548 41.8969 37.5501 41.9643 37.7513 41.9643C37.9524 41.9643 38.1478 41.8969 38.3062 41.7729C38.4646 41.6489 38.5768 41.4754 38.625 41.2801C39.375 37.7176 39.495 35.6701 41.0175 33.8251C41.4946 33.2375 41.8041 32.5319 41.9131 31.783C42.0222 31.034 41.9269 30.2694 41.6372 29.5702C41.3475 28.871 40.8742 28.263 40.2674 27.8106C39.6606 27.3582 38.9429 27.0781 38.19 27.0001ZM38.0325 29.7526C37.0006 30.486 35.766 30.8801 34.5 30.8801C33.234 30.8801 31.9994 30.486 30.9675 29.7526C30.8154 29.6329 30.7154 29.459 30.6885 29.2673C30.6615 29.0756 30.7098 28.8809 30.8232 28.724C30.9365 28.567 31.1062 28.46 31.2966 28.4252C31.4871 28.3905 31.6836 28.4308 31.845 28.5376C32.6352 29.0621 33.5527 29.3627 34.5 29.4076C35.4452 29.3694 36.3626 29.0766 37.155 28.5601C37.3165 28.4533 37.513 28.413 37.7035 28.4477C37.8939 28.4825 38.0636 28.5895 38.1769 28.7465C38.2903 28.9034 38.3385 29.0981 38.3116 29.2898C38.2847 29.4815 38.1847 29.6554 38.0325 29.7751V29.7526Z" fill="#3B89E4"/>
</svg>
