<svg width="48" height="48" viewBox="0 0 48 48" fill="none" xmlns="http://www.w3.org/2000/svg">
<path d="M47.1375 22.8299C47.1375 21.0749 43.6575 22.7024 42.4575 24.1124C42.3955 22.6092 42.1435 21.1198 41.7075 19.6799C42.8109 18.8141 43.5685 17.5824 43.8436 16.2071C44.1186 14.8318 43.893 13.4035 43.2075 12.1799C43.1137 12.0052 42.9545 11.8748 42.7647 11.8172C42.575 11.7595 42.3701 11.7794 42.195 11.8724C40.9699 12.708 40.0819 13.9522 39.69 15.3824C39.0467 14.42 38.3134 13.521 37.5 12.6974C38.2795 11.5652 38.6393 10.1964 38.5175 8.82715C38.3956 7.45795 37.7997 6.17421 36.8325 5.19741H36.7875C36.7875 5.13741 36.7275 5.14491 36.6675 5.11491C35.445 4.29741 33.96 7.92741 34.4175 10.2074C33.4669 9.6037 32.4627 9.08902 31.4175 8.66991C31.1666 7.2976 30.4311 6.06107 29.3449 5.18555C28.2588 4.31004 26.8943 3.85379 25.5 3.89991C25.3379 3.92309 25.1878 3.99868 25.0727 4.11514C24.9576 4.23161 24.8838 4.38255 24.8625 4.54491V4.68741C24.8625 4.68741 24.8625 4.68741 24.8625 4.73241C25.0148 6.20661 25.7169 7.56934 26.8288 8.5492C27.9407 9.52906 29.3808 10.0542 30.8625 10.0199C33.4776 11.0512 35.7748 12.7534 37.5227 14.955C39.2706 17.1567 40.4075 19.78 40.8189 22.5609C41.2303 25.3417 40.9016 28.1819 39.8661 30.7953C38.8305 33.4087 37.1245 35.7031 34.92 37.4474C32.1852 39.5299 28.9053 40.7752 25.4775 41.0324C25.2786 41.0483 25.0941 41.1426 24.9647 41.2945C24.8353 41.4464 24.7716 41.6435 24.7875 41.8424C24.8034 42.0413 24.8977 42.2258 25.0496 42.3552C25.2015 42.4846 25.3986 42.5483 25.5975 42.5324C27.7207 42.3575 29.8034 41.8514 31.77 41.0324C32.8264 41.8365 34.1102 42.2855 35.4375 42.3149C37.0793 42.2538 38.63 41.5445 39.75 40.3424C39.8241 40.2333 39.8681 40.1065 39.8775 39.9749C40.02 38.9549 37.4775 38.1824 36.4725 38.0849C37.1194 37.5529 37.7238 36.9711 38.28 36.3449C39.6595 36.6572 41.1056 36.4564 42.3479 35.7801C43.5901 35.1037 44.5436 33.9981 45.03 32.6699C45.0921 32.5022 45.0922 32.3178 45.0303 32.1501C44.9684 31.9823 44.8486 31.8421 44.6925 31.7549C44.175 31.3649 42.105 31.4249 41.0325 31.7549C41.4505 30.7876 41.7769 29.7832 42.0075 28.7549C43.4394 28.566 44.7524 27.8586 45.6978 26.7667C46.6432 25.6748 47.1554 24.2741 47.1375 22.8299Z" fill="#ABCDEB"/>
<path d="M22.56 41.0398C19.1179 40.7725 15.8261 39.5173 13.08 37.4249C10.8796 35.6788 9.17778 33.3842 8.14562 30.7717C7.11346 28.1592 6.78737 25.321 7.20015 22.5426C7.61293 19.7641 8.75003 17.1433 10.4971 14.9437C12.2441 12.7441 14.5396 11.0433 17.1525 10.0123C18.6283 10.0475 20.0636 9.52757 21.1746 8.55546C22.2856 7.58334 22.9914 6.22977 23.1525 4.76235C23.1525 4.76235 23.1525 4.76235 23.1525 4.71735C23.265 4.48485 22.905 3.92235 22.4025 3.92235C21.0205 3.89168 19.6717 4.34829 18.5926 5.21217C17.5134 6.07606 16.7726 7.29214 16.5 8.64735C15.4548 9.06646 14.4506 9.58114 13.5 10.1848C13.6671 9.30536 13.6353 8.39961 13.4069 7.53401C13.1785 6.66841 12.7593 5.86489 12.18 5.18235C12.0413 5.05373 11.8591 4.98226 11.67 4.98226C11.4808 4.98226 11.2987 5.05373 11.16 5.18235C10.1781 6.149 9.56834 7.43088 9.43803 8.80261C9.30771 10.1743 9.66515 11.5481 10.4475 12.6823C9.64818 13.5174 8.92996 14.4265 8.3025 15.3973C7.89 13.7548 6.18 11.6998 5.415 11.8123C5.29463 11.8174 5.17726 11.8514 5.07282 11.9115C4.96838 11.9716 4.87995 12.0559 4.815 12.1573C4.11535 13.3774 3.88178 14.8097 4.1576 16.1888C4.43342 17.5679 5.19992 18.8003 6.315 19.6573C5.87896 21.0973 5.62696 22.5866 5.565 24.0898C4.5075 22.8448 1.215 21.0898 0.892498 22.7174C0.839796 24.1828 1.3331 25.6156 2.27677 26.7381C3.22044 27.8605 4.54726 28.5926 6 28.7923C6.23057 29.8206 6.557 30.825 6.975 31.7923C6.135 31.5223 3.8775 31.2973 3.225 31.8524C3.10746 31.9535 3.02415 32.0886 2.98654 32.239C2.94893 32.3894 2.95887 32.5478 3.015 32.6923C3.49869 34.0225 4.45167 35.1301 5.69473 35.8069C6.93779 36.4837 8.38528 36.683 9.765 36.3674C10.3373 36.9779 10.9406 37.5587 11.5725 38.1073C10.5 38.1824 7.965 38.9998 8.1075 39.9748C8.11694 40.1064 8.16092 40.2332 8.235 40.3424C9.37297 41.5518 10.9406 42.2656 12.6 42.3298C13.9263 42.2954 15.2087 41.8469 16.2675 41.0473C18.2366 41.8588 20.3181 42.3646 22.44 42.5473C22.539 42.5552 22.6385 42.5435 22.733 42.5129C22.8275 42.4823 22.915 42.4334 22.9906 42.369C23.0661 42.3046 23.1283 42.2259 23.1734 42.1375C23.2186 42.049 23.2459 41.9526 23.2537 41.8536C23.2616 41.7546 23.2499 41.655 23.2193 41.5606C23.1887 41.4661 23.1398 41.3786 23.0754 41.303C23.011 41.2275 22.9323 41.1653 22.8439 41.1202C22.7554 41.075 22.659 41.0477 22.56 41.0398Z" fill="#ABCDEB"/>
<path d="M20.9025 13.0498C20.7651 13.071 20.6364 13.1299 20.5306 13.2201C20.4248 13.3102 20.3461 13.4279 20.3033 13.5602C20.2605 13.6924 20.2553 13.8339 20.2883 13.9689C20.3213 14.104 20.3911 14.2272 20.49 14.3248L21.6975 15.5098L21.4125 17.1748C21.3809 17.3152 21.3903 17.4617 21.4397 17.5968C21.4891 17.732 21.5763 17.8501 21.6909 17.9371C21.8055 18.0241 21.9428 18.0762 22.0862 18.0873C22.2297 18.0984 22.3733 18.0681 22.5 17.9998L24 17.2123C25.5 17.9998 25.815 18.2998 26.25 17.9623C26.685 17.6248 26.535 17.1373 26.25 15.5623C27.555 14.2798 27.825 14.1673 27.6525 13.6123C27.48 13.0573 27 13.0948 25.4025 12.8623L24.6525 11.3623C24.5911 11.2355 24.4952 11.1285 24.3758 11.0537C24.2564 10.9789 24.1184 10.9392 23.9775 10.9392C23.8366 10.9392 23.6986 10.9789 23.5792 11.0537C23.4598 11.1285 23.3639 11.2355 23.3025 11.3623L22.5525 12.8623L20.9025 13.0498Z" fill="#3B89E4"/>
<path d="M20.205 16.5598C20.01 15.9823 19.5525 16.0423 17.955 15.8098L17.205 14.3098C17.1436 14.183 17.0477 14.0761 16.9283 14.0012C16.8089 13.9264 16.6709 13.8867 16.53 13.8867C16.3891 13.8867 16.2511 13.9264 16.1317 14.0012C16.0123 14.0761 15.9164 14.183 15.855 14.3098L15.105 15.8098L13.4325 16.0573C13.2951 16.0785 13.1664 16.1374 13.0606 16.2276C12.9548 16.3177 12.8761 16.4354 12.8333 16.5677C12.7905 16.6999 12.7853 16.8414 12.8183 16.9764C12.8513 17.1115 12.9211 17.2347 13.02 17.3323L14.2275 18.5173L13.9425 20.1823C13.9168 20.3182 13.9292 20.4586 13.9783 20.588C14.0274 20.7173 14.1113 20.8305 14.2207 20.9151C14.3302 20.9998 14.4609 21.0524 14.5984 21.0674C14.736 21.0823 14.8749 21.0589 15 20.9998L16.5 20.2123C18 20.9998 18.315 21.2998 18.7875 20.9623C19.26 20.6248 19.0725 20.1373 18.7875 18.5623C20.1075 17.2498 20.3775 17.1148 20.205 16.5598Z" fill="#3B89E4"/>
<path d="M34.5975 16.05L32.925 15.8025L32.175 14.3025C32.1136 14.1757 32.0177 14.0687 31.8983 13.9939C31.779 13.9191 31.6409 13.8794 31.5 13.8794C31.3591 13.8794 31.2211 13.9191 31.1017 13.9939C30.9823 14.0687 30.8864 14.1757 30.825 14.3025L30.075 15.8025C28.38 16.05 27.9825 15.9975 27.825 16.5525C27.6675 17.1075 28.035 17.3025 29.2275 18.5025C28.95 20.1375 28.755 20.5575 29.2275 20.9025C29.7 21.2475 30.06 20.94 31.4775 20.1525C33.075 20.9925 33.0675 21.0225 33.3225 21.0225C33.4327 21.0241 33.5419 21.0014 33.6423 20.956C33.7428 20.9106 33.832 20.8436 33.9036 20.7598C33.9752 20.6761 34.0274 20.5775 34.0566 20.4713C34.0858 20.365 34.0913 20.2536 34.0725 20.145L33.7875 18.48L34.995 17.295C35.0856 17.1975 35.1486 17.0778 35.1776 16.948C35.2066 16.8182 35.2005 16.683 35.1601 16.5563C35.1196 16.4296 35.0462 16.316 34.9474 16.227C34.8485 16.138 34.7278 16.0769 34.5975 16.05Z" fill="#3B89E4"/>
<path d="M24.9375 21.3525C24.8589 21.169 24.7281 21.0127 24.5615 20.9028C24.3948 20.7929 24.1996 20.7344 24 20.7344C23.8004 20.7344 23.6052 20.7929 23.4385 20.9028C23.2719 21.0127 23.1411 21.169 23.0625 21.3525L20.8725 26.4975L16.9725 22.44C16.8887 22.3144 16.769 22.2169 16.6289 22.1604C16.4888 22.104 16.335 22.0911 16.1875 22.1235C16.04 22.1559 15.9057 22.2321 15.8022 22.3421C15.6987 22.4521 15.6309 22.5908 15.6075 22.74L14.7225 29.25H33.2775L32.3925 22.74C32.3691 22.5908 32.3013 22.4521 32.1978 22.3421C32.0943 22.2321 31.96 22.1559 31.8125 22.1235C31.665 22.0911 31.5112 22.104 31.3711 22.1604C31.231 22.2169 31.1113 22.3144 31.0275 22.44L27.1275 26.4975L24.9375 21.3525Z" fill="#3B89E4"/>
<path d="M12 32.625C12 33.1223 12.1975 33.5992 12.5492 33.9508C12.9008 34.3025 13.3777 34.5 13.875 34.5H34.125C34.6223 34.5 35.0992 34.3025 35.4508 33.9508C35.8025 33.5992 36 33.1223 36 32.625C36 32.1277 35.8025 31.6508 35.4508 31.2992C35.0992 30.9475 34.6223 30.75 34.125 30.75H13.875C13.3777 30.75 12.9008 30.9475 12.5492 31.2992C12.1975 31.6508 12 32.1277 12 32.625Z" fill="#3B89E4"/>
</svg>
