<svg width="44" height="44" viewBox="0 0 44 44" fill="none" xmlns="http://www.w3.org/2000/svg">
<g clip-path="url(#clip0_403_6903)">
<path d="M40.3334 42.1667C40.3334 43.1805 39.5139 44 38.5001 44H5.50008C4.48625 44 3.66675 43.1805 3.66675 42.1667C3.66675 35.7042 7.41041 30.1143 12.8334 27.4083V33.5097C11.7426 34.144 11.0001 35.3137 11.0001 36.6685C11.0001 38.6943 12.6409 40.3352 14.6667 40.3352C16.6926 40.3352 18.3334 38.6943 18.3334 36.6685C18.3334 35.3155 17.5909 34.1458 16.5001 33.5097V26.092C17.6807 25.8225 18.9054 25.6667 20.1667 25.6667H23.8334C24.4531 25.6667 25.0636 25.707 25.6667 25.7748V33.3373C23.5382 34.0963 22.0001 36.113 22.0001 38.5V40.3333C22.0001 41.3472 22.8196 42.1667 23.8334 42.1667C24.8472 42.1667 25.6667 41.3472 25.6667 40.3333V38.5C25.6667 37.488 26.4881 36.6667 27.5001 36.6667C28.5121 36.6667 29.3334 37.488 29.3334 38.5V40.3333C29.3334 41.3472 30.1529 42.1667 31.1667 42.1667C32.1806 42.1667 33.0001 41.3472 33.0001 40.3333V38.5C33.0001 36.113 31.4619 34.0963 29.3334 33.3373V26.6292C35.7318 28.9007 40.3334 34.9983 40.3334 42.1667ZM33.0001 11C33.0001 4.9335 28.0666 0 22.0001 0C15.9336 0 11.0001 4.9335 11.0001 11C11.0001 17.0665 15.9336 22 22.0001 22C28.0666 22 33.0001 17.0665 33.0001 11Z" fill="#3B89E4"/>
</g>
<defs>
<clipPath id="clip0_403_6903">
<rect width="44" height="44" fill="white"/>
</clipPath>
</defs>
</svg>
