<svg width="48" height="48" viewBox="0 0 48 48" fill="none" xmlns="http://www.w3.org/2000/svg">
<path d="M16.965 41.4601L15.3375 40.3726C15.1783 40.2679 15.0648 40.1066 15.0203 39.9213C14.9757 39.736 15.0033 39.5407 15.0975 39.3751L16.545 36.8401C14.7765 37.5369 13.1956 38.6378 11.9285 40.0546C10.6614 41.4715 9.74329 43.1651 9.2475 45.0001H15.5175C15.18 43.7851 15.0675 44.3401 16.965 41.4601Z" fill="#3B89E4"/>
<path d="M25.065 38.8426C24.3731 39.0527 23.6344 39.0527 22.9425 38.8426C22.8675 38.8426 22.9425 38.7901 24 42.8176C25.1925 38.3626 25.065 38.9176 25.065 38.8426Z" fill="#3B89E4"/>
<path d="M32.4825 45C39.675 45 38.7675 45.0675 38.7075 44.835C38.2006 43.0402 37.2866 41.3865 36.0366 40.0025C34.7865 38.6185 33.2341 37.5414 31.5 36.855L32.94 39.375C33.0342 39.5406 33.0618 39.7359 33.0173 39.9212C32.9727 40.1065 32.8592 40.2678 32.7 40.3725L31.0725 41.46C32.9475 44.355 32.8125 43.8 32.4825 45Z" fill="#3B89E4"/>
<path d="M12.75 15.7499C16.62 15.7499 19.0575 15.9224 22.44 13.9724C21.165 13.3349 22.5 13.4999 12.75 13.4999V15.7499Z" fill="#3B89E4"/>
<path d="M35.25 15.705V13.5H30.9675C32.0717 14.7412 33.5983 15.5272 35.25 15.705Z" fill="#3B89E4"/>
<path d="M30 25.5V22.5H18C18 25.2225 17.6325 27.3 19.6275 28.965C20.4329 29.6382 21.4504 30.0048 22.5 30H25.5C26.6935 30 27.8381 29.5259 28.682 28.682C29.5259 27.8381 30 26.6935 30 25.5Z" fill="#ABCDEB"/>
<path d="M31.4025 26.5801C33.36 24.3301 33.75 22.0801 33.75 19.4026L31.5 22.0276C31.5 25.6501 31.5 25.8976 31.4025 26.5801Z" fill="#ABCDEB"/>
<path d="M33.75 16.9349C31.8306 16.3961 30.1742 15.1745 29.0925 13.4999C26.2275 13.4999 26.5425 13.4549 26.2875 13.6274C25.8422 13.8875 25.3549 14.0677 24.8475 14.1599C23.3117 15.3273 21.5684 16.1926 19.71 16.7099C17.9692 17.1536 16.1716 17.3331 14.3775 17.2424L17.595 20.9924H30.405C34.1175 16.6649 33.75 17.1674 33.75 16.9349Z" fill="#3B89E4"/>
<path d="M14.3475 21.5851C14.6033 23.4335 15.3842 25.1698 16.5975 26.5876C16.455 25.7701 16.5 25.6276 16.5 22.0276L14.25 19.4026C14.2222 20.1315 14.2548 20.8615 14.3475 21.5851Z" fill="#ABCDEB"/>
<path d="M12.975 22.5C12.8239 21.7596 12.7486 21.0057 12.75 20.25C12.75 17.25 12.855 17.775 12.48 17.3325C11.8705 17.4851 11.336 17.8513 10.9735 18.3645C10.6111 18.8776 10.4447 19.5038 10.5046 20.1292C10.5645 20.7546 10.8467 21.3378 11.3 21.7728C11.7533 22.2079 12.3476 22.4659 12.975 22.5Z" fill="#3B89E4"/>
<path d="M35.25 17.6551C35.3477 19.2735 35.2722 20.8977 35.025 22.5001C35.6479 22.4605 36.2362 22.2003 36.6846 21.7661C37.1329 21.332 37.4119 20.7523 37.4715 20.131C37.5311 19.5098 37.3674 18.8876 37.0098 18.3762C36.6522 17.8647 36.124 17.4974 35.52 17.3401L35.25 17.6551Z" fill="#3B89E4"/>
<path d="M20.115 12C19.7154 11.3163 19.5032 10.5392 19.5 9.74723C19.4969 8.95528 19.7027 8.17651 20.0969 7.4896C20.491 6.80268 21.0595 6.23195 21.7448 5.83505C22.4301 5.43815 23.208 5.22915 24 5.22915C24.792 5.22915 25.5699 5.43815 26.2552 5.83505C26.9405 6.23195 27.509 6.80268 27.9031 7.4896C28.2973 8.17651 28.5031 8.95528 28.5 9.74723C28.4968 10.5392 28.2847 11.3163 27.885 12H36C36 7.62 34.3425 6.4725 34.0875 6C33.3163 5.06518 32.3487 4.31173 31.2533 3.79322C30.158 3.27472 28.9619 3.00389 27.75 3H20.25C18.062 3 15.9635 3.86919 14.4164 5.41637C12.8692 6.96354 12 9.06196 12 11.25V12H20.115Z" fill="#ABCDEB"/>
<path d="M22.2 12.15C22.5803 12.4352 23.0229 12.626 23.4914 12.7066C23.9598 12.7872 24.4408 12.7553 24.8945 12.6135C25.3482 12.4718 25.7618 12.2243 26.1011 11.8914C26.4404 11.5584 26.6957 11.1496 26.8461 10.6987C26.9964 10.2477 27.0374 9.76749 26.9657 9.29757C26.894 8.82766 26.7117 8.3815 26.4337 7.99587C26.1558 7.61024 25.7902 7.29618 25.367 7.07957C24.9439 6.86296 24.4754 6.75 24 6.75C23.3704 6.75 22.7567 6.94811 22.2459 7.31627C21.7351 7.68444 21.3531 8.20398 21.154 8.80132C20.9548 9.39865 20.9487 10.0435 21.1365 10.6445C21.3242 11.2455 21.6963 11.7722 22.2 12.15Z" fill="#3B89E4"/>
<path d="M21.75 31.2749V34.3874C22.44 36.9974 22.2975 36.8324 22.74 37.1099C23.1741 37.4037 23.6971 37.5368 24.2188 37.4861C24.7405 37.4355 25.2281 37.2042 25.5975 36.8324C26.4225 33.7649 26.25 34.9799 26.25 31.4624C26.25 31.2074 26.37 31.2824 25.635 31.3874C24.3442 31.5909 23.0268 31.5528 21.75 31.2749Z" fill="#3B89E4"/>
<path d="M20.4225 35.25H19.185C18.66 36.165 19.125 35.3475 16.7475 39.5175L18.4125 40.6275C18.5781 40.7363 18.694 40.9062 18.7347 41.1001C18.7755 41.2941 18.7378 41.4962 18.63 41.6625L16.8825 44.31L17.07 45H23.0175C23.0925 45 23.115 45.3375 20.4225 35.25Z" fill="#3B89E4"/>
<path d="M31.455 36.8474L31.4625 36.8549V36.8474H31.455Z" fill="#3B89E4"/>
<path d="M29.5875 40.6275L31.2525 39.5175C28.695 35.0175 29.22 35.9475 28.815 35.25H27.5775C24.8925 45.195 24.9075 45 24.9825 45H30.93L31.1175 44.31L29.37 41.6625C29.2621 41.4962 29.2245 41.2941 29.2652 41.1001C29.306 40.9062 29.4218 40.7363 29.5875 40.6275Z" fill="#3B89E4"/>
</svg>
