<svg width="48" height="48" viewBox="0 0 48 48" fill="none" xmlns="http://www.w3.org/2000/svg">
<path d="M35 14H41L35 8V14Z" fill="#ABCDEB"/>
<path d="M34 16C33.7348 16 33.4804 15.8946 33.2929 15.7071C33.1054 15.5196 33 15.2652 33 15V7H14C13.4696 7 12.9609 7.21071 12.5858 7.58579C12.2107 7.96086 12 8.46957 12 9V45C12 45.5304 12.2107 46.0391 12.5858 46.4142C12.9609 46.7893 13.4696 47 14 47H40C40.5304 47 41.0391 46.7893 41.4142 46.4142C41.7893 46.0391 42 45.5304 42 45V16H34ZM33 40H18C17.7348 40 17.4804 39.8946 17.2929 39.7071C17.1054 39.5196 17 39.2652 17 39C17 38.7348 17.1054 38.4804 17.2929 38.2929C17.4804 38.1054 17.7348 38 18 38H33C33.2652 38 33.5196 38.1054 33.7071 38.2929C33.8946 38.4804 34 38.7348 34 39C34 39.2652 33.8946 39.5196 33.7071 39.7071C33.5196 39.8946 33.2652 40 33 40ZM36 34H18C17.7348 34 17.4804 33.8946 17.2929 33.7071C17.1054 33.5196 17 33.2652 17 33C17 32.7348 17.1054 32.4804 17.2929 32.2929C17.4804 32.1054 17.7348 32 18 32H36C36.2652 32 36.5196 32.1054 36.7071 32.2929C36.8946 32.4804 37 32.7348 37 33C37 33.2652 36.8946 33.5196 36.7071 33.7071C36.5196 33.8946 36.2652 34 36 34ZM36 28H18C17.7348 28 17.4804 27.8946 17.2929 27.7071C17.1054 27.5196 17 27.2652 17 27C17 26.7348 17.1054 26.4804 17.2929 26.2929C17.4804 26.1054 17.7348 26 18 26H36C36.2652 26 36.5196 26.1054 36.7071 26.2929C36.8946 26.4804 37 26.7348 37 27C37 27.2652 36.8946 27.5196 36.7071 27.7071C36.5196 27.8946 36.2652 28 36 28ZM36 22H18C17.7348 22 17.4804 21.8946 17.2929 21.7071C17.1054 21.5196 17 21.2652 17 21C17 20.7348 17.1054 20.4804 17.2929 20.2929C17.4804 20.1054 17.7348 20 18 20H36C36.2652 20 36.5196 20.1054 36.7071 20.2929C36.8946 20.4804 37 20.7348 37 21C37 21.2652 36.8946 21.5196 36.7071 21.7071C36.5196 21.8946 36.2652 22 36 22Z" fill="#3B89E4"/>
<path d="M33.17 5C33.6961 5.0009 34.2169 5.10559 34.7026 5.30807C35.1882 5.51056 35.6291 5.80686 36 6.18V3C36 2.46957 35.7893 1.96086 35.4142 1.58579C35.0391 1.21071 34.5304 1 34 1H8C7.46957 1 6.96086 1.21071 6.58579 1.58579C6.21071 1.96086 6 2.46957 6 3V39C6 39.5304 6.21071 40.0391 6.58579 40.4142C6.96086 40.7893 7.46957 41 8 41H10V9C10 7.93913 10.4214 6.92172 11.1716 6.17157C11.9217 5.42143 12.9391 5 14 5H33.17Z" fill="#ABCDEB"/>
</svg>
