<svg width="44" height="44" viewBox="0 0 44 44" fill="none" xmlns="http://www.w3.org/2000/svg">
<g clip-path="url(#clip0_19_99)">
<path d="M25.7748 29.3333H27.5C39.6788 29.3333 44 22.913 44 17.4167C44 14.2468 41.6845 11.6252 38.6595 11.1082C39.3983 9.50584 39.9428 7.96584 40.2252 6.58534C40.5552 4.97934 40.1445 3.32567 39.1013 2.046C38.0398 0.744336 36.4668 -0.00183105 34.7893 -0.00183105H9.20883C7.53133 -0.00183105 5.96017 0.744336 4.89683 2.046C3.85367 3.32384 3.443 4.97934 3.773 6.58534C4.05717 7.964 4.598 9.50584 5.33683 11.1082C2.31367 11.6252 0 14.2468 0 17.4148C0 22.9112 4.32117 29.3315 16.5 29.3315H18.2105C18.2637 29.7183 18.3333 30.1015 18.3333 30.4993V36.6648C18.3333 40.0125 15.5173 40.3168 14.6667 40.3315H9.16667V43.9982H34.8333V40.3315H29.3333C28.468 40.3168 25.652 40.0125 25.652 36.6648V30.4993C25.652 30.1015 25.7198 29.7202 25.7748 29.3333ZM36.7272 14.6667H37.5833C39.0995 14.6667 40.3333 15.9005 40.3333 17.4167C40.3333 21.406 36.6813 25.6667 27.2195 25.6667C27.5568 25.2193 27.9418 24.8178 28.3745 24.4732C31.5242 21.956 34.5015 18.3297 36.7272 14.6667ZM3.66667 17.4167C3.66667 15.9005 4.9005 14.6667 6.41667 14.6667H7.26733C9.48933 18.3278 12.4612 21.9542 15.6108 24.4732C16.0417 24.8178 16.4285 25.2212 16.7658 25.6667C7.304 25.6667 3.66667 21.406 3.66667 17.4167ZM22.9607 7.33334L24.156 11.0092H28.0225L28.5725 12.6922L25.4448 14.9655L26.6402 18.6432L25.2083 19.6827L22.0825 17.4167L18.9475 19.6845L17.5157 18.645L18.711 14.9673L15.5833 12.694L16.1333 11.011H19.9962L21.1915 7.34434L22.9607 7.33334Z" fill="#3B89E4"/>
</g>
<defs>
<clipPath id="clip0_19_99">
<rect width="44" height="44" fill="white"/>
</clipPath>
</defs>
</svg>
