<svg width="44" height="44" viewBox="0 0 44 44" fill="none" xmlns="http://www.w3.org/2000/svg">
<path d="M40.3333 42.1667C40.3333 43.1805 39.5138 44 38.5 44H5.49996C4.48613 44 3.66663 43.1805 3.66663 42.1667C3.66663 35.7042 7.41029 30.1143 12.8333 27.4083V33.5097C11.7425 34.144 11 35.3137 11 36.6685C11 38.6943 12.6408 40.3352 14.6666 40.3352C16.6925 40.3352 18.3333 38.6943 18.3333 36.6685C18.3333 35.3155 17.5908 34.1458 16.5 33.5097V26.092C17.6806 25.8225 18.9053 25.6667 20.1666 25.6667H23.8333C24.453 25.6667 25.0635 25.707 25.6666 25.7748V33.3373C23.5381 34.0963 22 36.113 22 38.5V40.3333C22 41.3472 22.8195 42.1667 23.8333 42.1667C24.8471 42.1667 25.6666 41.3472 25.6666 40.3333V38.5C25.6666 37.488 26.488 36.6667 27.5 36.6667C28.512 36.6667 29.3333 37.488 29.3333 38.5V40.3333C29.3333 41.3472 30.1528 42.1667 31.1666 42.1667C32.1805 42.1667 33 41.3472 33 40.3333V38.5C33 36.113 31.4618 34.0963 29.3333 33.3373V26.6292C35.7316 28.9007 40.3333 34.9983 40.3333 42.1667ZM33 11C33 4.9335 28.0665 0 22 0C15.9335 0 11 4.9335 11 11C11 17.0665 15.9335 22 22 22C28.0665 22 33 17.0665 33 11Z" fill="#3B89E4"/>
</svg>
