<svg width="64" height="64" viewBox="0 0 64 64" fill="none" xmlns="http://www.w3.org/2000/svg">
<path d="M49.3332 4C47.2235 4 45.1612 4.62559 43.4071 5.79766C41.653 6.96973 40.2858 8.63563 39.4785 10.5847C38.6711 12.5338 38.4599 14.6785 38.8715 16.7476C39.283 18.8168 40.2989 20.7174 41.7907 22.2091C43.2825 23.7009 45.1831 24.7168 47.2522 25.1284C49.3213 25.54 51.4661 25.3287 53.4151 24.5214C55.3642 23.714 57.0301 22.3469 58.2022 20.5928C59.3743 18.8386 59.9998 16.7763 59.9998 14.6667C59.9998 11.8377 58.876 9.12458 56.8756 7.12419C54.8753 5.12381 52.1622 4 49.3332 4ZM54.2798 12.9467C47.0532 20.1733 48.7332 19.96 44.3865 15.6133C44.1354 15.3623 43.9944 15.0217 43.9944 14.6667C43.9944 14.3116 44.1354 13.9711 44.3865 13.72C44.6376 13.4689 44.9781 13.3279 45.3332 13.3279C45.6882 13.3279 46.0288 13.4689 46.2798 13.72L47.9998 15.4533L52.3865 11.0533C52.6376 10.8023 52.9781 10.6612 53.3332 10.6612C53.6882 10.6612 54.0288 10.8023 54.2798 11.0533C54.5309 11.3044 54.672 11.6449 54.672 12C54.672 12.3551 54.5309 12.6956 54.2798 12.9467Z" fill="#3B89E4"/>
<path d="M14.6666 20L17.9599 13.96L23.9999 10.6666L17.9599 7.37331L14.6666 1.33331L11.3733 7.37331L5.33325 10.6666L11.3733 13.96L14.6666 20Z" fill="#3B89E4"/>
<path d="M37.0266 9.53333C32.2533 10.0667 30.9333 11.7733 26.5999 11.2667C26.2533 12.8133 25.5333 12.8667 19.9333 15.9333L16.9999 21.2667C16.7693 21.6835 16.4313 22.0309 16.0209 22.2728C15.6106 22.5147 15.143 22.6423 14.6666 22.6423C14.1903 22.6423 13.7226 22.5147 13.3123 22.2728C12.9019 22.0309 12.5639 21.6835 12.3333 21.2667L9.39994 15.9333L5.93327 14.0267C4.51706 16.8361 3.85108 19.964 3.99994 23.1067C3.99994 30.76 8.79994 35.36 10.3999 41.48C11.4399 45.48 11.1333 53.9333 12.5333 60.24C12.7086 60.91 13.0941 61.5062 13.6331 61.9412C14.1721 62.3761 14.8362 62.6269 15.5282 62.6567C16.2201 62.6865 16.9034 62.4938 17.4779 62.1069C18.0523 61.7199 18.4876 61.1591 18.7199 60.5067C24.8266 41.3333 31.1599 41.3333 37.3333 60.5067C37.5656 61.1591 38.0009 61.7199 38.5754 62.1069C39.1498 62.4938 39.8331 62.6865 40.525 62.6567C41.217 62.6269 41.8812 62.3761 42.4202 61.9412C42.9591 61.5062 43.3446 60.91 43.5199 60.24C44.2986 55.7253 44.7796 51.1644 44.9599 46.5867C44.2933 46.3867 44.3599 46.24 42.0533 42L38.0533 39.84C37.8416 39.7257 37.6648 39.5564 37.5415 39.3498C37.4183 39.1432 37.3532 38.9072 37.3532 38.6667C37.3532 38.4261 37.4183 38.1901 37.5415 37.9835C37.6648 37.777 37.8416 37.6076 38.0533 37.4933L42.0533 35.3333L44.2133 31.3333C44.3275 31.1217 44.4969 30.9448 44.7035 30.8216C44.91 30.6984 45.1461 30.6333 45.3866 30.6333C45.6271 30.6333 45.8632 30.6984 46.0698 30.8216C46.2763 30.9448 46.4457 31.1217 46.5599 31.3333L48.4533 34.8267C49.6893 32.6021 50.6817 30.2507 51.4133 27.8133C49.0727 28.1813 46.6763 27.9189 44.4708 27.0532C42.2652 26.1875 40.3302 24.7497 38.8649 22.8878C37.3996 21.0259 36.4568 18.8072 36.1337 16.46C35.8106 14.1128 36.1188 11.7219 37.0266 9.53333Z" fill="#ABCDEB"/>
<path d="M45.3333 34.7733C43.6666 37.8266 44.4933 37 41.4399 38.6666C44.4933 40.3333 43.6666 39.5066 45.3333 42.56C46.9866 39.5333 46.1999 40.32 49.2266 38.6666C46.0799 36.9333 46.9333 37.7066 45.3333 34.7733Z" fill="#3B89E4"/>
</svg>
