<svg width="64" height="64" viewBox="0 0 64 64" fill="none" xmlns="http://www.w3.org/2000/svg">
<g clip-path="url(#clip0_418_7086)">
<path d="M20.9465 37.8333C21.2132 38.0267 20.9065 37.74 25.4932 42.3267C25.5975 42.4305 25.6913 42.5444 25.7732 42.6667L30.9065 37.5333L26.0799 32.7L20.9465 37.8333Z" fill="#ABCDEB"/>
<path d="M18.5542 39.0538L0.652952 56.9551C0.163569 57.4445 0.163568 58.2379 0.652951 58.7273L4.86667 62.941C5.35606 63.4304 6.1495 63.4304 6.63888 62.941L24.5401 45.0398C25.0295 44.5504 25.0295 43.7569 24.5401 43.2676L20.3264 39.0538C19.837 38.5645 19.0436 38.5645 18.5542 39.0538Z" fill="#ABCDEB"/>
<path d="M29.5466 29.2267L34.38 34.06L36.2666 32.1733L31.44 27.3467L29.5466 29.2267Z" fill="#3B89E4"/>
<path d="M34.8067 21.0734L32.3867 26.4067L37.2067 31.2334L42.5401 28.8134L47.8067 21.6267L42.0001 15.8L34.8067 21.0734ZM43.1934 24.04C43.334 24.145 43.4275 24.3012 43.4537 24.4746C43.4799 24.6481 43.4367 24.8249 43.3334 24.9667L41.58 27.3334C41.4334 27.5334 41.54 27.44 37.9867 29.06C37.9067 29.0968 37.8201 29.1173 37.7321 29.1205C37.6441 29.1236 37.5563 29.1092 37.4739 29.0782C37.3914 29.0472 37.316 29.0002 37.2518 28.9399C37.1876 28.8796 37.1361 28.8071 37.1001 28.7267C37.0279 28.5658 37.0225 28.3828 37.085 28.2179C37.1474 28.0529 37.2727 27.9195 37.4334 27.8467L40.6067 26.4L42.26 24.1534C42.3691 24.015 42.5285 23.9254 42.7033 23.9042C42.8782 23.8829 43.0544 23.9318 43.1934 24.04Z" fill="#3B89E4"/>
<path d="M27.0415 31.7589L28.6252 30.173L33.4585 34.9994L31.8748 36.5854L27.0415 31.7589Z" fill="#3B89E4"/>
<path d="M13.8532 41.8867L12.6999 40.7267L7.97985 45.4467L3.09985 47.6133L4.06652 51.6667L13.8532 41.8867Z" fill="#ABCDEB"/>
<path d="M43.1799 14.9467C43.3019 14.9451 43.4211 14.9101 43.5246 14.8454C43.628 14.7808 43.7117 14.689 43.7666 14.58L50.4333 1.66002C50.5076 1.50337 50.518 1.32391 50.4622 1.15974C50.4064 0.995562 50.2888 0.859585 50.1344 0.780655C49.98 0.701725 49.801 0.686054 49.6352 0.736966C49.4695 0.787879 49.3301 0.901368 49.2466 1.05336L42.5866 14C42.54 14.1007 42.5192 14.2114 42.5262 14.3222C42.5332 14.4329 42.5678 14.5402 42.6267 14.6342C42.6856 14.7282 42.7671 14.806 42.8637 14.8606C42.9603 14.9152 43.069 14.9448 43.1799 14.9467Z" fill="#3B89E4"/>
<path d="M63.6267 14.26C63.5411 14.1088 63.3998 13.997 63.2329 13.9484C63.066 13.8999 62.8868 13.9184 62.7334 14L49.8134 20.6667C49.68 20.735 49.5736 20.8463 49.5112 20.9825C49.4488 21.1188 49.4342 21.2721 49.4696 21.4177C49.505 21.5633 49.5885 21.6927 49.7065 21.7851C49.8245 21.8774 49.9702 21.9273 50.1201 21.9267C50.3534 21.9267 49.4534 22.3334 63.3401 15.1934C63.4225 15.1534 63.4958 15.0969 63.5555 15.0274C63.6151 14.9578 63.6598 14.8767 63.6867 14.7891C63.7136 14.7016 63.7221 14.6094 63.7118 14.5183C63.7015 14.4273 63.6725 14.3394 63.6267 14.26Z" fill="#3B89E4"/>
</g>
<defs>
<clipPath id="clip0_418_7086">
<rect width="64" height="64" fill="white"/>
</clipPath>
</defs>
</svg>
