<svg width="48" height="48" viewBox="0 0 48 48" fill="none" xmlns="http://www.w3.org/2000/svg">
<path d="M30.75 21.75C30.75 22.3467 30.5129 22.919 30.091 23.341C29.669 23.7629 29.0967 24 28.5 24H19.5C18.9033 24 18.331 23.7629 17.909 23.341C17.487 22.919 17.25 22.3467 17.25 21.75V20.25H5.89499C6.33297 21.4831 6.98271 22.6303 7.81499 23.64C10.875 27.345 11.1 31.14 12.885 39.765C13.0133 40.3924 13.3002 40.9765 13.7182 41.4616C14.1363 41.9467 14.6716 42.3167 15.2732 42.5363C15.8747 42.7558 16.5225 42.8177 17.1548 42.7159C17.787 42.6142 18.3827 42.3522 18.885 41.955C20.25 40.875 20.145 40.1775 21.8325 33.2775C21.9544 32.791 22.2354 32.3592 22.6308 32.0506C23.0263 31.7421 23.5134 31.5745 24.015 31.5745C24.5165 31.5745 25.0037 31.7421 25.3991 32.0506C25.7946 32.3592 26.0756 32.791 26.1975 33.2775L27.8175 39.8925C27.9686 40.5054 28.272 41.0703 28.6995 41.5347C29.1271 41.9992 29.665 42.3482 30.2633 42.5494C30.8617 42.7506 31.5011 42.7975 32.1224 42.6857C32.7437 42.5739 33.3268 42.3071 33.8175 41.91C35.205 40.7925 34.9875 40.3725 37.02 30.555C38.25 24.3825 40.71 24.165 42.105 20.25H30.75V21.75Z" fill="#3B89E4"/>
<path d="M44.25 17.25H42.75C42.8751 15.3974 42.5398 13.5426 41.7738 11.8511C41.0078 10.1596 39.8351 8.68401 38.3602 7.55594C36.8853 6.42786 35.1542 5.6824 33.3211 5.38604C31.4881 5.08968 29.6102 5.25164 27.855 5.85747C25.3586 6.7274 22.6414 6.7274 20.145 5.85747C18.3898 5.25164 16.5119 5.08968 14.6789 5.38604C12.8458 5.6824 11.1147 6.42786 9.63978 7.55594C8.16489 8.68401 6.99216 10.1596 6.2262 11.8511C5.46024 13.5426 5.12487 15.3974 5.25 17.25H3.75C3.55109 17.25 3.36032 17.329 3.21967 17.4696C3.07902 17.6103 3 17.8011 3 18C3 18.1989 3.07902 18.3897 3.21967 18.5303C3.36032 18.671 3.55109 18.75 3.75 18.75H17.25V17.25C17.25 16.6532 17.4871 16.0809 17.909 15.659C18.331 15.237 18.9033 15 19.5 15H28.5C29.0967 15 29.669 15.237 30.091 15.659C30.5129 16.0809 30.75 16.6532 30.75 17.25V18.75H44.25C44.4489 18.75 44.6397 18.671 44.7803 18.5303C44.921 18.3897 45 18.1989 45 18C45 17.8011 44.921 17.6103 44.7803 17.4696C44.6397 17.329 44.4489 17.25 44.25 17.25ZM24 12C20.9682 11.9441 17.9984 11.1321 15.36 9.63748C15.2242 9.52345 15.1331 9.36498 15.1031 9.1902C15.073 9.01542 15.1058 8.83563 15.1958 8.68277C15.2857 8.52991 15.4269 8.41385 15.5942 8.35522C15.7616 8.29658 15.9443 8.29915 16.11 8.36247C18.5285 9.70236 21.2359 10.4358 24 10.5C26.7544 10.4343 29.4517 9.70075 31.86 8.36247C32.0257 8.29915 32.2084 8.29658 32.3758 8.35522C32.5431 8.41385 32.6843 8.52991 32.7742 8.68277C32.8642 8.83563 32.897 9.01542 32.8669 9.1902C32.8369 9.36498 32.7458 9.52345 32.61 9.63748C29.9805 11.1272 27.0216 11.9391 24 12Z" fill="#3B89E4"/>
<path d="M21 18V18.75H20.25C20.0511 18.75 19.8603 18.829 19.7197 18.9697C19.579 19.1103 19.5 19.3011 19.5 19.5C19.5 19.6989 19.579 19.8897 19.7197 20.0303C19.8603 20.171 20.0511 20.25 20.25 20.25H21V21C21 21.1989 21.079 21.3897 21.2197 21.5303C21.3603 21.671 21.5511 21.75 21.75 21.75C21.9489 21.75 22.1397 21.671 22.2803 21.5303C22.421 21.3897 22.5 21.1989 22.5 21V20.25H25.5V21C25.5 21.1989 25.579 21.3897 25.7197 21.5303C25.8603 21.671 26.0511 21.75 26.25 21.75C26.4489 21.75 26.6397 21.671 26.7803 21.5303C26.921 21.3897 27 21.1989 27 21V20.25H27.75C27.9489 20.25 28.1397 20.171 28.2803 20.0303C28.421 19.8897 28.5 19.6989 28.5 19.5C28.5 19.3011 28.421 19.1103 28.2803 18.9697C28.1397 18.829 27.9489 18.75 27.75 18.75H27V18C27 17.8011 26.921 17.6103 26.7803 17.4697C26.6397 17.329 26.4489 17.25 26.25 17.25C26.0511 17.25 25.8603 17.329 25.7197 17.4697C25.579 17.6103 25.5 17.8011 25.5 18V18.75H22.5V18C22.5 17.8011 22.421 17.6103 22.2803 17.4697C22.1397 17.329 21.9489 17.25 21.75 17.25C21.5511 17.25 21.3603 17.329 21.2197 17.4697C21.079 17.6103 21 17.8011 21 18Z" fill="#ABCDEB"/>
</svg>
