<svg width="48" height="48" viewBox="0 0 48 48" fill="none" xmlns="http://www.w3.org/2000/svg">
<path d="M30.5401 32.745C30.0301 34.155 29.0401 34.3425 28.4701 36.975C28.2451 38.0175 28.1926 38.37 27.7201 40.6575C27.7201 40.8564 27.641 41.0471 27.5004 41.1878C27.3597 41.3284 27.169 41.4075 26.9701 41.4075C26.7711 41.4075 26.5804 41.3284 26.4397 41.1878C26.2991 41.0471 26.2201 40.8564 26.2201 40.6575L25.5751 38.0175C25.4833 37.6615 25.2758 37.3462 24.9853 37.1211C24.6947 36.896 24.3376 36.7738 23.9701 36.7738C23.6025 36.7738 23.2454 36.896 22.9548 37.1211C22.6643 37.3462 22.4568 37.6615 22.3651 38.0175L21.7501 40.6725C21.7123 40.8382 21.6194 40.9861 21.4865 41.0921C21.3537 41.1981 21.1887 41.2558 21.0188 41.2558C20.8489 41.2558 20.6839 41.1981 20.5511 41.0921C20.4182 40.9861 20.3253 40.8382 20.2875 40.6725C19.8601 38.6175 19.7701 38.1225 19.5376 36.99C18.9826 34.335 17.9776 34.155 17.4676 32.76C17.2725 32.2206 17.2038 31.6437 17.2666 31.0737C17.3295 30.5036 17.5222 29.9555 17.8301 29.4716C18.138 28.9877 18.5527 28.5809 19.0425 28.2824C19.5322 27.984 20.0839 27.8018 20.6551 27.75C22.5301 27.5925 23.1976 28.8375 25.7851 27.9375C26.4531 27.7068 27.1728 27.6695 27.8611 27.8301C28.5494 27.9907 29.1783 28.3425 29.6753 28.845C30.1723 29.3475 30.5172 29.9802 30.6702 30.6702C30.8232 31.3603 30.7781 32.0795 30.5401 32.745Z" fill="#ABCDEB"/>
<path d="M39.75 33C39.75 36.3815 38.4067 39.6245 36.0156 42.0156C33.6245 44.4067 30.3815 45.75 27 45.75H21C17.6185 45.75 14.3755 44.4067 11.9844 42.0156C9.5933 39.6245 8.25 36.3815 8.25 33H15.9675C16.1713 33.671 16.5052 34.2953 16.95 34.8375C17.9925 36.0975 18.0975 37.395 18.8175 40.9575C18.922 41.4568 19.1931 41.9057 19.5862 42.2307C19.9794 42.5557 20.4713 42.7375 20.9813 42.7462C21.4913 42.7549 21.9892 42.5901 22.3932 42.2787C22.7972 41.9673 23.0835 41.5279 23.205 41.0325L23.85 38.3925C23.8602 38.3607 23.8802 38.333 23.9072 38.3133C23.9341 38.2936 23.9666 38.283 24 38.283C24.0334 38.283 24.0659 38.2936 24.0929 38.3133C24.1198 38.333 24.1398 38.3607 24.15 38.3925L24.795 41.0325C24.9165 41.5279 25.2028 41.9673 25.6068 42.2787C26.0108 42.5901 26.5087 42.7549 27.0187 42.7462C27.5287 42.7375 28.0206 42.5557 28.4138 42.2307C28.8069 41.9057 29.078 41.4568 29.1825 40.9575C29.9325 37.3725 30.03 36.075 31.0575 34.83C31.4986 34.2893 31.8298 33.6677 32.0325 33H39.75Z" fill="#3B89E4"/>
<path d="M20.01 21.93C18.5054 22.6741 17.239 23.8241 16.3536 25.2502C15.4683 26.6762 14.9995 28.3214 15 30C14.1544 30 13.3427 29.6672 12.7406 29.0735C12.1385 28.4798 11.7943 27.673 11.7825 26.8275C11.7825 24.78 14.1 21.5775 16.0125 20.0775C17.2425 20.8956 18.5906 21.5204 20.01 21.93Z" fill="#3B89E4"/>
<path d="M38.565 5.54997C36.06 12.495 35.505 15.405 31.98 18.2025C30.6913 17.3165 29.2607 16.657 27.75 16.2525C29.2513 15.3421 30.3949 13.9443 30.99 12.2925L33.9225 3.89997C34.0308 3.59514 34.1982 3.31464 34.4149 3.07447C34.6317 2.8343 34.8936 2.63918 35.1857 2.50024C35.4779 2.3613 35.7946 2.28126 36.1176 2.2647C36.4407 2.24814 36.7639 2.29538 37.0687 2.40372C37.3736 2.51206 37.6541 2.67938 37.8943 2.89613C38.1344 3.11288 38.3295 3.37481 38.4685 3.66697C38.6074 3.95912 38.6875 4.27578 38.704 4.59887C38.7206 4.92196 38.6733 5.24514 38.565 5.54997Z" fill="#3B89E4"/>
<path d="M36.045 25.8075C35.3277 23.753 34.0965 21.9163 32.4686 20.4722C30.8407 19.0281 28.8703 18.0247 26.745 17.5575C26.5381 17.0864 26.2135 16.6765 25.8025 16.367C25.3915 16.0576 24.9078 15.8591 24.3979 15.7906C23.888 15.722 23.369 15.7858 22.8908 15.9757C22.4127 16.1656 21.9914 16.4753 21.6675 16.875C20.5936 16.5197 19.6158 15.9224 18.8096 15.1291C18.0033 14.3359 17.3901 13.3679 17.0175 12.3L14.0775 3.89997C13.8587 3.28434 13.4043 2.78084 12.8142 2.50024C12.2242 2.21964 11.5469 2.18492 10.9312 2.40372C10.3156 2.62253 9.81209 3.07693 9.53149 3.66697C9.25089 4.257 9.21617 4.93434 9.43497 5.54997C11.805 12.105 12.5775 16.2375 17.34 19.125C18.7194 19.9677 20.2466 20.5403 21.84 20.8125C22.3411 21.3396 23.0167 21.6667 23.741 21.7329C24.4653 21.7991 25.189 21.6 25.7775 21.1725C27.8157 21.5831 29.649 22.6868 30.9656 24.2961C32.2822 25.9053 33.0011 27.9208 33 30C33.5065 30.0032 34.0064 29.8856 34.4584 29.6571C34.9104 29.4285 35.3015 29.0955 35.5991 28.6857C35.8968 28.2759 36.0925 27.801 36.17 27.3005C36.2475 26.7999 36.2047 26.2881 36.045 25.8075ZM24 20.25C23.7033 20.25 23.4133 20.162 23.1666 19.9972C22.9199 19.8324 22.7277 19.5981 22.6142 19.324C22.5006 19.0499 22.4709 18.7483 22.5288 18.4573C22.5867 18.1664 22.7295 17.8991 22.9393 17.6893C23.1491 17.4795 23.4164 17.3367 23.7073 17.2788C23.9983 17.2209 24.2999 17.2506 24.574 17.3642C24.8481 17.4777 25.0824 17.6699 25.2472 17.9166C25.412 18.1633 25.5 18.4533 25.5 18.75C25.5 19.1478 25.3419 19.5293 25.0606 19.8106C24.7793 20.0919 24.3978 20.25 24 20.25Z" fill="#3B89E4"/>
</svg>
