<svg width="48" height="48" viewBox="0 0 48 48" fill="none" xmlns="http://www.w3.org/2000/svg">
<path d="M27.24 2.77504C22.4025 4.50004 20.88 1.91254 16.83 2.28754C9.40498 2.97754 5.53498 12.0375 10.4025 18.0375C11.3175 19.1775 12.0075 22.725 12.4875 24.1125C12.711 24.7303 13.1183 25.2648 13.6546 25.6442C14.1909 26.0237 14.8305 26.2298 15.4875 26.235H32.4825C33.1394 26.2298 33.779 26.0237 34.3153 25.6442C34.8516 25.2648 35.2589 24.7303 35.4825 24.1125C35.9625 22.725 36.6525 19.1775 37.5675 18.0375C43.59 10.5975 36.2175 -0.382465 27.24 2.77504ZM31.32 6.03754C29.0847 7.30382 26.5686 7.99213 24 8.04004C21.4313 7.99213 18.9153 7.30382 16.68 6.03754C16.5441 5.92351 16.4531 5.76504 16.423 5.59026C16.393 5.41548 16.4258 5.23569 16.5157 5.08283C16.6056 4.92997 16.7468 4.81391 16.9142 4.75528C17.0816 4.69664 17.2643 4.69921 17.43 4.76254C22.17 7.13253 25.77 7.13253 30.51 4.76254C30.5937 4.70935 30.6871 4.67317 30.7848 4.65608C30.8825 4.63898 30.9826 4.64129 31.0794 4.66288C31.1762 4.68447 31.2678 4.72491 31.349 4.7819C31.4301 4.8389 31.4993 4.91132 31.5525 4.99504C31.6057 5.07875 31.6418 5.17213 31.6589 5.26982C31.676 5.36752 31.6737 5.46763 31.6521 5.56444C31.6305 5.66124 31.5901 5.75285 31.5331 5.83402C31.4761 5.9152 31.4037 5.98435 31.32 6.03754Z" fill="#3B89E4"/>
<path d="M21.0375 45.75H27L27.915 44.0025L19.665 43.0275C20.0475 43.86 20.505 44.73 21.0375 45.75Z" fill="#ABCDEB"/>
<path d="M32.3174 30L31.305 29.91L31.4549 27.75H16.5449L16.5974 28.575L15.8474 28.5C15.6485 28.4821 15.4507 28.5439 15.2973 28.6719C15.144 28.7999 15.0479 28.9836 15.03 29.1825C15.012 29.3814 15.0739 29.5793 15.2019 29.7326C15.3299 29.8859 15.5135 29.9821 15.7124 30L32.2125 31.5C32.4114 31.5139 32.6077 31.4483 32.7582 31.3175C32.9087 31.1866 33.001 31.0014 33.0149 30.8025C33.0289 30.6036 32.9632 30.4073 32.8324 30.2568C32.7016 30.1063 32.5164 30.0139 32.3174 30Z" fill="#ABCDEB"/>
<path d="M32.3175 33.75L31.05 33.6375L31.1025 32.8875L16.8075 31.605L16.86 32.355L15.8175 32.25C15.6186 32.2321 15.4207 32.2939 15.2674 32.4219C15.1141 32.5499 15.0179 32.7336 15 32.9325C14.9821 33.1314 15.0439 33.3293 15.1719 33.4826C15.2999 33.6359 15.4836 33.7321 15.6825 33.75L32.1825 35.25C32.3814 35.2679 32.5793 35.206 32.7326 35.078C32.8859 34.95 32.9821 34.7664 33 34.5675C33.0179 34.3686 32.956 34.1707 32.828 34.0174C32.7001 33.8641 32.5164 33.7679 32.3175 33.75Z" fill="#ABCDEB"/>
<path d="M31.575 37.5001L30.825 37.4251L30.8775 36.6301L17.07 35.3776L17.115 36.0601L16.575 36.0001C16.376 35.9802 16.1774 36.0401 16.0227 36.1667C15.8679 36.2933 15.7699 36.4762 15.75 36.6751C15.7301 36.874 15.79 37.0726 15.9166 37.2274C16.0432 37.3821 16.226 37.4802 16.425 37.5001L31.425 39.0001C31.6239 39.02 31.8225 38.96 31.9773 38.8334C32.132 38.7068 32.2301 38.524 32.25 38.3251C32.2698 38.1262 32.2099 37.9275 32.0833 37.7728C31.9567 37.6181 31.7739 37.52 31.575 37.5001Z" fill="#ABCDEB"/>
<path d="M30.09 41.25L29.34 41.16L29.775 40.3275L17.5575 39.1125L17.925 39.8625L17.34 39.75C17.141 39.7261 16.9408 39.7822 16.7833 39.906C16.6257 40.0298 16.5238 40.2111 16.5 40.41C16.4761 40.6089 16.5322 40.8091 16.656 40.9667C16.7798 41.1242 16.961 41.2261 17.16 41.25L29.91 42.75C30.1089 42.7739 30.3091 42.7177 30.4666 42.594C30.6242 42.4702 30.7261 42.2889 30.75 42.09C30.7738 41.8911 30.7177 41.6908 30.5939 41.5333C30.4701 41.3758 30.2889 41.2739 30.09 41.25Z" fill="#ABCDEB"/>
</svg>
