<svg width="48" height="48" viewBox="0 0 48 48" fill="none" xmlns="http://www.w3.org/2000/svg">
<path d="M13.5 15.945C13.6815 16.2926 13.9543 16.5842 14.289 16.7886C14.6238 16.993 15.0078 17.1023 15.4 17.105H32.45C32.8395 17.0961 33.2199 16.9847 33.5526 16.7819C33.8853 16.5791 34.1586 16.2922 34.345 15.95C34.7083 15.296 35.1211 14.6708 35.58 14.08C36.3522 13.1542 36.8987 12.0616 37.1764 10.8885C37.4541 9.71532 37.4553 8.49369 37.18 7.31998C36.535 4.39998 34.08 2.37498 31.235 1.49998C29.7765 1.07553 28.2138 1.19273 26.835 1.82998C25.9656 2.21485 25.0278 2.42155 24.0771 2.43786C23.1264 2.45418 22.1821 2.27978 21.3 1.92498C19.7544 1.28412 18.0432 1.15899 16.4208 1.56816C14.7984 1.97734 13.3512 2.89899 12.2944 4.19619C11.2375 5.4934 10.6274 7.09693 10.5545 8.76857C10.4816 10.4402 10.95 12.0907 11.89 13.475C12.31 14.08 12.925 15.03 13.5 15.945ZM20.08 3.94498C20.1052 3.88416 20.1421 3.82891 20.1887 3.7824C20.2353 3.73589 20.2906 3.69904 20.3514 3.67395C20.4123 3.64887 20.4775 3.63605 20.5433 3.63622C20.6091 3.6364 20.6743 3.64957 20.735 3.67498C21.8027 4.10682 22.946 4.32045 24.0976 4.30328C25.2492 4.2861 26.3857 4.03847 27.44 3.57498C27.5007 3.55003 27.5658 3.53728 27.6314 3.53747C27.6971 3.53767 27.7621 3.55079 27.8227 3.57609C27.8833 3.6014 27.9383 3.63839 27.9846 3.68495C28.0309 3.73151 28.0675 3.78674 28.0925 3.84748C28.1174 3.90822 28.1302 3.97327 28.13 4.03893C28.1298 4.10459 28.1167 4.16957 28.0914 4.23017C28.0661 4.29076 28.0291 4.34577 27.9825 4.39206C27.936 4.43836 27.8807 4.47503 27.82 4.49998C26.6417 5.02243 25.37 5.30149 24.0812 5.32039C22.7924 5.33929 21.5131 5.09765 20.32 4.60998C20.2011 4.55631 20.1079 4.4583 20.0602 4.33686C20.0126 4.21542 20.0143 4.08018 20.065 3.95998L20.08 3.94498Z" fill="#3B89E4"/>
<path d="M22.1 18.105H15.76L16 18.745C16.0914 18.9883 16.2547 19.198 16.4681 19.3463C16.6816 19.4945 16.9351 19.5743 17.195 19.575H22.725C22.4545 19.1138 22.2445 18.6198 22.1 18.105Z" fill="#3B89E4"/>
<path d="M32.4 18.745L32.64 18.1C32.535 18.1 33.26 18.1 23.17 18.1L23.41 18.74C23.5002 18.9841 23.6632 19.1946 23.8769 19.3431C24.0906 19.4915 24.3448 19.5707 24.605 19.57H31.2C31.46 19.57 31.7139 19.4912 31.9282 19.3439C32.1424 19.1966 32.307 18.9877 32.4 18.745Z" fill="#3B89E4"/>
<path d="M25.915 28.725L22.83 29.175C23.3036 29.5105 23.8881 29.6509 24.4625 29.5671C25.0368 29.4833 25.5569 29.1818 25.915 28.725Z" fill="#3B89E4"/>
<path d="M47.5 35V31.34H39.12C38.9874 31.34 38.8602 31.2873 38.7664 31.1935C38.6727 31.0997 38.62 30.9726 38.62 30.84C38.62 30.7073 38.6727 30.5802 38.7664 30.4864C38.8602 30.3926 38.9874 30.34 39.12 30.34H41.315C40.7453 30.0259 40.2164 29.643 39.74 29.2C38.685 28.2151 37.412 27.4938 36.025 27.095C35.4724 26.9478 34.8859 26.9982 34.3665 27.2373C33.8471 27.4765 33.4274 27.8894 33.18 28.405L32.56 29.655C32.3699 30.0201 32.0824 30.3255 31.7294 30.5373C31.3764 30.7491 30.9716 30.859 30.56 30.855C30.1877 30.8612 29.8229 30.9606 29.4989 31.144C29.1749 31.3274 28.902 31.589 28.705 31.905L26.85 34.845C26.6692 35.1372 26.4207 35.3817 26.1257 35.5579C25.8306 35.7341 25.4975 35.8368 25.1544 35.8574C24.8114 35.878 24.4684 35.8158 24.1544 35.6762C23.8404 35.5365 23.5645 35.3235 23.35 35.055L22.4 33.865C22.1853 33.5876 21.9172 33.3562 21.6114 33.1844C21.3057 33.0127 20.9685 32.904 20.62 32.865C20.1655 32.8254 19.7282 32.6724 19.3481 32.4199C18.9681 32.1675 18.6576 31.8236 18.445 31.42L16.67 28.065C16.4585 27.6721 16.1458 27.3429 15.7642 27.1117C15.3826 26.8805 14.9461 26.7556 14.5 26.75C12.1492 26.746 9.88874 27.6548 8.195 29.285C7.76416 29.6948 7.28377 30.0493 6.765 30.34H9.765C9.89761 30.34 10.0248 30.3926 10.1186 30.4864C10.2123 30.5802 10.265 30.7073 10.265 30.84C10.265 30.9726 10.2123 31.0997 10.1186 31.1935C10.0248 31.2873 9.89761 31.34 9.765 31.34H0.5V41.035L1.06 40.5C2.44296 39.1517 4.29855 38.3979 6.23 38.4H10.28C11.5832 38.4001 12.8632 38.7451 13.99 39.4L16.935 41.1C17.6946 41.5406 18.5569 41.7734 19.435 41.775H23.74C26.415 41.775 27.505 39.32 30.83 39.32H34.51C35.7597 39.3136 36.9812 39.6905 38.01 40.4C40.23 41.93 39.8 41.775 42.34 41.775C42.9996 41.7772 43.6362 41.5329 44.125 41.09L47.5 38.045V36.42L45 39.03C44.9535 39.0787 44.8977 39.1176 44.8358 39.1442C44.774 39.1708 44.7074 39.1847 44.64 39.185C44.5413 39.1855 44.4446 39.1569 44.3622 39.1026C44.2797 39.0483 44.2152 38.9709 44.1767 38.88C44.1382 38.7891 44.1274 38.6888 44.1458 38.5918C44.1642 38.4948 44.2109 38.4054 44.28 38.335L47.5 35Z" fill="#ABCDEB"/>
<path d="M42.34 42.765C40.895 42.765 39.89 42.9 38.77 42.125C35.705 40.02 36.18 40.31 30.845 40.31C29.9379 40.3103 29.0466 40.5482 28.26 41C24.76 43.04 25.695 42.765 19.45 42.765C18.396 42.7647 17.3609 42.4853 16.45 41.955L13.5 40.255C12.5247 39.6893 11.4175 39.391 10.29 39.39H6.24C4.56969 39.3906 2.96569 40.0436 1.77 41.21L0.5 42.435V46.765H47.5V39.39L44.795 41.825C44.1213 42.4315 43.2465 42.7665 42.34 42.765ZM9.405 43.08H5.53C5.39739 43.08 5.27021 43.0273 5.17645 42.9335C5.08268 42.8397 5.03 42.7126 5.03 42.58C5.03 42.4473 5.08268 42.3202 5.17645 42.2264C5.27021 42.1326 5.39739 42.08 5.53 42.08H9.405C9.53761 42.08 9.66479 42.1326 9.75855 42.2264C9.85232 42.3202 9.905 42.4473 9.905 42.58C9.905 42.7126 9.85232 42.8397 9.75855 42.9335C9.66479 43.0273 9.53761 43.08 9.405 43.08Z" fill="#ABCDEB"/>
<path d="M27.755 26.94C27.7476 26.8736 27.727 26.8094 27.6944 26.7512C27.6618 26.693 27.6179 26.6418 27.5653 26.6008C27.5126 26.5598 27.4523 26.5298 27.3878 26.5124C27.3234 26.4951 27.2561 26.4909 27.19 26.5L20.935 27.435C20.8024 27.4449 20.6791 27.5071 20.5924 27.6079C20.5057 27.7087 20.4625 27.8398 20.4725 27.9725C20.4824 28.1051 20.5446 28.2283 20.6454 28.315C20.7462 28.4018 20.8774 28.4449 21.01 28.435C21.06 28.435 20.615 28.495 27.335 27.515C27.4005 27.5052 27.4635 27.4826 27.5201 27.4483C27.5768 27.414 27.6262 27.3688 27.6652 27.3153C27.7043 27.2618 27.7324 27.2011 27.7478 27.1366C27.7632 27.0722 27.7656 27.0053 27.755 26.94Z" fill="#3B89E4"/>
<path d="M28.395 24.94C28.3876 24.8736 28.367 24.8094 28.3344 24.7512C28.3018 24.693 28.2579 24.6418 28.2052 24.6008C28.1526 24.5598 28.0923 24.5298 28.0278 24.5124C27.9634 24.4951 27.8961 24.4909 27.83 24.5L20.3 25.62C20.1674 25.6292 20.0439 25.6908 19.9567 25.7912C19.8695 25.8915 19.8257 26.0223 19.835 26.155C19.8442 26.2876 19.9058 26.4111 20.0062 26.4983C20.1065 26.5855 20.2374 26.6292 20.37 26.62C20.42 26.62 19.87 26.695 27.975 25.51C28.04 25.5002 28.1025 25.4777 28.1588 25.4437C28.2151 25.4098 28.2642 25.365 28.3032 25.3121C28.3422 25.2592 28.3704 25.199 28.3862 25.1352C28.4019 25.0713 28.4049 25.005 28.395 24.94Z" fill="#3B89E4"/>
<path d="M28.63 23C28.6102 22.8696 28.5397 22.7523 28.4339 22.6737C28.3281 22.595 28.1955 22.5613 28.065 22.58L20.065 23.75C19.9324 23.7599 19.8091 23.8221 19.7224 23.9229C19.6357 24.0237 19.5925 24.1549 19.6025 24.2875C19.6124 24.4201 19.6746 24.5433 19.7754 24.63C19.8762 24.7168 20.0074 24.7599 20.14 24.75C20.19 24.75 19.585 24.835 28.215 23.575C28.2801 23.5646 28.3425 23.5415 28.3986 23.507C28.4547 23.4725 28.5035 23.4272 28.542 23.3738C28.5806 23.3203 28.6082 23.2598 28.6233 23.1956C28.6384 23.1315 28.6407 23.065 28.63 23Z" fill="#3B89E4"/>
<path d="M29.19 21C29.1703 20.8696 29.0998 20.7523 28.994 20.6737C28.8882 20.595 28.7556 20.5613 28.625 20.58L19.5 21.915C19.3674 21.9243 19.2439 21.9858 19.1567 22.0862C19.0695 22.1865 19.0258 22.3174 19.035 22.45C19.0443 22.5826 19.1059 22.7061 19.2062 22.7933C19.3066 22.8805 19.4374 22.9243 19.57 22.915C19.625 22.915 18.94 23.015 28.76 21.575C28.8265 21.5664 28.8905 21.5446 28.9483 21.5109C29.0062 21.4771 29.0566 21.4321 29.0967 21.3785C29.1369 21.3249 29.1658 21.2637 29.1818 21.1987C29.1978 21.1337 29.2006 21.0661 29.19 21Z" fill="#3B89E4"/>
</svg>
