<svg xmlns="http://www.w3.org/2000/svg" width="195" height="84" viewBox="0 0 195 84" fill="none">
<path d="M67.6207 55.6923C67.4589 55.7028 67.2968 55.6798 67.1445 55.625C66.9922 55.5701 66.853 55.4845 66.7357 55.3735C66.5211 55.1273 66.4123 54.8074 66.4328 54.4825V45.9665C66.4328 45.1581 66.8287 44.7549 67.6207 44.7566C68.4126 44.7583 68.8041 45.1616 68.7953 45.9665V49.1727H73.7996V45.9665C73.7996 45.1581 74.1903 44.7549 74.9716 44.7566C75.753 44.7583 76.1498 45.1616 76.1621 45.9665V54.4825C76.1819 54.8077 76.0722 55.1277 75.8566 55.3735C75.7396 55.4849 75.6004 55.5708 75.4481 55.6256C75.2957 55.6805 75.1334 55.7033 74.9716 55.6923C74.8124 55.7023 74.6527 55.6791 74.503 55.6242C74.3533 55.5693 74.2169 55.4839 74.1025 55.3735C73.8879 55.1273 73.7791 54.8074 73.7996 54.4825V51.1247H68.7953V54.4825C68.7953 55.2873 68.4029 55.6923 67.6207 55.6923Z" fill="#315294"/>
<path d="M83.3103 55.7212C82.3371 55.7434 81.3756 55.5061 80.5264 55.034C79.7358 54.5814 79.0909 53.9153 78.6669 53.1133C78.23 52.2092 78.0032 51.2194 78.0032 50.2167C78.0032 49.2141 78.23 48.2242 78.6669 47.3201C79.0843 46.5206 79.7242 45.8567 80.5106 45.4074C81.3729 44.9594 82.3317 44.7253 83.3051 44.7253C84.2784 44.7253 85.2373 44.9594 86.0995 45.4074C86.8918 45.8544 87.5374 46.5185 87.959 47.3201C88.4174 48.2087 88.6455 49.1966 88.6227 50.1945C88.651 51.2035 88.4265 52.2037 87.9696 53.1055C87.5472 53.9107 86.9022 54.5797 86.1101 55.034C85.2556 55.5075 84.2888 55.7448 83.3103 55.7212ZM83.3103 53.7248C83.7085 53.7441 84.1056 53.6699 84.4695 53.5083C84.8333 53.3466 85.1536 53.1021 85.4042 52.7945C85.9099 52.1744 86.1619 51.3147 86.1601 50.2154C86.1584 49.1162 85.909 48.2565 85.4121 47.6363C85.1464 47.3482 84.8231 47.1182 84.4628 46.9607C84.1025 46.8033 83.7132 46.7221 83.3196 46.7221C82.9259 46.7221 82.5366 46.8033 82.1763 46.9607C81.816 47.1182 81.4927 47.3482 81.227 47.6363C80.7248 48.2478 80.4737 49.1075 80.4737 50.2154C80.4737 51.3234 80.7248 52.1796 81.227 52.7841C81.4749 53.0927 81.7929 53.3388 82.1549 53.5023C82.517 53.6658 82.9129 53.742 83.3103 53.7248Z" fill="#315294"/>
<path d="M91.6938 55.5565C90.872 55.5565 90.4585 55.1463 90.4585 54.331V46.1181C90.4585 45.3002 90.872 44.8926 91.6938 44.8926H95.3811C96.5294 44.8926 97.4162 45.1391 98.0413 45.6321C98.3476 45.8728 98.5923 46.182 98.7552 46.5344C98.9182 46.8868 98.9948 47.2724 98.9789 47.6598C98.9923 48.1788 98.8432 48.6891 98.5522 49.1205C98.2568 49.5369 97.842 49.8555 97.3617 50.0351C97.9266 50.1641 98.4276 50.4866 98.7764 50.946C99.1252 51.4053 99.2995 51.972 99.2686 52.5463C99.2898 52.9675 99.2105 53.3878 99.037 53.7728C98.8636 54.1579 98.6009 54.4969 98.2704 54.7622C97.6032 55.2848 96.6963 55.5461 95.5497 55.5461L91.6938 55.5565ZM92.7157 49.2852H94.9729C96.1317 49.2852 96.7085 48.8436 96.7085 47.9551C96.7085 47.0667 96.1317 46.6486 94.9729 46.6486H92.7104L92.7157 49.2852ZM92.7104 53.8293H95.2257C95.8367 53.8293 96.2792 53.7143 96.5663 53.4818C96.7143 53.3495 96.8298 53.1853 96.9038 53.0019C96.9777 52.8184 97.0083 52.6205 96.993 52.4235C97.0074 52.2284 96.9764 52.0328 96.9024 51.8515C96.8285 51.6703 96.7135 51.5083 96.5663 51.3782C96.2819 51.1483 95.8367 51.0307 95.2257 51.0307H92.7104V53.8293Z" fill="#315294"/>
<path d="M101.207 55.6925C101.031 55.7085 100.853 55.6778 100.692 55.6034C100.532 55.529 100.394 55.4137 100.293 55.2692C100.203 55.1089 100.157 54.9279 100.16 54.7445C100.163 54.561 100.214 54.3815 100.309 54.2239L104.212 45.7288C104.337 45.4332 104.536 45.1748 104.792 44.9789C105.022 44.8271 105.292 44.7461 105.569 44.7461C105.845 44.7461 106.115 44.8271 106.346 44.9789C106.598 45.1739 106.793 45.433 106.909 45.7288L110.844 54.2135C111.036 54.6368 111.043 54.9852 110.865 55.2587C110.772 55.3982 110.644 55.5103 110.492 55.5834C110.34 55.6565 110.172 55.6878 110.004 55.6742C109.72 55.6897 109.439 55.6035 109.214 55.4312C108.993 55.2201 108.824 54.9618 108.719 54.676L108.079 53.2231H103.074L102.448 54.676C102.34 54.961 102.174 55.2208 101.96 55.439C101.752 55.6179 101.482 55.7089 101.207 55.6925ZM105.537 47.3881L103.846 51.4123H107.291L105.569 47.3881H105.537Z" fill="#315294"/>
<path d="M119.702 55.6923C118.912 55.6923 118.511 55.2873 118.511 54.4825V51.4252H117.505C117.233 51.4198 116.963 51.4742 116.715 51.5846C116.474 51.7085 116.282 51.9079 116.167 52.1516L114.611 54.9816C114.485 55.2385 114.275 55.4457 114.015 55.5695C113.797 55.6701 113.552 55.702 113.315 55.661C113.087 55.6245 112.875 55.5218 112.706 55.3657C112.533 55.2102 112.419 54.9995 112.385 54.7699C112.353 54.4915 112.412 54.2102 112.554 53.9677L113.423 52.3998C113.547 52.137 113.723 51.9014 113.94 51.7067C114.157 51.512 114.411 51.3621 114.687 51.2658C113.97 51.1189 113.324 50.7347 112.856 50.1761C112.417 49.5981 112.191 48.8877 112.216 48.1641C112.216 47.1362 112.542 46.3349 113.194 45.76C113.845 45.1851 114.769 44.8977 115.967 44.8977H119.641C120.475 44.8977 120.892 45.3062 120.892 46.1232V54.4851C120.903 54.6469 120.88 54.8091 120.826 54.9621C120.773 55.1152 120.688 55.2559 120.579 55.3761C120.462 55.4859 120.324 55.5706 120.174 55.625C120.023 55.6794 119.862 55.7023 119.702 55.6923ZM116.378 49.7319H118.522V46.7216H116.388C115.126 46.7216 114.496 47.2207 114.497 48.2189C114.499 49.2171 115.126 49.7214 116.378 49.7319Z" fill="#315294"/>
<path d="M71.6399 73.8742C70.6069 73.904 69.5837 73.6691 68.6689 73.1922C67.8606 72.7532 67.2002 72.088 66.7699 71.2795C66.3329 70.3726 66.1061 69.3802 66.1061 68.375C66.1061 67.3699 66.3329 66.3774 66.7699 65.4706C67.1994 64.6615 67.86 63.9961 68.6689 63.5578C69.5837 63.081 70.6069 62.8461 71.6399 62.8758C72.1624 62.8785 72.6825 62.9452 73.1885 63.0744C73.6655 63.185 74.1247 63.3609 74.5529 63.597C74.6913 63.6654 74.8141 63.7612 74.9137 63.8785C75.0134 63.9958 75.0878 64.1321 75.1323 64.279C75.2077 64.5398 75.1833 64.819 75.0638 65.0629C74.9561 65.299 74.7622 65.4857 74.5213 65.5856C74.3855 65.6332 74.2402 65.6483 74.0974 65.6297C73.9546 65.6111 73.8183 65.5593 73.6995 65.4784C73.4008 65.3005 73.0767 65.1684 72.7382 65.0865C72.4037 65.0051 72.0606 64.9639 71.7162 64.9636C70.6891 64.9636 69.9147 65.2589 69.3932 65.8495C68.8717 66.44 68.6083 67.2849 68.6031 68.3842C68.6031 69.4817 68.8665 70.3283 69.3932 70.9241C69.92 71.5199 70.6943 71.8169 71.7162 71.8151C72.0526 71.8144 72.3877 71.774 72.7145 71.6949C73.0581 71.6131 73.3893 71.4866 73.6995 71.3187C73.8241 71.2375 73.9654 71.1851 74.113 71.1652C74.2607 71.1453 74.411 71.1584 74.5529 71.2037C74.7878 71.2927 74.9811 71.4649 75.0954 71.6871C75.2124 71.9165 75.2414 72.1802 75.1771 72.4292C75.14 72.5692 75.074 72.7 74.9834 72.8133C74.8927 72.9267 74.7793 73.0201 74.6503 73.0877C74.2204 73.3579 73.7489 73.5565 73.2544 73.6757C72.7269 73.8096 72.1844 73.8763 71.6399 73.8742Z" fill="#315294"/>
<path d="M80.4579 73.8428C80.2961 73.8534 80.134 73.8306 79.9816 73.7757C79.8293 73.7208 79.6901 73.6351 79.5729 73.524C79.3633 73.2795 79.2575 72.9638 79.2779 72.6434V64.9793H76.5703C75.9084 64.9793 75.5783 64.6561 75.58 64.0098C75.5818 63.3635 75.9119 63.0412 76.5703 63.043H84.3296C84.9898 63.043 85.3208 63.3653 85.3225 64.0098C85.3243 64.6544 84.9933 64.9775 84.3296 64.9793H81.6325V72.6434C81.6528 72.9674 81.5462 73.2866 81.3349 73.5345C81.2189 73.6443 81.0808 73.7285 80.9296 73.7817C80.7785 73.8348 80.6177 73.8557 80.4579 73.8428Z" fill="#315294"/>
<path d="M90.7956 73.8742C89.8221 73.8956 88.8607 73.6574 88.0117 73.1843C87.22 72.7331 86.5748 72.0667 86.1522 71.2637C85.7153 70.3596 85.4885 69.3698 85.4885 68.3671C85.4885 67.3645 85.7153 66.3746 86.1522 65.4705C86.5708 64.6719 87.2104 64.0083 87.9959 63.5578C88.8581 63.1098 89.817 62.8757 90.7903 62.8757C91.7637 62.8757 92.7226 63.1098 93.5848 63.5578C94.3771 64.0048 95.0227 64.6689 95.4443 65.4705C95.9019 66.3594 96.1299 67.3471 96.108 68.3449C96.1318 69.3522 95.9037 70.3496 95.4443 71.2481C95.0236 72.0544 94.3781 72.7238 93.5848 73.1765C92.7345 73.6519 91.7715 73.8928 90.7956 73.8742ZM90.7956 71.8778C91.1958 71.8981 91.5952 71.8245 91.9614 71.6629C92.3275 71.5012 92.65 71.2561 92.9027 70.9476C93.4066 70.3256 93.6577 69.4659 93.6559 68.3684C93.6542 67.271 93.4057 66.4112 92.9106 65.7893C92.6452 65.5005 92.3221 65.2698 91.9618 65.1119C91.6014 64.9541 91.2119 64.8725 90.818 64.8725C90.4241 64.8725 90.0346 64.9541 89.6742 65.1119C89.3139 65.2698 88.9908 65.5005 88.7254 65.7893C88.2233 66.3973 87.9713 67.257 87.9695 68.3684C87.9678 69.4799 88.2197 70.3396 88.7254 70.9476C88.9733 71.2523 89.2896 71.4952 89.6491 71.6567C90.0086 71.8183 90.4013 71.894 90.7956 71.8778Z" fill="#315294"/>
<path d="M99.0316 73.8429C98.887 73.8514 98.7423 73.8303 98.6063 73.7809C98.4704 73.7314 98.3462 73.6547 98.2414 73.5555C98.0522 73.332 97.9578 73.0444 97.978 72.7533V63.9968C97.968 63.8493 97.9885 63.7014 98.0383 63.562C98.0882 63.4227 98.1663 63.295 98.2678 63.1868C98.3798 63.0885 98.5103 63.0132 98.6518 62.9652C98.7933 62.9172 98.9429 62.8975 99.0922 62.9072C99.3463 62.8944 99.5985 62.9572 99.8165 63.0875C100.024 63.2453 100.193 63.4471 100.312 63.678L103.572 69.5914L106.836 63.678C106.954 63.4471 107.123 63.2453 107.331 63.0875C107.543 62.9584 107.79 62.8956 108.039 62.9072C108.183 62.8993 108.327 62.92 108.463 62.968C108.598 63.016 108.723 63.0904 108.829 63.1868C108.929 63.2959 109.005 63.4239 109.054 63.5632C109.102 63.7024 109.122 63.8499 109.111 63.9968V72.7533C109.111 73.4797 108.756 73.8429 108.045 73.8429C107.333 73.8429 106.973 73.4797 106.962 72.7533V67.2031L104.463 71.6636C104.363 71.832 104.231 71.9787 104.073 72.0948C103.912 72.1978 103.723 72.2481 103.533 72.2385C103.34 72.2476 103.148 72.1974 102.985 72.0948C102.825 71.9833 102.694 71.8355 102.603 71.6636L100.101 67.2475V72.7533C100.106 73.4797 99.7497 73.8429 99.0316 73.8429Z" fill="#315294"/>
<path d="M111.605 73.8428C111.429 73.8588 111.251 73.8281 111.091 73.7537C110.93 73.6793 110.792 73.564 110.691 73.4195C110.601 73.2594 110.555 73.0786 110.557 72.8951C110.559 72.7116 110.61 72.532 110.705 72.3742L114.608 63.8896C114.733 63.5952 114.933 63.3378 115.187 63.1422C115.418 62.9889 115.688 62.907 115.966 62.907C116.243 62.907 116.514 62.9889 116.744 63.1422C116.996 63.3369 117.19 63.5949 117.308 63.8896L121.24 72.3821C121.433 72.8071 121.441 73.1555 121.264 73.4273C121.17 73.5661 121.041 73.6778 120.89 73.7508C120.738 73.8239 120.57 73.8556 120.402 73.8428C120.118 73.8588 119.838 73.7725 119.612 73.5998C119.391 73.3892 119.221 73.1307 119.117 72.8446L118.477 71.3917H113.449L112.825 72.8446C112.716 73.129 112.55 73.3886 112.338 73.6076C112.132 73.7748 111.871 73.8588 111.605 73.8428ZM115.935 65.5384L114.242 69.5625H117.687L115.964 65.5384H115.935Z" fill="#315294"/>
<path d="M125.204 73.8428C125.042 73.8537 124.881 73.831 124.729 73.7761C124.577 73.7212 124.438 73.6353 124.321 73.524C124.214 73.4027 124.132 73.2616 124.079 73.1087C124.027 72.9558 124.005 72.7941 124.016 72.633V64.9793H121.316C120.656 64.9793 120.326 64.6561 120.326 64.0098C120.326 63.3635 120.656 63.0412 121.316 63.043H129.076C129.736 63.043 130.067 63.3653 130.068 64.0098C130.07 64.6544 129.739 64.9775 129.076 64.9793H126.378V72.6434C126.399 72.9674 126.292 73.2866 126.081 73.5345C125.965 73.6443 125.827 73.7285 125.676 73.7817C125.524 73.8348 125.364 73.8557 125.204 73.8428Z" fill="#315294"/>
<path d="M135.542 73.8742C134.568 73.8956 133.607 73.6574 132.758 73.1843C131.966 72.7331 131.321 72.0667 130.898 71.2637C130.461 70.3596 130.234 69.3698 130.234 68.3671C130.234 67.3645 130.461 66.3746 130.898 65.4705C131.317 64.6719 131.956 64.0083 132.742 63.5578C133.604 63.1098 134.563 62.8757 135.536 62.8757C136.51 62.8757 137.468 63.1098 138.331 63.5578C139.123 64.0048 139.769 64.6689 140.19 65.4705C140.648 66.3594 140.876 67.3471 140.854 68.3449C140.878 69.3522 140.65 70.3496 140.19 71.2481C139.769 72.0544 139.124 72.7238 138.331 73.1765C137.48 73.6519 136.517 73.8928 135.542 73.8742ZM135.542 71.8778C135.942 71.8981 136.341 71.8245 136.707 71.6629C137.073 71.5012 137.396 71.2561 137.649 70.9476C138.151 70.3256 138.402 69.4659 138.402 68.3684C138.402 67.271 138.153 66.4112 137.656 65.7893C137.391 65.5005 137.068 65.2698 136.708 65.1119C136.347 64.9541 135.958 64.8725 135.564 64.8725C135.17 64.8725 134.78 64.9541 134.42 65.1119C134.06 65.2698 133.737 65.5005 133.471 65.7893C132.967 66.3973 132.715 67.257 132.715 68.3684C132.715 69.4799 132.967 70.3396 133.471 70.9476C133.719 71.2523 134.036 71.4952 134.395 71.6567C134.755 71.8183 135.147 71.894 135.542 71.8778Z" fill="#315294"/>
<path d="M150.862 73.8429C150.701 73.8534 150.539 73.8304 150.386 73.7756C150.234 73.7207 150.095 73.6351 149.978 73.5241C149.762 73.2782 149.654 72.9581 149.675 72.6331V64.9794H146.351V66.9157C146.351 68.5985 146.112 69.9826 145.634 71.0679C145.209 72.0866 144.507 72.9685 143.606 73.6156C143.491 73.7049 143.358 73.7704 143.217 73.8081C143.075 73.8458 142.927 73.8549 142.782 73.8351C142.491 73.7805 142.234 73.6143 142.066 73.3726C141.971 73.2626 141.904 73.1326 141.868 72.9926C141.833 72.8526 141.83 72.7064 141.86 72.5651C141.938 72.2811 142.113 72.0326 142.355 71.8622C143.017 71.3621 143.501 70.6654 143.735 69.8737C144.025 69.0026 144.17 67.8146 144.17 66.3094V64.2817C144.17 63.4647 144.587 63.0562 145.421 63.0562H150.802C151.634 63.0562 152.053 63.4638 152.053 64.2817V72.6435C152.063 72.8053 152.04 72.9674 151.987 73.1203C151.933 73.2733 151.849 73.4142 151.74 73.5346C151.622 73.6428 151.484 73.726 151.333 73.779C151.182 73.8321 151.022 73.8538 150.862 73.8429Z" fill="#315294"/>
<path d="M159.188 73.8742C158.214 73.8956 157.253 73.6574 156.404 73.1843C155.612 72.7331 154.967 72.0667 154.545 71.2637C154.108 70.3596 153.881 69.3698 153.881 68.3671C153.881 67.3645 154.108 66.3746 154.545 65.4705C154.963 64.6719 155.603 64.0083 156.388 63.5578C157.25 63.1098 158.209 62.8757 159.183 62.8757C160.156 62.8757 161.115 63.1098 161.977 63.5578C162.769 64.0048 163.415 64.6689 163.837 65.4705C164.294 66.3594 164.522 67.3471 164.5 68.3449C164.524 69.3522 164.296 70.3496 163.837 71.2481C163.416 72.0544 162.77 72.7238 161.977 73.1765C161.127 73.6519 160.164 73.8928 159.188 73.8742ZM159.188 71.8778C159.588 71.8981 159.988 71.8245 160.354 71.6629C160.72 71.5012 161.042 71.2561 161.295 70.9476C161.797 70.3256 162.048 69.4659 162.048 68.3684C162.048 67.271 161.799 66.4112 161.3 65.7893C161.035 65.5006 160.712 65.2699 160.352 65.1121C159.992 64.9542 159.603 64.8727 159.209 64.8727C158.815 64.8727 158.426 64.9542 158.066 65.1121C157.706 65.2699 157.383 65.5006 157.118 65.7893C156.612 66.3973 156.36 67.257 156.362 68.3684C156.364 69.4799 156.616 70.3396 157.118 70.9476C157.366 71.2523 157.682 71.4952 158.041 71.6567C158.401 71.8183 158.794 71.894 159.188 71.8778Z" fill="#315294"/>
<path d="M167.527 73.8428C167.365 73.8538 167.203 73.831 167.05 73.7761C166.898 73.7212 166.759 73.6354 166.642 73.524C166.427 73.2781 166.318 72.9579 166.339 72.633V64.2528C166.339 63.4463 166.745 63.043 167.558 63.043H172.802C173.473 63.043 173.808 63.3653 173.808 64.0098C173.808 64.6544 173.473 64.9775 172.802 64.9793H168.701V72.6434C168.722 72.9674 168.615 73.2866 168.404 73.5345C168.288 73.6443 168.15 73.7285 167.998 73.7817C167.847 73.8348 167.687 73.8556 167.527 73.8428Z" fill="#315294"/>
<path d="M176.018 73.8428C175.879 73.8496 175.74 73.8251 175.612 73.7713C175.484 73.7175 175.37 73.6356 175.278 73.5319C175.088 73.2824 174.995 72.9737 175.015 72.6617V64.0203C175.015 63.2747 175.381 62.9019 176.113 62.9019C176.845 62.9019 177.211 63.2747 177.211 64.0203V69.8605L182.15 63.5891C182.292 63.3846 182.47 63.2075 182.676 63.0665C182.885 62.9506 183.122 62.8953 183.361 62.9071C183.493 62.9013 183.624 62.9248 183.745 62.9759C183.866 63.027 183.975 63.1044 184.062 63.2024C184.246 63.4215 184.34 63.7014 184.325 63.9863V72.714C184.325 73.4683 183.959 73.8463 183.227 73.848C182.495 73.8498 182.128 73.4718 182.128 72.714V66.8607L177.19 73.153C177.039 73.3498 176.862 73.5256 176.663 73.6756C176.471 73.7967 176.245 73.8551 176.018 73.8428Z" fill="#315294"/>
<path d="M193.81 73.843C193.018 73.843 192.622 73.4397 192.622 72.6331V69.5784H191.616C191.344 69.5722 191.074 69.6258 190.825 69.7352C190.583 69.8594 190.39 70.0597 190.275 70.3049L188.721 73.1322C188.594 73.3893 188.385 73.5971 188.126 73.7228C187.906 73.8212 187.662 73.8522 187.425 73.8116C187.197 73.7746 186.984 73.672 186.814 73.5163C186.642 73.3603 186.529 73.1498 186.495 72.9206C186.46 72.6423 186.518 72.3603 186.661 72.1183L187.53 70.5505C187.656 70.2882 187.833 70.053 188.05 69.8584C188.268 69.6638 188.521 69.5136 188.797 69.4164C188.08 69.2712 187.434 68.8867 186.967 68.3268C186.526 67.7496 186.3 67.0386 186.327 66.3147C186.327 65.2886 186.652 64.4873 187.301 63.9107C187.951 63.334 188.876 63.0466 190.077 63.0483H193.765C194.597 63.0483 195.016 63.456 195.016 64.2739V72.6357C195.026 72.7975 195.003 72.9596 194.949 73.1125C194.896 73.2655 194.812 73.4063 194.702 73.5268C194.584 73.6384 194.443 73.7242 194.29 73.7787C194.136 73.8331 193.972 73.855 193.81 73.843ZM190.486 67.8825H192.622V64.8723H190.486C189.227 64.8723 188.597 65.3714 188.597 66.3696C188.597 67.3678 189.227 67.8721 190.486 67.8825Z" fill="#315294"/>
<path d="M46.6186 29.6504H43.4343C42.5264 29.6504 41.6273 29.8278 40.7885 30.1725C39.9497 30.5173 39.1875 31.0225 38.5455 31.6595C37.9035 32.2964 37.3943 33.0526 37.0468 33.8848C36.6994 34.717 36.5205 35.609 36.5205 36.5097V48.3914H17.0013V36.5097C17.0013 35.609 16.8225 34.717 16.475 33.8848C16.1276 33.0526 15.6183 32.2964 14.9763 31.6595C14.3343 31.0225 13.5721 30.5173 12.7333 30.1725C11.8945 29.8278 10.9955 29.6504 10.0875 29.6504H6.92694C6.01791 29.6487 5.11745 29.8248 4.27711 30.1688C3.43677 30.5127 2.67305 31.0177 2.02965 31.6548C1.38625 32.2919 0.87581 33.0487 0.527537 33.8818C0.179264 34.7148 -1.64904e-06 35.6079 0 36.5097L0 77.1405C0 78.9597 0.728413 80.7044 2.025 81.9908C3.32158 83.2771 5.08013 83.9998 6.91377 83.9998H10.0744C11.908 83.9998 13.6665 83.2771 14.9631 81.9908C16.2597 80.7044 16.9881 78.9597 16.9881 77.1405V65.2588H36.5074V77.1405C36.5074 78.9597 37.2358 80.7044 38.5324 81.9908C39.8289 83.2771 41.5875 83.9998 43.4211 83.9998H46.6186C48.4522 83.9998 50.2108 83.2771 51.5074 81.9908C52.8039 80.7044 53.5324 78.9597 53.5324 77.1405V36.5097C53.5324 35.609 53.3535 34.717 53.0061 33.8848C52.6586 33.0526 52.1494 32.2964 51.5074 31.6595C50.8654 31.0225 50.1032 30.5173 49.2644 30.1725C48.4256 29.8278 47.5265 29.6504 46.6186 29.6504Z" fill="#79B9E6"/>
<path d="M27.0809 23.8261C27.1889 23.8261 27.2863 23.8261 27.3891 23.8261C27.4918 23.8261 27.5919 23.8261 27.6972 23.8261C40.4317 23.8261 48.1699 15.3963 50.7352 10.4131C51.6062 8.7272 51.7688 6.76765 51.1874 4.96312C50.6059 3.15858 49.3278 1.65596 47.6326 0.783936C46.7985 0.355326 45.8872 0.0944674 44.9512 0.0163495C44.0151 -0.0617684 43.0728 0.0443944 42.1782 0.328738C41.2837 0.613081 40.4546 1.07 39.7386 1.67324C39.0225 2.27648 38.4337 3.01414 38.006 3.84385C36.9466 5.6147 35.4365 7.07802 33.6271 8.08704C31.8177 9.09605 29.7727 9.61527 27.6972 9.59262C27.5919 9.59262 27.4944 9.59262 27.3891 9.57956C27.2837 9.56649 27.1889 9.59262 27.0809 9.59262C25.0058 9.61534 22.9611 9.09613 21.1521 8.08708C19.3432 7.07804 17.8335 5.61467 16.7748 3.84385C16.347 3.01414 15.7582 2.27648 15.0422 1.67324C14.3262 1.07 13.4971 0.613081 12.6025 0.328738C11.708 0.0443944 10.7656 -0.0617684 9.82956 0.0163495C8.89352 0.0944674 7.98227 0.355326 7.14816 0.783936C5.45294 1.65596 4.17482 3.15858 3.59338 4.96312C3.01193 6.76765 3.1745 8.7272 4.04552 10.4131C6.61086 15.3963 14.349 23.8261 27.0809 23.8261Z" fill="#79B9E6"/>
</svg>