<svg width="44" height="44" viewBox="0 0 44 44" fill="none" xmlns="http://www.w3.org/2000/svg">
<g clip-path="url(#clip0_19_94)">
<path d="M33 22C26.9335 22 22 26.9335 22 33C22 39.0665 26.9335 44 33 44C39.0665 44 44 39.0665 44 33C44 26.9335 39.0665 22 33 22ZM33 25.6667C35.0258 25.6667 36.6667 27.3075 36.6667 29.3333C36.6667 31.3592 35.0258 33 33 33C30.9742 33 29.3333 31.3592 29.3333 29.3333C29.3333 27.3075 30.9742 25.6667 33 25.6667ZM38.5 37.8455C37.1543 39.3708 35.189 40.3333 33 40.3333C30.811 40.3333 28.8457 39.369 27.5 37.8455V37.5833C27.5 36.0653 28.732 34.8333 30.25 34.8333H35.75C37.268 34.8333 38.5 36.0653 38.5 37.5833V37.8455ZM0 14.6667V12.8333C0 7.77883 4.11217 3.66667 9.16667 3.66667H11V1.83333C11 0.821333 11.8213 0 12.8333 0C13.8453 0 14.6667 0.821333 14.6667 1.83333V3.66667H29.3333V1.83333C29.3333 0.821333 30.1547 0 31.1667 0C32.1787 0 33 0.821333 33 1.83333V3.66667H34.8333C39.8878 3.66667 44 7.77883 44 12.8333V14.6667H0ZM23.2998 44H9.16667C4.11217 44 0 39.8878 0 34.8333V18.3333H33C24.9003 18.3333 18.3333 24.9003 18.3333 33C18.3333 37.3817 20.2547 41.3123 23.2998 44Z" fill="#3B89E4"/>
</g>
<defs>
<clipPath id="clip0_19_94">
<rect width="44" height="44" fill="white"/>
</clipPath>
</defs>
</svg>
