<svg width="28" height="28" viewBox="0 0 28 28" fill="none" xmlns="http://www.w3.org/2000/svg">
<path d="M2.33398 8.16666L11.8597 14.8347C12.6311 15.3746 13.0168 15.6446 13.4363 15.7492C13.8069 15.8416 14.1944 15.8416 14.565 15.7492C14.9845 15.6446 15.3702 15.3746 16.1416 14.8347L25.6673 8.16666M7.93398 23.3333H20.0673C22.0275 23.3333 23.0076 23.3333 23.7563 22.9518C24.4149 22.6163 24.9503 22.0809 25.2858 21.4223C25.6673 20.6736 25.6673 19.6935 25.6673 17.7333V10.2667C25.6673 8.30647 25.6673 7.32638 25.2858 6.57769C24.9503 5.91912 24.4149 5.38369 23.7563 5.04813C23.0076 4.66666 22.0275 4.66666 20.0673 4.66666H7.93398C5.9738 4.66666 4.99371 4.66666 4.24502 5.04813C3.58645 5.38369 3.05102 5.91912 2.71546 6.57769C2.33398 7.32638 2.33398 8.30647 2.33398 10.2667V17.7333C2.33398 19.6935 2.33398 20.6736 2.71546 21.4223C3.05102 22.0809 3.58645 22.6163 4.24502 22.9518C4.99371 23.3333 5.9738 23.3333 7.93398 23.3333Z" stroke="currentColor" stroke-width="2.25" stroke-linecap="round" stroke-linejoin="round"/>
</svg>
