<svg width="48" height="48" viewBox="0 0 48 48" fill="none" xmlns="http://www.w3.org/2000/svg">
<rect width="48" height="48" rx="12" fill="#6E93CB"/>
<g clip-path="url(#clip0_175_3161)">
<g clip-path="url(#clip1_175_3161)">
<path d="M36.8917 30.0766C36.8917 29.9671 36.7833 29.9671 36.7833 29.8577C36.35 28.9817 35.4833 27.9963 34.1833 26.792C33.6417 26.2445 33.2083 25.916 33.1 25.6971C32.775 25.3686 32.775 24.9306 32.8833 24.6022C32.9917 24.2737 33.425 23.7263 34.075 22.8504C34.4 22.4124 34.725 21.9744 34.9417 21.646C36.4583 19.4562 37.2167 18.1423 37 17.5949L36.8917 17.4854C36.7833 17.3759 36.675 17.3759 36.4583 17.2664C36.2417 17.1569 35.9167 17.1569 35.5917 17.2664H31.0417L30.9333 17.3759C30.9333 17.4854 30.825 17.4854 30.825 17.5949C30.3917 18.6898 29.9583 19.6752 29.4167 20.6606C29.0917 21.208 28.7667 21.7555 28.55 22.0839C28.225 22.5219 28.0083 22.8504 27.9 22.9598C27.6833 23.1788 27.575 23.2883 27.3583 23.3978C27.25 23.5073 27.1417 23.6168 27.0333 23.5073C26.925 23.5073 26.925 23.5073 26.8167 23.3978L26.4917 23.0693C26.275 23.2883 26.275 23.0693 26.1667 22.8504V17.5949C26.1667 17.4854 26.0583 17.2664 26.0583 17.1569C25.95 17.0474 25.95 16.9379 25.7333 16.8285C25.625 16.719 25.4083 16.719 25.3 16.6095C24.8667 16.5 24.2167 16.3905 23.4583 16.3905C21.8333 16.5 20.75 16.6095 20.3167 16.8285C20.1 16.9379 19.8833 17.0474 19.775 17.2664C19.5583 17.4854 19.5583 17.5949 19.6667 17.5949C20.2083 17.7044 20.6417 17.9233 20.8583 18.1423L20.9667 18.3613C20.9667 18.4708 21.075 18.6898 21.075 18.9088C21.1833 19.2372 21.1833 19.5657 21.1833 19.8942V21.646C21.1833 22.0839 21.075 22.5219 21.075 22.7409C21.075 22.9598 20.9667 23.1788 20.8583 23.3978C20.8583 23.6168 20.75 23.7263 20.75 23.7263C20.75 23.7263 20.75 23.8358 20.6417 23.8358C20.5333 23.8358 20.425 23.9452 20.3167 23.9452C20.2083 23.9452 19.9917 23.8358 19.8833 23.7263C19.6667 23.5073 19.45 23.3978 19.3417 23.1788C19.125 22.9598 18.9083 22.6314 18.6917 22.1934C18.3667 21.7555 18.15 21.3175 17.9333 20.7701L17.7167 20.3321C17.5 20.1131 17.3917 19.7847 17.0667 19.2372C16.85 18.7993 16.6333 18.2518 16.525 17.8139C16.4167 17.7044 16.3083 17.4854 16.2 17.3759H16.0917C16.0917 17.3759 15.9833 17.2664 15.875 17.2664C15.7667 17.2664 15.6583 17.1569 15.55 17.1569H11.8667C11.5417 17.1569 11.2167 17.2664 11.1083 17.3759L11 17.4854V17.7044C11 17.8139 11 17.9233 11.1083 18.0328C11.65 19.3467 12.1917 20.5511 12.8417 21.7555C13.4917 22.9598 14.0333 23.9452 14.4667 24.6022C14.9 25.3686 15.4417 26.0255 15.875 26.6825C16.3083 27.3394 16.6333 27.7774 16.85 27.8869C16.9583 28.1058 17.175 28.2153 17.175 28.3248L17.5 28.6533C17.7167 28.8723 18.0417 29.0912 18.475 29.4197C18.9083 29.7482 19.3417 30.0766 19.8833 30.2956C20.425 30.6241 20.9667 30.8431 21.6167 31.062C22.2667 31.281 22.9167 31.281 23.5667 31.281H25.0833C25.4083 31.281 25.625 31.1715 25.8417 30.9525V30.8431C25.8417 30.8431 25.95 30.7336 25.95 30.6241V30.2956C25.95 29.8577 25.95 29.5292 26.0583 29.2007C26.1667 28.8723 26.1667 28.6533 26.275 28.5438C26.3833 28.4343 26.4917 28.2153 26.6 28.1058L26.8167 27.8869H26.925C27.1417 27.7774 27.3583 27.8869 27.6833 28.1058C28.0083 28.3248 28.225 28.5438 28.55 28.8723C28.7667 29.2007 29.0917 29.5292 29.525 29.9671C29.85 30.4051 30.175 30.6241 30.5 30.8431L30.7167 31.062C30.9333 31.1715 31.15 31.281 31.475 31.3905C31.8 31.5 32.0167 31.5 32.2333 31.5H35.7C36.025 31.5 36.35 31.3905 36.4583 31.281C36.675 31.1715 36.7833 31.062 36.7833 30.9525V30.5146C36.8917 30.1861 36.8917 30.0766 36.8917 30.0766Z" fill="white"/>
</g>
</g>
<defs>
<clipPath id="clip0_175_3161">
<rect width="26" height="15" fill="white" transform="translate(11 16.5)"/>
</clipPath>
<clipPath id="clip1_175_3161">
<rect width="26" height="15" fill="white" transform="translate(11 16.5)"/>
</clipPath>
</defs>
</svg>
